{"glyphs":{"0":{"ha":664,"x_min":49,"x_max":617,"o":"m 49 488 q 67 719 49 624 q 122 876 86 815 q 211 964 158 936 q 332 992 264 992 q 458 964 404 992 q 547 876 511 936 q 599 719 582 815 q 617 488 617 624 q 597 253 617 350 q 542 97 578 157 q 453 8 506 36 q 332 -19 400 -19 q 206 9 260 -19 q 118 99 153 38 q 66 257 83 161 q 49 488 49 353 m 214 488 q 242 215 214 301 q 333 128 269 128 q 387 147 364 128 q 424 210 410 167 q 444 321 438 253 q 451 488 451 389 q 424 758 451 672 q 332 844 397 844 q 278 825 300 844 q 242 763 256 806 q 221 651 228 719 q 214 488 214 583 z "},"1":{"ha":664,"x_min":72,"x_max":593,"o":"m 121 147 l 279 147 l 279 693 l 297 788 l 240 706 l 149 635 l 72 728 l 340 989 l 438 989 l 438 147 l 593 147 l 593 0 l 121 0 l 121 147 z "},"2":{"ha":664,"x_min":82,"x_max":574,"o":"m 558 739 q 538 591 558 667 q 484 443 517 515 q 413 306 451 371 q 336 190 374 240 l 275 133 l 275 126 l 358 147 l 574 147 l 574 0 l 86 0 l 86 96 q 149 178 115 132 q 217 277 183 225 q 283 385 251 329 q 340 498 315 442 q 378 608 364 554 q 390 710 393 663 q 365 804 393 768 q 278 840 338 840 q 207 824 243 840 q 146 786 171 808 l 82 907 q 186 969 128 946 q 324 992 244 992 q 417 976 374 992 q 491 928 460 960 q 540 849 522 896 q 558 739 558 801 z "},"3":{"ha":664,"x_min":90,"x_max":582,"o":"m 278 128 q 381 174 346 128 q 417 290 417 219 q 261 447 417 447 l 179 447 l 179 542 l 317 775 l 383 838 l 292 825 l 101 825 l 101 972 l 546 972 l 546 874 l 385 611 l 333 574 l 333 567 l 385 575 q 460 554 424 572 q 523 503 496 536 q 566 419 550 469 q 582 301 582 369 q 559 160 582 219 q 497 60 536 100 q 403 0 457 19 q 289 -19 350 -19 q 181 -8 238 -19 q 90 24 124 3 l 135 163 q 199 138 164 147 q 278 128 233 128 z "},"4":{"ha":664,"x_min":24,"x_max":646,"o":"m 646 271 l 524 271 l 524 0 l 367 0 l 367 271 l 24 271 l 24 374 l 379 979 l 524 979 l 524 413 l 646 413 l 646 271 m 367 628 l 382 753 l 376 753 l 335 640 l 225 454 l 169 401 l 240 413 l 367 413 l 367 628 z "},"5":{"ha":664,"x_min":79,"x_max":572,"o":"m 254 132 q 368 181 329 132 q 407 306 407 229 q 361 432 407 393 q 229 471 315 471 l 139 465 l 139 972 l 543 972 l 543 811 l 281 811 l 281 613 l 326 618 q 506 535 439 614 q 572 313 572 456 q 549 168 572 231 q 484 64 525 106 q 386 1 443 22 q 263 -19 329 -19 q 162 -9 213 -19 q 79 18 111 1 l 122 158 q 254 132 174 132 z "},"6":{"ha":664,"x_min":60,"x_max":608,"o":"m 608 301 q 588 168 608 228 q 533 67 568 108 q 448 3 497 25 q 340 -19 399 -19 q 228 2 279 -19 q 139 68 176 24 q 81 183 101 113 q 60 349 60 253 q 94 602 60 490 q 185 794 128 714 q 317 924 243 875 q 474 992 392 974 l 515 857 q 414 813 461 843 q 329 739 367 782 q 266 641 292 696 q 228 525 240 586 q 288 579 251 558 q 376 600 324 600 q 469 582 426 600 q 542 526 511 564 q 591 433 574 489 q 608 301 608 376 m 449 292 q 420 415 449 376 q 333 453 392 453 q 263 429 292 453 q 221 374 233 406 q 219 342 219 358 q 219 311 219 326 q 226 242 219 275 q 248 184 233 210 q 284 143 263 158 q 336 128 306 128 q 417 170 386 128 q 449 292 449 213 z "},"7":{"ha":664,"x_min":72,"x_max":599,"o":"m 122 0 l 385 760 l 435 828 l 365 814 l 72 814 l 72 972 l 599 972 l 599 919 l 283 0 l 122 0 z "},"8":{"ha":664,"x_min":69,"x_max":594,"o":"m 69 233 q 81 323 69 283 q 111 394 92 363 q 155 450 131 425 q 207 496 179 475 q 122 595 153 539 q 90 735 90 651 q 156 922 90 853 q 338 992 222 992 q 508 931 443 992 q 574 757 574 869 q 543 618 574 675 q 456 513 513 561 q 560 403 525 464 q 594 249 594 342 q 574 136 594 186 q 519 51 554 86 q 435 -1 483 17 q 329 -19 386 -19 q 224 -2 271 -19 q 142 47 176 15 q 88 126 107 79 q 69 233 69 174 m 435 249 q 424 311 435 283 q 394 360 413 339 q 352 400 375 382 q 307 435 329 418 q 240 353 258 397 q 221 265 221 310 q 250 167 221 207 q 332 128 279 128 q 407 158 379 128 q 435 249 435 188 m 249 732 q 258 676 249 700 q 282 632 267 651 q 317 597 297 613 q 360 567 338 581 q 408 641 392 604 q 424 725 424 678 q 398 813 424 782 q 336 844 372 844 q 269 810 290 844 q 249 732 249 776 z "},"9":{"ha":664,"x_min":51,"x_max":607,"o":"m 51 668 q 122 903 51 815 q 324 992 192 992 q 530 900 453 992 q 607 625 607 808 q 572 347 607 464 q 479 151 538 229 q 344 32 421 74 q 186 -19 268 -10 l 147 119 q 342 228 272 144 q 431 432 411 313 q 374 383 404 397 q 294 369 343 369 q 208 387 251 369 q 129 441 164 404 q 73 534 94 478 q 51 668 51 590 m 211 678 q 245 558 211 599 q 332 517 279 517 q 400 531 372 517 q 443 572 428 546 q 447 604 446 588 q 447 636 447 621 q 440 717 447 679 q 418 783 433 756 q 379 828 403 811 q 322 844 356 844 q 240 800 269 844 q 211 678 211 756 z "}," ":{"ha":285,"x_min":0,"x_max":0,"o":""},"!":{"ha":349,"x_min":100,"x_max":300,"o":"m 115 972 l 286 972 l 286 515 l 253 289 l 149 289 l 115 515 l 115 972 m 100 90 q 127 168 100 142 q 199 194 154 194 q 274 168 247 194 q 300 90 300 142 q 273 13 300 40 q 199 -15 246 -15 q 126 13 153 -15 q 100 90 100 40 z "},"\"":{"ha":488,"x_min":101,"x_max":431,"o":"m 101 972 l 244 972 l 201 672 l 101 672 l 101 972 m 288 972 l 431 972 l 388 672 l 288 672 l 288 972 z "},"#":{"ha":664,"x_min":21,"x_max":635,"o":"m 336 285 l 240 285 l 199 71 l 64 71 l 106 285 l 21 285 l 50 417 l 131 417 l 161 569 l 78 569 l 107 701 l 186 701 l 226 901 l 363 901 l 322 701 l 418 701 l 458 901 l 593 901 l 553 701 l 635 701 l 604 569 l 528 569 l 497 417 l 578 417 l 547 285 l 472 285 l 431 71 l 294 71 l 336 285 m 267 417 l 363 417 l 392 569 l 296 569 l 267 417 z "},"$":{"ha":664,"x_min":75,"x_max":601,"o":"m 269 -18 q 156 -2 203 -15 q 81 29 108 11 l 126 178 q 184 150 147 163 q 269 132 221 138 l 269 438 q 199 483 233 458 q 137 542 164 508 q 92 622 110 576 q 75 729 75 667 q 128 901 75 838 q 269 983 181 964 l 269 1111 l 401 1111 l 401 989 q 488 976 450 986 q 558 949 525 965 l 513 804 q 464 824 492 815 q 401 838 436 833 l 401 564 q 473 516 438 542 q 537 456 508 490 q 583 376 565 421 q 601 272 601 332 q 547 83 601 153 q 401 -8 493 14 l 401 -139 l 269 -139 l 269 -18 m 344 133 q 411 174 389 142 q 433 254 433 207 q 408 333 433 301 q 344 390 383 364 l 344 133 m 328 840 q 259 805 278 835 q 240 740 240 775 q 265 667 240 697 q 328 611 290 638 l 328 840 z "},"%":{"ha":1000,"x_min":57,"x_max":958,"o":"m 57 753 q 72 861 57 817 q 115 934 88 906 q 181 976 143 963 q 265 989 219 989 q 349 977 311 989 q 415 938 388 965 q 459 865 443 910 q 475 753 475 819 q 459 641 475 686 q 415 568 443 596 q 349 528 388 540 q 265 517 311 517 q 181 528 219 517 q 115 568 143 540 q 72 641 88 596 q 57 753 57 686 m 204 753 q 219 659 204 686 q 265 632 233 632 q 294 637 282 632 q 313 656 306 642 q 324 693 321 669 q 328 753 328 717 q 313 849 328 824 q 265 874 297 874 q 219 849 233 874 q 204 753 204 824 m 540 238 q 556 346 540 301 q 599 419 571 390 q 665 460 626 447 q 749 474 703 474 q 833 462 794 474 q 899 422 871 450 q 942 349 926 394 q 958 238 958 304 q 942 126 958 171 q 899 53 926 81 q 833 13 871 25 q 749 1 794 1 q 665 13 703 1 q 599 53 626 25 q 556 126 571 81 q 540 238 540 171 m 688 238 q 702 144 688 171 q 749 117 717 117 q 777 122 765 117 q 797 140 789 126 q 808 178 804 154 q 811 238 811 201 q 796 333 811 308 q 749 358 781 358 q 702 333 717 358 q 688 238 688 308 m 799 992 l 896 911 l 210 -19 l 111 63 l 799 992 z "},"&":{"ha":932,"x_min":97,"x_max":867,"o":"m 97 269 q 112 369 97 322 q 153 458 126 417 q 215 535 179 500 q 290 599 250 571 q 242 693 261 644 q 224 794 224 742 q 235 865 224 829 q 271 928 246 900 q 335 974 296 957 q 432 992 375 992 q 525 977 486 992 q 588 938 564 963 q 624 882 613 914 q 635 815 635 850 q 600 695 635 757 q 486 575 565 633 q 560 444 521 510 q 649 317 600 378 q 693 399 675 351 q 726 499 711 447 l 850 442 q 831 385 843 417 q 803 322 818 353 q 772 262 788 290 q 743 214 757 233 q 808 149 778 174 q 867 107 838 125 l 782 -19 q 709 28 744 -1 q 640 96 674 57 q 538 15 599 49 q 388 -19 478 -19 q 272 -1 325 -19 q 179 55 218 18 q 119 146 140 92 q 97 269 97 200 m 544 206 q 444 349 489 279 q 367 486 399 419 q 290 391 318 438 q 263 282 263 344 q 302 172 263 211 q 406 132 342 132 q 488 155 450 132 q 544 206 525 178 m 389 786 q 429 661 389 725 q 488 727 469 696 q 506 786 506 758 q 491 838 506 818 q 446 858 476 858 q 403 838 418 858 q 389 786 389 818 z "},"'":{"ha":301,"x_min":101,"x_max":244,"o":"m 101 972 l 244 972 l 201 672 l 101 672 l 101 972 z "},"(":{"ha":386,"x_min":67,"x_max":374,"o":"m 258 -306 q 169 -159 206 -239 q 110 5 133 -79 q 77 174 88 89 q 67 338 67 260 q 77 499 67 414 q 110 669 88 583 q 170 836 133 754 q 261 989 207 918 l 372 926 q 308 788 335 861 q 265 639 282 715 q 240 485 247 563 q 232 338 232 408 q 240 194 232 271 q 265 41 249 118 q 309 -108 282 -36 q 374 -239 336 -181 l 258 -306 z "},")":{"ha":386,"x_min":13,"x_max":319,"o":"m 128 989 q 217 842 181 922 q 276 678 253 763 q 309 509 299 594 q 319 346 319 424 q 309 185 319 269 q 276 15 299 100 q 216 -153 253 -71 q 125 -306 179 -235 l 13 -242 q 81 -99 54 -172 q 124 50 108 -25 q 147 200 140 125 q 154 346 154 275 q 146 490 154 413 q 119 644 138 567 q 75 793 101 721 q 13 925 49 865 l 128 989 z "},"*":{"ha":449,"x_min":40,"x_max":408,"o":"m 171 1006 l 204 946 l 222 868 l 238 940 l 274 1006 l 356 958 l 318 890 l 260 835 l 336 856 l 408 856 l 408 758 l 339 758 l 267 781 l 329 718 l 360 663 l 276 614 l 243 674 l 221 758 l 207 682 l 171 617 l 88 665 l 125 732 l 179 779 l 114 758 l 40 758 l 40 857 l 115 857 l 185 835 l 122 892 l 88 957 l 171 1006 z "},"+":{"ha":617,"x_min":53,"x_max":564,"o":"m 53 546 l 232 546 l 232 749 l 385 749 l 385 546 l 564 546 l 564 399 l 385 399 l 385 194 l 232 194 l 232 399 l 53 399 l 53 546 z "},",":{"ha":300,"x_min":39,"x_max":253,"o":"m 46 90 q 74 165 46 138 q 143 192 101 192 q 224 154 196 192 q 253 50 253 117 q 235 -56 253 -11 q 193 -130 218 -100 q 140 -178 168 -160 q 90 -204 111 -196 l 39 -137 q 96 -84 71 -121 q 124 -10 121 -47 q 70 13 94 -11 q 46 90 46 38 z "},"-":{"ha":414,"x_min":63,"x_max":351,"o":"m 63 478 l 351 478 l 351 319 l 63 319 l 63 478 z "},".":{"ha":294,"x_min":47,"x_max":247,"o":"m 47 90 q 74 168 47 142 q 146 194 101 194 q 221 168 194 194 q 247 90 247 142 q 220 13 247 40 q 146 -15 193 -15 q 74 13 100 -15 q 47 90 47 40 z "},"/":{"ha":485,"x_min":-25,"x_max":510,"o":"m 383 989 l 510 940 l 103 -194 l -25 -146 l 383 989 z "},":":{"ha":349,"x_min":107,"x_max":307,"o":"m 107 593 q 134 671 107 644 q 206 697 161 697 q 281 671 254 697 q 307 593 307 644 q 280 515 307 543 q 206 488 253 488 q 133 515 160 488 q 107 593 107 543 m 107 90 q 134 168 107 142 q 206 194 161 194 q 281 168 254 194 q 307 90 307 142 q 280 13 307 40 q 206 -15 253 -15 q 133 13 160 -15 q 107 90 107 40 z "},";":{"ha":349,"x_min":93,"x_max":307,"o":"m 100 90 q 128 165 100 138 q 197 192 156 192 q 278 154 250 192 q 307 50 307 117 q 290 -56 307 -11 q 247 -130 272 -100 q 194 -178 222 -160 q 144 -204 165 -196 l 93 -137 q 150 -84 125 -121 q 178 -10 175 -47 q 124 13 149 -11 q 100 90 100 38 m 101 593 q 128 671 101 644 q 200 697 156 697 q 275 671 249 697 q 301 593 301 644 q 274 515 301 543 q 200 488 247 488 q 128 515 154 488 q 101 593 101 543 z "},"<":{"ha":617,"x_min":49,"x_max":569,"o":"m 49 396 l 49 493 l 481 801 l 564 689 l 306 496 l 201 447 l 304 404 l 569 214 l 486 101 l 49 396 z "},"=":{"ha":617,"x_min":53,"x_max":564,"o":"m 53 679 l 564 679 l 564 532 l 53 532 l 53 679 m 53 414 l 564 414 l 564 267 l 53 267 l 53 414 z "},">":{"ha":617,"x_min":47,"x_max":568,"o":"m 568 507 l 568 410 l 139 104 l 53 215 l 313 407 l 415 457 l 313 499 l 47 690 l 133 800 l 568 507 z "},"?":{"ha":531,"x_min":26,"x_max":507,"o":"m 157 289 q 163 401 151 353 q 193 485 174 449 q 238 551 213 522 q 285 609 263 581 q 322 669 307 638 q 336 739 336 700 q 313 816 336 788 q 238 844 290 844 q 161 830 201 844 q 92 790 121 815 l 26 915 q 128 969 69 947 q 269 992 186 992 q 444 931 381 992 q 507 761 507 871 q 492 651 507 696 q 453 572 476 606 q 402 510 429 538 q 352 451 375 482 q 313 382 329 421 q 297 289 297 343 l 157 289 m 135 90 q 162 168 135 142 q 233 194 189 194 q 308 168 282 194 q 335 90 335 142 q 308 13 335 40 q 233 -15 281 -15 q 161 13 188 -15 q 135 90 135 40 z "},"@":{"ha":1224,"x_min":79,"x_max":1144,"o":"m 775 672 l 867 672 l 813 293 q 853 167 796 167 q 908 183 881 167 q 956 235 935 200 q 991 324 978 269 q 1004 453 1004 378 q 977 617 1004 549 q 901 730 950 686 q 786 794 853 774 q 640 815 719 815 q 474 780 551 815 q 341 681 397 744 q 252 528 285 617 q 219 331 219 439 q 325 7 219 118 q 621 -104 431 -104 q 701 -94 657 -104 q 779 -67 744 -85 l 819 -187 q 722 -223 775 -211 q 603 -235 669 -235 q 398 -201 493 -235 q 232 -99 303 -168 q 120 76 161 -31 q 79 328 79 182 q 126 589 79 474 q 250 783 172 704 q 429 904 328 863 q 642 946 531 946 q 840 915 747 946 q 999 822 932 883 q 1106 667 1067 760 q 1144 453 1144 575 q 1117 283 1144 361 q 1044 148 1090 204 q 937 60 999 92 q 806 28 875 28 q 709 57 749 28 q 672 158 669 86 l 668 158 q 591 67 636 106 q 481 28 546 28 q 379 81 421 28 q 338 228 338 133 q 360 403 338 321 q 422 547 383 485 q 513 644 461 608 q 622 681 564 681 q 689 667 661 681 q 740 629 717 653 l 775 672 m 701 513 q 636 542 676 542 q 578 519 604 542 q 532 458 551 496 q 501 370 513 419 q 490 268 490 321 q 506 193 490 219 q 556 167 522 167 q 617 201 586 167 q 669 276 649 235 l 701 513 z "},"A":{"ha":696,"x_min":-4,"x_max":699,"o":"m 456 219 l 226 219 l 169 0 l -4 0 l 278 979 l 415 979 l 699 0 l 515 0 l 456 219 m 264 364 l 425 364 l 369 590 l 347 743 l 342 743 l 318 589 l 264 364 z "},"B":{"ha":681,"x_min":63,"x_max":642,"o":"m 618 747 q 610 676 618 711 q 586 609 603 640 q 542 554 569 578 q 478 518 515 531 l 478 510 q 541 485 511 501 q 593 440 571 468 q 628 370 615 411 q 642 274 642 329 q 616 144 642 199 q 547 54 590 89 q 444 3 503 19 q 321 -14 386 -14 q 271 -14 301 -14 q 205 -12 240 -14 q 132 -6 169 -10 q 63 7 94 -1 l 63 965 q 176 980 108 974 q 310 986 243 986 q 427 976 371 986 q 526 940 483 967 q 593 867 568 914 q 618 747 618 821 m 325 138 q 421 175 383 138 q 458 285 458 213 q 446 358 458 331 q 413 399 433 385 q 365 418 392 414 q 308 422 338 422 l 238 422 l 238 146 q 276 140 249 142 q 325 138 303 138 m 278 560 q 313 562 293 560 q 346 567 333 564 q 415 617 386 582 q 443 707 443 651 q 433 768 443 743 q 407 808 424 793 q 367 828 390 822 q 318 835 344 835 q 238 829 261 835 l 238 560 l 278 560 z "},"C":{"ha":635,"x_min":40,"x_max":614,"o":"m 614 39 q 517 -6 578 8 q 397 -19 457 -19 q 258 6 322 -19 q 144 92 193 32 q 68 249 96 151 q 40 488 40 346 q 72 732 40 635 q 153 887 103 829 q 269 968 204 944 q 401 992 335 992 q 520 981 469 992 q 603 956 571 969 l 568 801 q 506 823 542 815 q 422 831 471 831 q 275 747 326 831 q 224 486 224 664 q 235 347 224 410 q 273 238 247 283 q 338 167 299 192 q 433 142 378 142 q 517 155 482 142 q 579 186 551 168 l 614 39 z "},"D":{"ha":743,"x_min":63,"x_max":701,"o":"m 63 972 q 119 978 88 976 q 183 983 150 981 q 246 985 215 985 q 300 986 276 986 q 492 951 415 986 q 616 851 569 915 q 682 696 663 786 q 701 494 701 606 q 683 301 701 393 q 617 138 664 208 q 489 26 569 68 q 286 -15 408 -15 q 238 -14 268 -15 q 174 -10 207 -12 q 110 -6 140 -8 q 63 -1 79 -4 l 63 972 m 318 825 q 273 824 296 825 q 238 821 250 824 l 238 151 q 252 149 242 150 q 274 148 263 149 q 297 147 286 147 q 311 146 307 146 q 414 175 374 146 q 477 253 454 204 q 509 365 500 301 q 518 497 518 428 q 510 621 518 561 q 481 726 503 681 q 420 798 460 771 q 318 825 381 825 z "},"E":{"ha":597,"x_min":63,"x_max":554,"o":"m 63 972 l 549 972 l 549 811 l 238 811 l 238 572 l 519 572 l 519 411 l 238 411 l 238 161 l 554 161 l 554 0 l 63 0 l 63 972 z "},"F":{"ha":582,"x_min":63,"x_max":549,"o":"m 63 972 l 549 972 l 549 811 l 238 811 l 238 558 l 524 558 l 524 397 l 238 397 l 238 0 l 63 0 l 63 972 z "},"G":{"ha":697,"x_min":40,"x_max":657,"o":"m 357 503 l 657 503 l 657 72 q 537 2 606 24 q 400 -19 468 -19 q 251 10 318 -19 q 138 101 185 39 q 66 258 92 163 q 40 486 40 353 q 71 721 40 625 q 152 877 101 817 q 270 965 203 938 q 413 992 338 992 q 534 980 479 992 q 625 953 589 968 l 589 801 q 524 822 561 814 q 435 831 488 831 q 347 811 386 831 q 280 750 307 792 q 238 642 253 708 q 224 485 224 576 q 277 225 224 308 q 418 142 331 142 q 472 150 446 142 q 517 176 497 158 l 517 375 l 357 397 l 357 503 z "},"H":{"ha":740,"x_min":63,"x_max":678,"o":"m 503 411 l 238 411 l 238 0 l 63 0 l 63 972 l 238 972 l 238 572 l 503 572 l 503 972 l 678 972 l 678 0 l 503 0 l 503 411 z "},"I":{"ha":331,"x_min":78,"x_max":253,"o":"m 78 972 l 253 972 l 253 0 l 78 0 l 78 972 z "},"J":{"ha":401,"x_min":-24,"x_max":332,"o":"m 157 972 l 332 972 l 332 265 q 322 149 332 201 q 288 60 311 97 q 225 3 264 24 q 128 -17 186 -17 q 48 -8 88 -17 q -24 15 8 0 l 17 163 q 85 144 46 144 q 145 185 133 144 q 157 303 157 226 l 157 972 z "},"K":{"ha":721,"x_min":63,"x_max":710,"o":"m 275 417 l 238 417 l 238 0 l 63 0 l 63 972 l 238 972 l 238 540 l 272 557 l 476 972 l 674 972 l 451 563 l 386 511 l 453 458 l 710 0 l 496 0 l 275 417 z "},"L":{"ha":589,"x_min":63,"x_max":579,"o":"m 579 0 l 63 0 l 63 972 l 238 972 l 238 161 l 579 161 l 579 0 z "},"M":{"ha":922,"x_min":63,"x_max":860,"o":"m 685 501 l 704 688 l 697 688 l 646 521 l 488 179 l 429 179 l 261 522 l 210 690 l 201 690 l 228 503 l 228 0 l 63 0 l 63 972 l 231 972 l 433 551 l 467 431 l 472 431 l 504 554 l 694 972 l 860 972 l 860 0 l 685 0 l 685 501 z "},"N":{"ha":750,"x_min":63,"x_max":688,"o":"m 276 478 l 213 649 l 206 649 l 228 481 l 228 0 l 63 0 l 63 979 l 197 979 l 476 490 l 536 322 l 544 322 l 522 488 l 522 972 l 688 972 l 688 -7 l 553 -7 l 276 478 z "},"O":{"ha":768,"x_min":40,"x_max":728,"o":"m 40 486 q 125 863 40 733 q 383 992 210 992 q 539 956 474 992 q 646 855 604 921 q 708 695 688 789 q 728 486 728 601 q 641 110 728 239 q 383 -19 554 -19 q 227 16 292 -19 q 121 117 163 51 q 60 277 79 183 q 40 486 40 371 m 224 486 q 232 349 224 413 q 260 240 240 286 q 309 168 279 194 q 383 142 339 142 q 504 224 464 142 q 544 486 544 306 q 536 620 544 557 q 509 730 528 683 q 460 803 490 776 q 383 831 429 831 q 224 486 224 831 z "},"P":{"ha":663,"x_min":63,"x_max":638,"o":"m 63 963 q 172 980 113 974 q 292 986 232 986 q 417 974 356 986 q 528 928 479 963 q 607 830 576 893 q 638 665 638 767 q 612 510 638 574 q 543 406 586 446 q 444 347 500 365 q 328 329 388 329 q 310 329 322 329 q 283 330 297 329 q 256 332 269 331 q 238 335 243 333 l 238 0 l 63 0 l 63 963 m 238 492 q 269 487 246 489 q 300 485 292 485 q 358 493 331 485 q 408 522 386 501 q 442 577 429 542 q 454 667 454 613 q 442 744 454 713 q 410 795 431 776 q 364 822 390 814 q 308 831 338 831 q 238 824 265 831 l 238 492 z "},"Q":{"ha":768,"x_min":40,"x_max":804,"o":"m 804 -272 q 748 -286 776 -282 q 692 -290 719 -290 q 578 -276 633 -290 q 472 -245 524 -262 q 373 -214 421 -228 q 282 -200 325 -200 q 255 -201 268 -200 q 229 -207 242 -203 l 229 -51 q 296 -43 263 -43 q 391 -57 343 -43 q 488 -87 439 -71 q 590 -117 538 -103 q 699 -131 642 -131 q 750 -127 724 -131 q 804 -115 776 -124 l 804 -272 m 40 486 q 125 863 40 733 q 383 992 210 992 q 539 956 474 992 q 646 855 604 921 q 708 695 688 789 q 728 486 728 601 q 641 110 728 239 q 383 -19 554 -19 q 227 16 292 -19 q 121 117 163 51 q 60 277 79 183 q 40 486 40 371 m 224 486 q 232 349 224 413 q 260 240 240 286 q 309 168 279 194 q 383 142 339 142 q 504 224 464 142 q 544 486 544 306 q 536 620 544 557 q 509 730 528 683 q 460 803 490 776 q 383 831 429 831 q 224 486 224 831 z "},"R":{"ha":699,"x_min":63,"x_max":683,"o":"m 63 963 q 185 981 119 975 q 297 986 250 986 q 414 974 357 986 q 515 931 471 963 q 585 847 558 900 q 613 711 613 793 q 569 519 613 593 q 449 417 525 444 l 504 372 l 683 0 l 482 0 l 313 383 l 238 401 l 238 0 l 63 0 l 63 963 m 238 521 l 297 521 q 396 560 363 521 q 429 683 429 600 q 401 785 429 746 q 314 825 374 825 q 271 824 292 825 q 238 818 250 822 l 238 521 z "},"S":{"ha":610,"x_min":26,"x_max":578,"o":"m 403 250 q 376 326 403 294 q 310 385 350 357 q 224 442 271 413 q 138 510 178 471 q 72 601 99 549 q 46 731 46 654 q 67 851 46 801 q 126 931 89 900 q 215 977 164 963 q 325 992 267 992 q 457 978 396 992 q 558 940 518 964 l 504 786 q 434 817 481 803 q 333 831 388 831 q 250 808 279 831 q 221 743 221 786 q 247 674 221 704 q 313 617 274 644 q 399 559 353 589 q 485 490 446 529 q 551 397 525 450 q 578 269 578 343 q 556 142 578 196 q 495 52 535 88 q 400 -1 456 17 q 276 -19 344 -19 q 126 -3 190 -19 q 26 35 61 14 l 83 192 q 160 158 111 175 q 264 142 208 142 q 403 250 403 142 z "},"T":{"ha":658,"x_min":11,"x_max":647,"o":"m 647 811 l 417 811 l 417 0 l 242 0 l 242 811 l 11 811 l 11 972 l 647 972 l 647 811 z "},"U":{"ha":715,"x_min":58,"x_max":657,"o":"m 492 972 l 657 972 l 657 342 q 580 68 657 153 q 367 -17 503 -17 q 133 66 207 -17 q 58 318 58 149 l 58 972 l 233 972 l 233 349 q 264 190 233 235 q 365 144 294 144 q 463 192 433 144 q 492 349 492 240 l 492 972 z "},"V":{"ha":699,"x_min":-14,"x_max":711,"o":"m 338 401 l 357 235 l 363 235 l 385 403 l 526 972 l 711 972 l 417 -7 l 283 -7 l -14 972 l 193 972 l 338 401 z "},"W":{"ha":996,"x_min":-3,"x_max":999,"o":"m 285 438 l 299 263 l 304 263 l 319 440 l 450 972 l 572 972 l 699 438 l 714 263 l 719 263 l 735 440 l 821 972 l 999 972 l 781 -7 l 657 -7 l 521 529 l 503 681 l 496 681 l 479 528 l 343 -7 l 214 -7 l -3 972 l 190 972 l 285 438 z "},"X":{"ha":733,"x_min":8,"x_max":724,"o":"m 246 494 l 31 972 l 242 972 l 354 694 l 381 589 l 406 694 l 524 972 l 713 972 l 490 504 l 724 0 l 519 0 l 389 299 l 360 407 l 332 299 l 201 0 l 8 0 l 246 494 z "},"Y":{"ha":688,"x_min":-6,"x_max":693,"o":"m 256 361 l -6 972 l 203 972 l 338 604 l 351 499 l 358 499 l 374 607 l 506 972 l 693 972 l 431 363 l 431 0 l 256 0 l 256 361 z "},"Z":{"ha":618,"x_min":29,"x_max":589,"o":"m 29 161 l 354 754 l 413 811 l 29 811 l 29 972 l 589 972 l 589 811 l 263 214 l 206 161 l 589 161 l 589 0 l 29 0 l 29 161 z "},"[":{"ha":383,"x_min":63,"x_max":351,"o":"m 63 972 l 351 972 l 351 829 l 222 829 l 222 -176 l 351 -176 l 351 -319 l 63 -319 l 63 972 z "},"\\":{"ha":503,"x_min":-25,"x_max":518,"o":"m 518 -143 l 389 -194 l -25 939 l 106 988 l 518 -143 z "},"]":{"ha":383,"x_min":32,"x_max":321,"o":"m 321 -319 l 32 -319 l 32 -176 l 161 -176 l 161 829 l 32 829 l 32 972 l 321 972 l 321 -319 z "},"^":{"ha":594,"x_min":25,"x_max":561,"o":"m 251 979 l 346 979 l 561 574 l 396 574 l 318 743 l 294 844 l 265 742 l 183 574 l 25 574 l 251 979 z "},"_":{"ha":519,"x_min":0,"x_max":519,"o":"m 0 -169 l 519 -169 l 519 -311 l 0 -311 l 0 -169 z "},"`":{"ha":403,"x_min":83,"x_max":319,"o":"m 319 786 l 228 786 l 83 958 l 83 1000 l 251 1000 l 319 786 z "},"a":{"ha":574,"x_min":24,"x_max":531,"o":"m 61 653 q 165 693 103 678 q 307 708 228 708 q 472 647 425 708 q 518 474 518 586 q 515 345 518 408 q 510 222 511 282 q 512 105 508 161 q 531 -1 515 49 l 396 -1 l 369 83 l 364 83 q 301 17 342 43 q 200 -10 261 -10 q 71 45 118 -10 q 24 192 24 100 q 113 369 24 317 q 353 414 201 422 q 342 531 360 494 q 268 567 325 567 q 182 557 226 567 q 103 529 138 547 l 61 653 m 260 132 q 321 151 297 132 q 356 192 344 169 l 356 307 q 294 308 324 311 q 243 296 265 306 q 208 267 221 286 q 194 219 194 249 q 212 154 194 176 q 260 132 229 132 z "},"b":{"ha":615,"x_min":60,"x_max":581,"o":"m 60 972 l 225 972 l 225 650 l 229 650 q 372 711 279 711 q 526 629 471 711 q 581 365 581 547 q 503 76 581 168 q 290 -17 425 -17 q 155 -3 217 -17 q 60 28 93 11 l 60 972 m 225 150 q 301 135 254 135 q 382 185 354 135 q 410 356 410 236 q 388 510 410 461 q 318 560 365 560 q 225 488 249 560 l 225 150 z "},"c":{"ha":486,"x_min":35,"x_max":469,"o":"m 469 38 q 386 -4 435 10 q 289 -18 338 -18 q 170 8 218 -18 q 92 81 122 33 q 48 197 61 129 q 35 347 35 264 q 100 621 35 529 q 292 713 165 713 q 394 701 354 713 q 464 674 433 690 l 425 536 q 377 555 400 549 q 322 561 354 561 q 235 510 264 561 q 206 347 206 460 q 235 193 206 253 q 331 133 265 133 q 390 142 365 133 q 435 165 414 151 l 469 38 z "},"d":{"ha":618,"x_min":35,"x_max":571,"o":"m 558 244 q 560 128 558 186 q 571 -1 561 69 l 454 -1 l 432 79 l 426 79 q 261 -18 379 -18 q 95 65 156 -18 q 35 336 35 149 q 100 615 35 519 q 294 710 165 710 q 350 706 328 710 q 393 692 372 701 l 393 972 l 558 972 l 558 244 m 300 133 q 360 152 338 133 q 393 207 382 171 l 393 535 q 362 553 379 547 q 317 558 344 558 q 233 508 261 558 q 206 331 206 458 q 228 184 206 235 q 300 133 251 133 z "},"e":{"ha":594,"x_min":35,"x_max":549,"o":"m 529 51 q 435 1 494 21 q 310 -18 375 -18 q 185 7 238 -18 q 100 79 133 32 q 51 194 67 126 q 35 347 35 261 q 109 624 35 535 q 315 714 183 714 q 401 701 360 714 q 476 656 443 688 q 528 573 508 625 q 549 442 549 521 q 545 376 549 411 q 535 301 542 342 l 197 301 q 233 169 200 215 q 340 124 267 124 q 422 138 385 124 q 478 167 458 151 l 529 51 m 313 572 q 233 530 260 572 q 203 411 207 488 l 394 411 q 378 531 399 490 q 313 572 357 572 z "},"f":{"ha":371,"x_min":11,"x_max":429,"o":"m 11 694 l 86 694 l 86 733 q 135 924 86 865 q 276 983 185 983 q 429 958 368 983 l 399 818 q 354 830 374 828 q 314 832 335 832 q 263 801 274 832 q 251 694 251 769 l 369 694 l 369 547 l 251 547 l 251 0 l 86 0 l 86 547 l 11 547 l 11 694 z "},"g":{"ha":615,"x_min":35,"x_max":557,"o":"m 557 0 q 488 -223 557 -151 q 294 -294 418 -294 q 160 -281 208 -294 q 85 -253 111 -268 l 119 -112 q 185 -136 150 -125 q 269 -147 221 -147 q 367 -109 340 -147 q 394 7 394 -71 l 394 44 l 390 44 q 338 3 371 17 q 254 -11 306 -11 q 90 72 144 -11 q 35 333 35 154 q 110 618 35 526 q 326 710 186 710 q 461 698 401 710 q 557 669 521 686 l 557 0 m 300 131 q 359 149 338 131 q 392 200 381 167 l 392 547 q 358 558 376 554 q 314 563 339 563 q 234 513 263 563 q 206 340 206 463 q 300 131 206 131 z "},"h":{"ha":624,"x_min":60,"x_max":569,"o":"m 404 0 l 404 419 q 387 528 404 494 q 324 561 369 561 q 263 538 290 561 q 225 478 235 514 l 225 0 l 60 0 l 60 972 l 225 972 l 225 632 l 229 632 q 297 690 257 668 q 396 713 336 713 q 471 700 439 713 q 525 658 503 688 q 558 580 547 629 q 569 456 569 531 l 569 0 l 404 0 z "},"i":{"ha":313,"x_min":54,"x_max":263,"o":"m 74 694 l 239 694 l 239 0 l 74 0 l 74 694 m 54 890 q 81 959 54 932 q 156 986 107 986 q 233 960 204 986 q 263 890 263 933 q 233 822 263 847 q 156 797 204 797 q 81 823 107 797 q 54 890 54 849 z "},"j":{"ha":313,"x_min":-22,"x_max":263,"o":"m 75 694 l 240 694 l 240 -29 q 197 -222 240 -156 q 57 -289 153 -289 q -22 -279 18 -289 l -22 -132 q 56 -98 38 -137 q 75 19 75 -58 l 75 694 m 54 890 q 81 959 54 932 q 156 986 107 986 q 233 960 204 986 q 263 890 263 933 q 233 822 263 847 q 156 797 204 797 q 81 823 107 797 q 54 890 54 849 z "},"k":{"ha":572,"x_min":60,"x_max":572,"o":"m 264 288 l 225 288 l 225 0 l 60 0 l 60 972 l 225 972 l 225 399 l 258 418 l 374 694 l 553 694 l 425 419 l 365 372 l 431 325 l 572 0 l 386 0 l 264 288 z "},"l":{"ha":338,"x_min":63,"x_max":340,"o":"m 228 225 q 238 156 228 176 q 269 135 247 135 q 295 138 282 135 q 325 147 308 140 l 340 14 q 283 -7 324 3 q 201 -17 243 -17 q 97 18 132 -17 q 63 136 63 53 l 63 972 l 228 972 l 228 225 z "},"m":{"ha":921,"x_min":60,"x_max":867,"o":"m 381 0 l 381 404 q 367 526 381 492 q 313 560 353 560 q 258 538 279 560 q 225 486 236 517 l 225 0 l 60 0 l 60 694 l 188 694 l 208 611 l 213 611 q 278 683 239 654 q 383 711 318 711 q 472 688 438 711 q 525 604 506 664 q 594 683 551 654 q 696 711 638 711 q 774 699 742 711 q 827 658 807 688 q 857 578 847 629 q 867 450 867 528 l 867 0 l 701 0 l 701 422 q 689 526 701 493 q 633 560 676 560 q 577 540 599 560 q 546 485 556 519 l 546 0 l 381 0 z "},"n":{"ha":624,"x_min":60,"x_max":569,"o":"m 404 0 l 404 422 q 386 529 404 499 q 325 560 368 560 q 263 538 289 560 q 225 482 236 515 l 225 0 l 60 0 l 60 694 l 192 694 l 211 614 l 215 614 q 283 683 240 654 q 396 711 326 711 q 470 699 438 711 q 525 658 503 686 q 558 581 547 629 q 569 463 569 533 l 569 0 l 404 0 z "},"o":{"ha":618,"x_min":35,"x_max":583,"o":"m 35 347 q 107 622 35 532 q 308 713 179 713 q 515 621 447 713 q 583 347 583 529 q 511 72 583 161 q 308 -18 439 -18 q 35 347 35 -18 m 206 347 q 229 186 206 243 q 308 129 253 129 q 387 178 361 129 q 413 347 413 228 q 389 510 413 454 q 308 565 365 565 q 233 516 260 565 q 206 347 206 467 z "},"p":{"ha":621,"x_min":60,"x_max":586,"o":"m 60 694 l 183 694 l 200 615 l 204 615 q 276 688 236 665 q 374 711 315 711 q 533 631 479 711 q 586 365 586 551 q 519 80 586 179 q 326 -19 453 -19 q 269 -14 293 -19 q 225 4 246 -8 l 225 -278 l 60 -278 l 60 694 m 225 156 q 256 135 239 142 q 301 128 274 128 q 386 183 357 128 q 415 369 415 238 q 393 516 415 468 q 319 564 371 564 q 225 482 250 564 l 225 156 z "},"q":{"ha":615,"x_min":35,"x_max":557,"o":"m 557 -278 l 392 -278 l 392 49 l 386 49 q 335 -1 367 18 q 251 -19 304 -19 q 92 68 149 -19 q 35 333 35 156 q 114 615 35 519 q 339 710 193 710 q 462 697 401 710 q 557 669 522 685 l 557 -278 m 392 546 q 314 563 363 563 q 233 510 260 563 q 206 340 206 458 q 300 128 206 128 q 359 147 338 128 q 392 200 381 165 l 392 546 z "},"r":{"ha":407,"x_min":60,"x_max":407,"o":"m 388 531 q 326 543 354 543 q 262 522 289 543 q 225 464 235 501 l 225 0 l 60 0 l 60 694 l 186 694 l 206 611 l 211 611 q 263 683 229 657 q 342 708 297 708 q 407 694 375 708 l 388 531 z "},"s":{"ha":486,"x_min":26,"x_max":458,"o":"m 293 185 q 274 234 293 214 q 226 272 256 254 q 165 307 197 289 q 103 351 132 325 q 55 415 74 378 q 36 510 36 453 q 89 660 36 607 q 244 713 142 713 q 360 699 306 713 q 446 667 414 686 l 407 539 q 343 560 381 550 q 269 571 306 571 q 201 514 201 571 q 220 470 201 488 q 268 436 239 453 q 330 401 297 419 q 392 356 363 383 q 440 290 421 329 q 458 194 458 251 q 400 40 458 99 q 226 -18 342 -18 q 115 -4 169 -18 q 26 32 60 10 l 72 165 q 140 136 101 149 q 219 124 178 124 q 272 138 251 124 q 293 185 293 153 z "},"t":{"ha":404,"x_min":6,"x_max":396,"o":"m 6 694 l 82 694 l 82 825 l 247 876 l 247 694 l 382 694 l 382 547 l 247 547 l 247 244 q 259 160 247 185 q 301 135 271 135 q 339 139 322 135 q 375 151 356 143 l 396 19 q 325 -6 365 4 q 240 -17 285 -17 q 122 29 161 -17 q 82 183 82 75 l 82 547 l 6 547 l 6 694 z "},"u":{"ha":619,"x_min":54,"x_max":578,"o":"m 219 694 l 219 279 q 235 165 219 197 q 290 133 250 133 q 356 162 329 133 q 393 231 382 190 l 393 694 l 558 694 l 558 211 q 563 99 558 154 q 578 0 567 44 l 453 0 l 424 94 l 419 94 q 348 14 393 46 q 236 -18 303 -18 q 160 -6 193 -18 q 103 35 126 6 q 67 115 79 64 q 54 243 54 165 l 54 694 l 219 694 z "},"v":{"ha":554,"x_min":-18,"x_max":572,"o":"m 271 332 l 288 222 l 293 222 l 308 333 l 394 694 l 572 694 l 339 -7 l 228 -7 l -18 694 l 175 694 l 271 332 z "},"w":{"ha":828,"x_min":-10,"x_max":838,"o":"m 489 694 l 586 339 l 603 224 l 608 224 l 622 340 l 688 694 l 838 694 l 667 -7 l 536 -7 l 432 381 l 421 469 l 413 469 l 403 378 l 303 -7 l 168 -7 l -10 694 l 169 694 l 244 346 l 257 222 l 263 222 l 281 347 l 365 694 l 489 694 z "},"x":{"ha":610,"x_min":6,"x_max":603,"o":"m 185 356 l 19 694 l 214 694 l 285 531 l 311 442 l 340 531 l 413 694 l 592 694 l 425 361 l 603 0 l 415 0 l 331 181 l 300 279 l 268 181 l 183 0 l 6 0 l 185 356 z "},"y":{"ha":556,"x_min":-14,"x_max":569,"o":"m 282 304 l 300 196 l 307 196 l 319 306 l 400 694 l 569 694 l 396 68 q 351 -79 372 -14 q 307 -190 331 -144 q 253 -260 283 -236 q 182 -285 224 -285 q 126 -280 153 -285 q 79 -264 99 -275 l 107 -122 q 144 -128 125 -129 q 178 -115 163 -128 q 207 -74 194 -101 q 228 0 219 -46 l -14 694 l 185 694 l 282 304 z "},"z":{"ha":529,"x_min":33,"x_max":493,"o":"m 33 147 l 258 488 l 319 547 l 33 547 l 33 694 l 493 694 l 493 547 l 271 201 l 211 147 l 493 147 l 493 0 l 33 0 l 33 147 z "},"{":{"ha":435,"x_min":44,"x_max":411,"o":"m 136 136 q 113 233 136 207 q 44 260 89 260 l 44 393 q 113 422 89 393 q 136 511 136 450 l 136 808 q 165 928 136 882 q 263 974 193 974 l 411 974 l 411 832 l 354 832 q 308 813 322 832 q 294 749 294 793 l 294 467 q 271 374 294 406 q 215 336 247 343 l 215 322 q 271 281 247 317 q 294 186 294 244 l 294 -94 q 308 -158 294 -137 q 356 -178 321 -178 l 411 -178 l 411 -319 l 263 -319 q 136 -156 136 -319 l 136 136 z "},"|":{"ha":261,"x_min":63,"x_max":199,"o":"m 63 972 l 199 972 l 199 -181 l 63 -181 l 63 972 z "},"}":{"ha":435,"x_min":35,"x_max":401,"o":"m 310 518 q 333 421 310 447 q 401 394 357 394 l 401 261 q 333 233 357 261 q 310 143 310 204 l 310 -156 q 280 -275 310 -231 q 179 -319 250 -319 l 35 -319 l 35 -178 l 92 -178 q 138 -158 124 -178 q 151 -94 151 -139 l 151 188 q 175 280 151 249 q 231 318 199 311 l 231 332 q 175 374 199 338 q 151 468 151 410 l 151 749 q 138 812 151 792 q 90 832 125 832 l 35 832 l 35 974 l 183 974 q 310 811 310 974 l 310 518 z "},"~":{"ha":617,"x_min":32,"x_max":585,"o":"m 32 525 q 131 598 86 578 q 213 618 175 618 q 275 607 246 618 q 331 582 304 596 q 383 557 357 568 q 436 546 408 546 q 478 555 457 546 q 524 585 500 564 l 585 442 q 508 390 543 404 q 443 375 474 375 q 383 387 411 375 q 327 413 354 399 q 273 440 300 428 q 217 453 246 453 q 158 438 189 453 q 89 386 126 424 l 32 525 z "}," ":{"ha":285,"x_min":0,"x_max":0,"o":""},"¡":{"ha":349,"x_min":49,"x_max":249,"o":"m 235 -281 l 64 -281 l 64 176 l 96 403 l 201 403 l 235 176 l 235 -281 m 49 601 q 76 681 49 654 q 147 707 103 707 q 222 681 196 707 q 249 601 249 654 q 222 525 249 553 q 147 497 194 497 q 75 525 101 497 q 49 601 49 553 z "},"¢":{"ha":664,"x_min":97,"x_max":575,"o":"m 575 39 q 528 12 556 24 q 471 -7 501 0 l 471 -139 l 315 -139 l 315 -14 q 214 26 256 -4 q 147 103 172 56 q 109 212 121 150 q 97 347 97 274 q 153 592 97 500 q 315 707 210 685 l 315 833 l 471 833 l 471 707 q 568 674 531 697 l 533 540 q 497 552 517 547 q 457 560 476 557 l 457 133 q 506 146 485 138 q 542 164 526 154 l 575 39 m 350 557 q 283 491 306 542 q 260 347 260 440 q 281 213 260 267 q 350 139 303 158 l 350 557 z "},"£":{"ha":664,"x_min":61,"x_max":610,"o":"m 61 544 l 144 544 q 115 625 128 581 q 103 733 103 669 q 122 849 103 800 q 176 929 142 897 q 257 976 210 961 q 361 992 304 992 q 490 978 432 992 q 592 940 547 964 l 539 797 q 477 823 515 811 q 386 835 439 835 q 303 803 333 835 q 274 704 274 771 q 288 619 274 656 q 322 544 303 582 l 485 544 l 485 406 l 369 406 q 374 378 372 392 q 375 350 375 365 q 363 263 375 310 q 326 186 350 215 l 264 138 l 264 129 l 356 151 l 610 151 l 610 0 l 61 0 l 61 151 l 64 151 q 126 168 99 153 q 172 208 154 183 q 200 265 190 233 q 210 332 210 297 q 201 406 210 372 l 61 406 l 61 544 z "},"¤":{"ha":664,"x_min":-18,"x_max":682,"o":"m 78 843 l 176 746 l 200 700 q 259 728 225 719 q 331 738 293 738 q 403 728 367 738 q 464 701 439 718 l 488 746 l 585 843 l 682 742 l 586 644 l 539 624 q 574 494 574 572 q 565 424 574 457 q 539 368 556 392 l 586 349 l 682 250 l 585 150 l 488 246 l 465 292 q 404 265 442 275 q 331 256 367 256 q 259 265 293 256 q 200 292 225 274 l 176 246 l 78 150 l -18 250 l 78 349 l 124 371 q 100 426 108 396 q 92 494 92 457 q 101 564 92 532 q 126 624 110 596 l 78 644 l -18 742 l 78 843 m 229 496 q 258 419 229 450 q 332 389 286 389 q 406 419 378 389 q 435 496 435 450 q 406 572 435 540 q 332 604 378 604 q 258 572 286 604 q 229 496 229 540 z "},"¥":{"ha":664,"x_min":-17,"x_max":682,"o":"m 92 467 l 199 467 l -17 972 l 192 972 l 326 604 l 340 499 l 347 499 l 363 607 l 494 972 l 682 972 l 464 467 l 572 467 l 572 357 l 419 357 l 419 276 l 572 276 l 572 167 l 419 167 l 419 0 l 244 0 l 244 167 l 92 167 l 92 276 l 244 276 l 244 357 l 92 357 l 92 467 z "},"¦":{"ha":261,"x_min":63,"x_max":199,"o":"m 63 296 l 199 296 l 199 -181 l 63 -181 l 63 296 m 199 496 l 63 496 l 63 972 l 199 972 l 199 496 z "},"§":{"ha":617,"x_min":53,"x_max":564,"o":"m 168 668 q 115 725 136 692 q 94 817 94 758 q 145 942 94 892 q 304 992 196 992 q 433 978 371 992 q 526 949 496 965 l 485 811 q 414 835 456 825 q 336 844 372 844 q 277 828 294 844 q 260 792 260 813 q 282 750 260 765 q 338 722 304 735 q 412 695 372 710 q 485 655 451 681 q 542 588 519 629 q 564 482 564 547 q 547 397 564 439 q 499 322 529 354 l 447 303 q 500 247 479 281 q 521 156 521 213 q 464 26 521 71 q 306 -19 407 -19 q 173 -4 228 -19 q 82 33 118 11 l 125 167 q 191 140 153 151 q 276 128 229 128 q 337 142 318 128 q 356 185 356 156 q 333 226 356 211 q 277 253 311 240 q 204 282 243 267 q 131 323 165 297 q 75 388 97 349 q 53 490 53 428 q 70 575 53 533 q 119 649 88 617 l 168 668 m 344 374 q 383 419 368 390 q 399 479 399 447 q 365 549 399 526 q 271 596 331 572 q 233 553 247 579 q 218 493 218 528 q 252 422 218 447 q 344 374 286 396 z "},"¨":{"ha":600,"x_min":83,"x_max":517,"o":"m 83 904 q 108 974 83 949 q 172 999 132 999 q 235 974 211 999 q 258 904 258 949 q 235 838 258 863 q 172 814 211 814 q 108 838 132 814 q 83 904 83 863 m 342 904 q 365 974 342 949 q 429 999 389 999 q 493 974 469 999 q 517 904 517 949 q 493 838 517 863 q 429 814 469 814 q 365 838 389 814 q 342 904 342 863 z "},"©":{"ha":1007,"x_min":71,"x_max":936,"o":"m 71 414 q 104 594 71 514 q 196 730 138 674 q 333 816 254 786 q 504 846 413 846 q 674 816 594 846 q 811 730 753 786 q 903 594 869 674 q 936 414 936 514 q 903 234 936 314 q 811 98 869 154 q 674 12 753 42 q 504 -18 594 -18 q 324 12 404 -18 q 187 98 243 42 q 101 234 131 154 q 71 414 71 314 m 190 414 q 213 280 190 339 q 278 179 236 221 q 377 115 319 138 q 504 93 435 93 q 630 115 572 93 q 729 179 688 138 q 794 280 771 221 q 817 414 817 339 q 794 548 817 489 q 729 649 771 607 q 630 713 688 690 q 504 735 572 735 q 377 713 435 735 q 278 649 319 690 q 213 548 236 607 q 190 414 190 489 m 654 224 q 588 197 628 207 q 501 186 547 186 q 354 248 406 186 q 303 414 303 310 q 357 582 303 522 q 501 642 411 642 q 580 631 546 642 q 646 603 614 621 l 607 496 q 568 510 586 507 q 535 514 550 514 q 481 490 500 514 q 463 414 463 467 q 543 314 463 314 q 618 332 583 314 l 654 224 z "},"ª":{"ha":482,"x_min":40,"x_max":440,"o":"m 63 938 q 149 970 93 957 q 275 983 204 983 q 401 945 367 983 q 435 828 435 907 q 433 735 435 781 q 432 649 432 690 q 433 585 432 615 q 440 528 435 556 l 318 528 l 300 589 l 296 589 q 253 544 282 565 q 176 522 225 522 q 76 560 113 522 q 40 660 40 599 q 60 736 40 706 q 115 785 81 767 q 196 809 150 803 q 292 813 242 815 q 284 865 294 849 q 235 882 274 882 q 154 872 190 882 q 93 851 118 863 l 63 938 m 292 731 q 215 726 246 736 q 183 678 183 715 q 195 642 183 656 q 225 629 207 629 q 271 642 257 629 q 292 668 285 654 l 292 731 z "},"«":{"ha":563,"x_min":31,"x_max":531,"o":"m 256 363 l 429 663 l 524 600 l 428 415 l 375 361 l 428 313 l 531 131 l 436 67 l 256 363 m 31 360 l 213 679 l 318 608 l 213 418 l 158 361 l 213 311 l 324 124 l 219 53 l 31 360 z "},"¬":{"ha":617,"x_min":56,"x_max":567,"o":"m 56 568 l 567 568 l 567 258 l 411 258 l 411 421 l 56 421 l 56 568 z "},"­":{"ha":414,"x_min":63,"x_max":351,"o":"m 63 478 l 351 478 l 351 319 l 63 319 l 63 478 z "},"®":{"ha":826,"x_min":75,"x_max":751,"o":"m 75 671 q 102 815 75 751 q 176 921 129 878 q 283 986 222 964 q 414 1008 344 1008 q 546 986 485 1008 q 653 921 607 964 q 725 815 699 878 q 751 671 751 751 q 724 527 751 590 q 651 421 697 464 q 544 356 606 378 q 414 333 482 333 q 281 356 343 333 q 174 421 219 378 q 101 527 128 464 q 75 671 75 590 m 189 671 q 207 569 189 613 q 256 498 225 526 q 328 456 288 469 q 414 442 368 442 q 502 456 461 442 q 574 497 543 469 q 621 569 604 525 q 638 671 638 613 q 619 772 638 729 q 571 844 601 815 q 500 887 540 872 q 414 901 460 901 q 251 840 313 901 q 189 671 189 779 m 290 826 q 344 835 310 832 q 410 839 379 839 q 496 818 460 839 q 532 746 532 797 q 508 688 532 708 q 447 664 483 667 l 481 647 l 558 517 l 485 517 l 410 642 l 353 660 l 353 517 l 290 517 l 290 826 m 397 785 q 372 784 383 785 q 353 779 360 783 l 353 696 l 393 696 q 447 706 429 696 q 465 743 465 717 q 397 785 465 785 z "},"¯":{"ha":544,"x_min":83,"x_max":461,"o":"m 83 914 l 461 914 l 461 788 l 83 788 l 83 914 z "},"°":{"ha":506,"x_min":61,"x_max":456,"o":"m 61 761 q 76 856 61 813 q 116 928 90 899 q 178 975 142 958 q 257 992 214 992 q 401 932 346 992 q 456 761 456 872 q 401 593 456 653 q 257 533 346 533 q 115 593 169 533 q 61 761 61 653 m 186 761 q 206 684 186 715 q 258 653 225 653 q 310 684 290 653 q 331 761 331 715 q 310 840 331 808 q 258 872 290 872 q 206 841 225 872 q 186 761 186 810 z "},"±":{"ha":617,"x_min":53,"x_max":564,"o":"m 53 694 l 232 694 l 232 893 l 385 893 l 385 694 l 564 694 l 564 547 l 385 547 l 385 417 l 232 417 l 232 547 l 53 547 l 53 694 m 53 350 l 564 350 l 564 203 l 53 203 l 53 350 z "},"²":{"ha":490,"x_min":63,"x_max":431,"o":"m 415 950 q 405 872 415 908 q 378 802 394 835 q 339 740 361 769 q 293 685 317 711 l 239 650 l 239 650 l 306 660 l 431 660 l 431 528 l 63 528 l 63 621 q 131 681 94 646 q 199 756 168 717 q 251 837 231 796 q 271 917 271 878 q 207 988 271 988 q 150 978 176 988 q 103 957 124 969 l 63 1072 q 150 1110 103 1100 q 238 1121 197 1121 q 368 1077 321 1121 q 415 950 415 1033 z "},"³":{"ha":490,"x_min":68,"x_max":433,"o":"m 200 644 q 270 665 250 644 q 290 719 290 686 q 269 770 290 751 q 192 789 247 789 l 138 789 l 138 842 l 221 954 l 274 993 l 204 985 l 75 985 l 75 1111 l 408 1111 l 408 1028 l 311 897 l 269 871 l 269 871 l 306 869 q 399 826 365 867 q 433 710 433 785 q 416 624 433 660 q 369 564 399 588 q 303 529 340 540 q 222 518 265 518 q 138 527 178 518 q 68 551 97 536 l 97 671 q 200 644 149 644 z "},"´":{"ha":390,"x_min":83,"x_max":307,"o":"m 142 1000 l 307 1000 l 307 958 l 176 786 l 83 786 l 142 1000 z "},"µ":{"ha":661,"x_min":56,"x_max":622,"o":"m 221 694 l 221 296 q 244 172 221 213 q 321 131 268 131 q 397 155 369 131 q 439 221 425 179 l 439 694 l 604 694 l 604 226 q 608 112 604 169 q 622 0 611 54 l 499 0 l 460 89 l 454 89 q 403 14 438 44 q 311 -17 368 -17 q 246 1 269 -17 q 203 47 222 19 l 197 47 l 221 -93 l 221 -278 l 56 -278 l 56 694 l 221 694 z "},"¶":{"ha":622,"x_min":29,"x_max":560,"o":"m 425 972 l 560 972 l 560 -181 l 425 -181 l 425 972 m 204 408 q 133 430 165 408 q 77 489 100 451 q 42 578 54 526 q 29 690 29 629 q 44 803 29 751 q 88 892 60 854 q 157 951 117 929 q 246 972 197 972 l 339 972 l 339 -181 l 204 -181 l 204 408 z "},"·":{"ha":294,"x_min":47,"x_max":247,"o":"m 47 438 q 74 515 47 489 q 146 542 101 542 q 221 515 194 542 q 247 438 247 489 q 220 360 247 388 q 146 332 193 332 q 74 360 100 332 q 47 438 47 388 z "},"¸":{"ha":424,"x_min":83,"x_max":340,"o":"m 265 0 l 238 -60 q 313 -90 285 -65 q 340 -164 340 -114 q 326 -219 340 -196 q 286 -259 311 -243 q 228 -283 261 -275 q 158 -292 194 -292 q 83 -283 121 -292 l 93 -217 q 170 -209 151 -222 q 189 -176 189 -196 q 92 -132 189 -137 l 160 0 l 265 0 z "},"¹":{"ha":490,"x_min":47,"x_max":440,"o":"m 88 660 l 196 660 l 196 893 l 208 957 l 172 913 l 108 869 l 47 965 l 229 1121 l 343 1121 l 343 660 l 440 660 l 440 528 l 88 528 l 88 660 z "},"º":{"ha":486,"x_min":35,"x_max":453,"o":"m 35 753 q 50 861 35 817 q 93 934 65 906 q 159 976 121 963 q 243 989 197 989 q 327 977 289 989 q 393 938 365 965 q 437 865 421 910 q 453 753 453 819 q 437 641 453 686 q 393 568 421 596 q 327 528 365 540 q 243 517 289 517 q 159 528 197 517 q 93 568 121 540 q 50 641 65 596 q 35 753 35 686 m 182 753 q 197 659 182 686 q 243 632 211 632 q 272 637 260 632 q 291 656 283 642 q 302 693 299 669 q 306 753 306 717 q 290 849 306 824 q 243 874 275 874 q 197 849 211 874 q 182 753 182 824 z "},"»":{"ha":563,"x_min":32,"x_max":532,"o":"m 306 369 l 132 69 l 38 129 l 135 317 l 186 371 l 135 419 l 32 603 l 125 665 l 306 369 m 532 372 l 350 53 l 244 121 l 347 314 l 403 371 l 347 421 l 238 608 l 342 679 l 532 372 z "},"¼":{"ha":1040,"x_min":44,"x_max":990,"o":"m 990 111 l 906 111 l 906 0 l 774 0 l 774 111 l 535 111 l 535 200 l 782 590 l 906 590 l 906 231 l 990 231 l 990 111 m 774 347 l 783 424 l 776 424 l 750 353 l 697 263 l 656 221 l 715 231 l 774 231 l 774 347 m 699 993 l 811 939 l 336 -19 l 221 38 l 699 993 m 193 756 l 204 819 l 168 774 l 107 731 l 44 828 l 226 982 l 339 982 l 339 389 l 193 389 l 193 756 z "},"½":{"ha":1069,"x_min":43,"x_max":1017,"o":"m 699 993 l 811 939 l 336 -19 l 221 38 l 699 993 m 1001 422 q 991 344 1001 381 q 964 274 981 307 q 925 213 947 242 q 879 157 903 183 l 825 122 l 825 122 l 892 132 l 1017 132 l 1017 0 l 649 0 l 649 93 q 717 153 681 118 q 785 228 754 189 q 837 309 817 268 q 857 389 857 350 q 793 460 857 460 q 736 451 763 460 q 689 429 710 442 l 649 544 q 736 583 689 572 q 824 593 783 593 q 954 549 907 593 q 1001 422 1001 506 m 192 756 l 203 819 l 167 774 l 106 731 l 43 828 l 225 982 l 338 982 l 338 389 l 192 389 l 192 756 z "},"¾":{"ha":1064,"x_min":53,"x_max":1014,"o":"m 724 993 l 836 939 l 361 -19 l 246 38 l 724 993 m 185 506 q 255 526 235 506 q 275 581 275 547 q 253 631 275 613 q 176 650 232 650 l 122 650 l 122 703 l 206 815 l 258 854 l 189 846 l 60 846 l 60 972 l 393 972 l 393 889 l 296 758 l 254 732 l 254 732 l 290 731 q 384 687 350 728 q 418 571 418 646 q 401 485 418 521 q 354 425 383 449 q 288 390 325 401 q 207 379 250 379 q 122 388 163 379 q 53 413 82 397 l 82 532 q 185 506 133 506 m 1014 111 l 929 111 l 929 0 l 797 0 l 797 111 l 558 111 l 558 200 l 806 590 l 929 590 l 929 231 l 1014 231 l 1014 111 m 797 347 l 807 424 l 800 424 l 774 353 l 721 263 l 679 221 l 739 231 l 797 231 l 797 347 z "},"¿":{"ha":531,"x_min":26,"x_max":507,"o":"m 376 403 q 371 291 382 339 q 340 206 360 243 q 296 140 321 169 q 249 83 271 111 q 212 23 226 54 q 197 -47 197 -8 q 220 -124 197 -96 q 296 -153 243 -153 q 372 -138 332 -153 q 442 -99 413 -124 l 507 -224 q 406 -278 464 -256 q 264 -300 347 -300 q 90 -240 153 -300 q 26 -69 26 -179 q 42 41 26 -4 q 81 120 57 86 q 131 182 104 154 q 181 240 158 210 q 220 309 204 271 q 236 403 236 347 l 376 403 m 399 601 q 372 524 399 550 q 300 497 344 497 q 225 524 251 497 q 199 601 199 550 q 226 679 199 651 q 300 707 253 707 q 372 679 346 707 q 399 601 399 651 z "},"À":{"ha":696,"x_min":-4,"x_max":699,"o":"m 456 219 l 226 219 l 169 0 l -4 0 l 278 979 l 415 979 l 699 0 l 515 0 l 456 219 m 264 364 l 425 364 l 369 590 l 347 743 l 342 743 l 318 589 l 264 364 m 464 1044 l 333 1044 l 153 1167 l 153 1208 l 350 1208 l 464 1044 z "},"Á":{"ha":696,"x_min":-4,"x_max":699,"o":"m 456 219 l 226 219 l 169 0 l -4 0 l 278 979 l 415 979 l 699 0 l 515 0 l 456 219 m 264 364 l 425 364 l 369 590 l 347 743 l 342 743 l 318 589 l 264 364 m 346 1208 l 544 1208 l 544 1167 l 361 1044 l 232 1044 l 346 1208 z "},"Â":{"ha":696,"x_min":-4,"x_max":699,"o":"m 456 219 l 226 219 l 169 0 l -4 0 l 278 979 l 415 979 l 699 0 l 515 0 l 456 219 m 264 364 l 425 364 l 369 590 l 347 743 l 342 743 l 318 589 l 264 364 m 290 1208 l 411 1208 l 556 1079 l 556 1025 l 438 1025 l 372 1082 l 349 1129 l 324 1083 l 254 1025 l 139 1025 l 139 1081 l 290 1208 z "},"Ã":{"ha":696,"x_min":-4,"x_max":699,"o":"m 456 219 l 226 219 l 169 0 l -4 0 l 278 979 l 415 979 l 699 0 l 515 0 l 456 219 m 264 364 l 425 364 l 369 590 l 347 743 l 342 743 l 318 589 l 264 364 m 114 1106 q 192 1176 154 1157 q 265 1194 229 1194 q 318 1187 292 1194 q 369 1171 344 1179 q 417 1155 394 1163 q 463 1147 440 1147 q 500 1155 482 1147 q 535 1182 518 1163 l 572 1094 q 503 1040 536 1054 q 439 1025 471 1025 q 387 1033 413 1025 q 337 1049 361 1040 q 289 1065 313 1057 q 242 1072 265 1072 q 196 1063 218 1072 q 150 1025 174 1053 l 114 1106 z "},"Ä":{"ha":696,"x_min":-4,"x_max":699,"o":"m 456 219 l 226 219 l 169 0 l -4 0 l 278 979 l 415 979 l 699 0 l 515 0 l 456 219 m 264 364 l 425 364 l 369 590 l 347 743 l 342 743 l 318 589 l 264 364 m 128 1108 q 149 1167 128 1144 q 224 1189 171 1189 q 294 1167 272 1189 q 315 1108 315 1144 q 294 1051 315 1072 q 224 1029 272 1029 q 149 1051 171 1029 q 128 1108 128 1072 m 381 1108 q 402 1167 381 1144 q 474 1189 424 1189 q 547 1167 525 1189 q 568 1108 568 1144 q 547 1051 568 1072 q 474 1029 525 1029 q 402 1051 424 1029 q 381 1108 381 1072 z "},"Å":{"ha":696,"x_min":-4,"x_max":699,"o":"m -4 0 l 272 960 q 211 1002 229 974 q 193 1071 193 1031 q 200 1119 193 1096 q 225 1159 207 1142 q 272 1186 243 1176 q 347 1196 301 1196 q 467 1163 432 1196 q 503 1071 503 1129 q 484 1003 503 1033 q 421 958 465 972 l 699 0 l 515 0 l 456 219 l 226 219 l 169 0 l -4 0 m 264 364 l 425 364 l 369 590 l 347 743 l 342 743 l 318 589 l 264 364 m 297 1071 q 347 1028 297 1028 q 388 1038 376 1028 q 399 1071 399 1049 q 387 1106 399 1094 q 347 1118 375 1118 q 297 1071 297 1118 z "},"Æ":{"ha":996,"x_min":-33,"x_max":951,"o":"m 453 725 l 417 590 l 326 385 l 460 385 l 460 725 l 453 725 m 460 240 l 260 240 l 150 0 l -33 0 l 453 972 l 946 972 l 946 811 l 635 811 l 635 572 l 917 572 l 917 411 l 635 411 l 635 161 l 951 161 l 951 0 l 460 0 l 460 240 z "},"Ç":{"ha":635,"x_min":40,"x_max":614,"o":"m 614 39 q 538 1 583 14 q 443 -17 492 -12 l 424 -60 q 499 -90 471 -65 q 526 -164 526 -114 q 512 -219 526 -196 q 472 -259 497 -243 q 414 -283 447 -275 q 344 -292 381 -292 q 269 -283 307 -292 l 279 -217 q 356 -209 338 -222 q 375 -176 375 -196 q 278 -132 375 -137 l 338 -15 q 219 25 274 -7 q 126 117 165 57 q 63 268 86 176 q 40 488 40 360 q 72 732 40 635 q 153 887 103 829 q 269 968 204 944 q 401 992 335 992 q 520 981 469 992 q 603 956 571 969 l 568 801 q 506 823 542 815 q 422 831 471 831 q 275 747 326 831 q 224 486 224 664 q 235 347 224 410 q 273 238 247 283 q 338 167 299 192 q 433 142 378 142 q 517 155 482 142 q 579 186 551 168 l 614 39 z "},"È":{"ha":597,"x_min":63,"x_max":554,"o":"m 63 972 l 549 972 l 549 811 l 238 811 l 238 572 l 519 572 l 519 411 l 238 411 l 238 161 l 554 161 l 554 0 l 63 0 l 63 972 m 413 1044 l 282 1044 l 101 1167 l 101 1208 l 299 1208 l 413 1044 z "},"É":{"ha":597,"x_min":63,"x_max":554,"o":"m 63 972 l 549 972 l 549 811 l 238 811 l 238 572 l 519 572 l 519 411 l 238 411 l 238 161 l 554 161 l 554 0 l 63 0 l 63 972 m 325 1208 l 524 1208 l 524 1167 l 340 1044 l 211 1044 l 325 1208 z "},"Ê":{"ha":597,"x_min":63,"x_max":554,"o":"m 63 972 l 549 972 l 549 811 l 238 811 l 238 572 l 519 572 l 519 411 l 238 411 l 238 161 l 554 161 l 554 0 l 63 0 l 63 972 m 244 1208 l 365 1208 l 510 1079 l 510 1025 l 392 1025 l 326 1082 l 303 1129 l 278 1083 l 208 1025 l 93 1025 l 93 1081 l 244 1208 z "},"Ë":{"ha":597,"x_min":63,"x_max":554,"o":"m 63 972 l 549 972 l 549 811 l 238 811 l 238 572 l 519 572 l 519 411 l 238 411 l 238 161 l 554 161 l 554 0 l 63 0 l 63 972 m 83 1108 q 105 1167 83 1144 q 179 1189 126 1189 q 249 1167 228 1189 q 271 1108 271 1144 q 249 1051 271 1072 q 179 1029 228 1029 q 105 1051 126 1029 q 83 1108 83 1072 m 336 1108 q 358 1167 336 1144 q 429 1189 379 1189 q 502 1167 481 1189 q 524 1108 524 1144 q 502 1051 524 1072 q 429 1029 481 1029 q 358 1051 379 1029 q 336 1108 336 1072 z "},"Ì":{"ha":331,"x_min":-29,"x_max":282,"o":"m 78 972 l 253 972 l 253 0 l 78 0 l 78 972 m 282 1044 l 151 1044 l -29 1167 l -29 1208 l 168 1208 l 282 1044 z "},"Í":{"ha":331,"x_min":51,"x_max":364,"o":"m 78 972 l 253 972 l 253 0 l 78 0 l 78 972 m 165 1208 l 364 1208 l 364 1167 l 181 1044 l 51 1044 l 165 1208 z "},"Î":{"ha":331,"x_min":-42,"x_max":375,"o":"m 78 972 l 253 972 l 253 0 l 78 0 l 78 972 m 110 1208 l 231 1208 l 375 1079 l 375 1025 l 257 1025 l 192 1082 l 168 1129 l 143 1083 l 74 1025 l -42 1025 l -42 1081 l 110 1208 z "},"Ï":{"ha":331,"x_min":-53,"x_max":388,"o":"m 78 972 l 253 972 l 253 0 l 78 0 l 78 972 m -53 1108 q -31 1167 -53 1144 q 43 1189 -10 1189 q 113 1167 92 1189 q 135 1108 135 1144 q 113 1051 135 1072 q 43 1029 92 1029 q -31 1051 -10 1029 q -53 1108 -53 1072 m 200 1108 q 222 1167 200 1144 q 293 1189 243 1189 q 366 1167 344 1189 q 388 1108 388 1144 q 366 1051 388 1072 q 293 1029 344 1029 q 222 1051 243 1029 q 200 1108 200 1072 z "},"Ð":{"ha":771,"x_min":-4,"x_max":729,"o":"m -4 557 l 90 557 l 90 972 q 147 978 115 976 q 210 983 178 981 q 274 985 243 985 q 328 986 304 986 q 520 951 443 986 q 644 851 597 915 q 710 696 690 786 q 729 494 729 606 q 710 301 729 393 q 644 138 692 208 q 517 26 597 68 q 314 -15 436 -15 q 265 -14 296 -15 q 201 -10 235 -12 q 138 -6 168 -8 q 90 -1 107 -4 l 90 447 l -4 447 l -4 557 m 265 557 l 415 557 l 415 447 l 265 447 l 265 151 q 280 149 269 150 q 302 148 290 149 q 324 147 314 147 q 339 146 335 146 q 442 175 401 146 q 505 253 482 204 q 537 365 528 301 q 546 497 546 428 q 538 621 546 561 q 509 726 531 681 q 448 798 488 771 q 346 825 408 825 q 301 824 324 825 q 265 821 278 824 l 265 557 z "},"Ñ":{"ha":750,"x_min":63,"x_max":688,"o":"m 276 478 l 213 649 l 206 649 l 228 481 l 228 0 l 63 0 l 63 979 l 197 979 l 476 490 l 536 322 l 544 322 l 522 488 l 522 972 l 688 972 l 688 -7 l 553 -7 l 276 478 m 144 1106 q 222 1176 185 1157 q 296 1194 260 1194 q 349 1187 322 1194 q 400 1171 375 1179 q 448 1155 425 1163 q 493 1147 471 1147 q 531 1155 513 1147 q 565 1182 549 1163 l 603 1094 q 534 1040 567 1054 q 469 1025 501 1025 q 417 1033 443 1025 q 367 1049 392 1040 q 319 1065 343 1057 q 272 1072 296 1072 q 226 1063 249 1072 q 181 1025 204 1053 l 144 1106 z "},"Ò":{"ha":768,"x_min":40,"x_max":728,"o":"m 40 486 q 125 863 40 733 q 383 992 210 992 q 539 956 474 992 q 646 855 604 921 q 708 695 688 789 q 728 486 728 601 q 641 110 728 239 q 383 -19 554 -19 q 227 16 292 -19 q 121 117 163 51 q 60 277 79 183 q 40 486 40 371 m 224 486 q 232 349 224 413 q 260 240 240 286 q 309 168 279 194 q 383 142 339 142 q 504 224 464 142 q 544 486 544 306 q 536 620 544 557 q 509 730 528 683 q 460 803 490 776 q 383 831 429 831 q 224 486 224 831 m 478 1044 l 347 1044 l 167 1167 l 167 1208 l 364 1208 l 478 1044 z "},"Ó":{"ha":768,"x_min":40,"x_max":728,"o":"m 40 486 q 125 863 40 733 q 383 992 210 992 q 539 956 474 992 q 646 855 604 921 q 708 695 688 789 q 728 486 728 601 q 641 110 728 239 q 383 -19 554 -19 q 227 16 292 -19 q 121 117 163 51 q 60 277 79 183 q 40 486 40 371 m 224 486 q 232 349 224 413 q 260 240 240 286 q 309 168 279 194 q 383 142 339 142 q 504 224 464 142 q 544 486 544 306 q 536 620 544 557 q 509 730 528 683 q 460 803 490 776 q 383 831 429 831 q 224 486 224 831 m 418 1208 l 617 1208 l 617 1167 l 433 1044 l 304 1044 l 418 1208 z "},"Ô":{"ha":768,"x_min":40,"x_max":728,"o":"m 40 486 q 125 863 40 733 q 383 992 210 992 q 539 956 474 992 q 646 855 604 921 q 708 695 688 789 q 728 486 728 601 q 641 110 728 239 q 383 -19 554 -19 q 227 16 292 -19 q 121 117 163 51 q 60 277 79 183 q 40 486 40 371 m 224 486 q 232 349 224 413 q 260 240 240 286 q 309 168 279 194 q 383 142 339 142 q 504 224 464 142 q 544 486 544 306 q 536 620 544 557 q 509 730 528 683 q 460 803 490 776 q 383 831 429 831 q 224 486 224 831 m 325 1208 l 446 1208 l 590 1079 l 590 1025 l 472 1025 l 407 1082 l 383 1129 l 358 1083 l 289 1025 l 174 1025 l 174 1081 l 325 1208 z "},"Õ":{"ha":768,"x_min":40,"x_max":728,"o":"m 40 486 q 125 863 40 733 q 383 992 210 992 q 539 956 474 992 q 646 855 604 921 q 708 695 688 789 q 728 486 728 601 q 641 110 728 239 q 383 -19 554 -19 q 227 16 292 -19 q 121 117 163 51 q 60 277 79 183 q 40 486 40 371 m 224 486 q 232 349 224 413 q 260 240 240 286 q 309 168 279 194 q 383 142 339 142 q 504 224 464 142 q 544 486 544 306 q 536 620 544 557 q 509 730 528 683 q 460 803 490 776 q 383 831 429 831 q 224 486 224 831 m 153 1106 q 231 1176 193 1157 q 304 1194 268 1194 q 357 1187 331 1194 q 408 1171 383 1179 q 456 1155 433 1163 q 501 1147 479 1147 q 539 1155 521 1147 q 574 1182 557 1163 l 611 1094 q 542 1040 575 1054 q 478 1025 510 1025 q 426 1033 451 1025 q 376 1049 400 1040 q 328 1065 351 1057 q 281 1072 304 1072 q 235 1063 257 1072 q 189 1025 213 1053 l 153 1106 z "},"Ö":{"ha":768,"x_min":40,"x_max":728,"o":"m 40 486 q 125 863 40 733 q 383 992 210 992 q 539 956 474 992 q 646 855 604 921 q 708 695 688 789 q 728 486 728 601 q 641 110 728 239 q 383 -19 554 -19 q 227 16 292 -19 q 121 117 163 51 q 60 277 79 183 q 40 486 40 371 m 224 486 q 232 349 224 413 q 260 240 240 286 q 309 168 279 194 q 383 142 339 142 q 504 224 464 142 q 544 486 544 306 q 536 620 544 557 q 509 730 528 683 q 460 803 490 776 q 383 831 429 831 q 224 486 224 831 m 164 1108 q 185 1167 164 1144 q 260 1189 207 1189 q 330 1167 308 1189 q 351 1108 351 1144 q 330 1051 351 1072 q 260 1029 308 1029 q 185 1051 207 1029 q 164 1108 164 1072 m 417 1108 q 438 1167 417 1144 q 510 1189 460 1189 q 583 1167 561 1189 q 604 1108 604 1144 q 583 1051 604 1072 q 510 1029 561 1029 q 438 1051 460 1029 q 417 1108 417 1072 z "},"×":{"ha":617,"x_min":47,"x_max":569,"o":"m 156 751 l 310 579 l 464 751 l 569 650 l 410 471 l 569 289 l 464 188 l 310 360 l 154 186 l 47 286 l 211 471 l 50 650 l 156 751 z "},"Ø":{"ha":768,"x_min":40,"x_max":728,"o":"m 122 115 q 60 275 79 182 q 40 486 40 368 q 125 863 40 733 q 383 992 210 992 q 557 946 483 992 l 582 993 l 692 936 l 647 851 q 708 693 689 785 q 728 486 728 601 q 641 110 728 239 q 383 -19 554 -19 q 292 -8 333 -19 q 215 22 250 3 l 193 -19 l 83 40 l 122 115 m 475 788 q 383 831 439 831 q 224 486 224 831 q 226 404 224 443 q 235 329 229 365 l 475 788 m 296 179 q 383 142 331 142 q 504 224 464 142 q 544 486 544 306 q 542 563 544 526 q 533 635 539 600 l 296 179 z "},"Ù":{"ha":715,"x_min":58,"x_max":657,"o":"m 492 972 l 657 972 l 657 342 q 580 68 657 153 q 367 -17 503 -17 q 133 66 207 -17 q 58 318 58 149 l 58 972 l 233 972 l 233 349 q 264 190 233 235 q 365 144 294 144 q 463 192 433 144 q 492 349 492 240 l 492 972 m 453 1044 l 322 1044 l 142 1167 l 142 1208 l 339 1208 l 453 1044 z "},"Ú":{"ha":715,"x_min":58,"x_max":657,"o":"m 492 972 l 657 972 l 657 342 q 580 68 657 153 q 367 -17 503 -17 q 133 66 207 -17 q 58 318 58 149 l 58 972 l 233 972 l 233 349 q 264 190 233 235 q 365 144 294 144 q 463 192 433 144 q 492 349 492 240 l 492 972 m 411 1208 l 610 1208 l 610 1167 l 426 1044 l 297 1044 l 411 1208 z "},"Û":{"ha":715,"x_min":58,"x_max":657,"o":"m 492 972 l 657 972 l 657 342 q 580 68 657 153 q 367 -17 503 -17 q 133 66 207 -17 q 58 318 58 149 l 58 972 l 233 972 l 233 349 q 264 190 233 235 q 365 144 294 144 q 463 192 433 144 q 492 349 492 240 l 492 972 m 306 1208 l 426 1208 l 571 1079 l 571 1025 l 453 1025 l 388 1082 l 364 1129 l 339 1083 l 269 1025 l 154 1025 l 154 1081 l 306 1208 z "},"Ü":{"ha":715,"x_min":58,"x_max":657,"o":"m 492 972 l 657 972 l 657 342 q 580 68 657 153 q 367 -17 503 -17 q 133 66 207 -17 q 58 318 58 149 l 58 972 l 233 972 l 233 349 q 264 190 233 235 q 365 144 294 144 q 463 192 433 144 q 492 349 492 240 l 492 972 m 140 1108 q 162 1167 140 1144 q 236 1189 183 1189 q 306 1167 285 1189 q 328 1108 328 1144 q 306 1051 328 1072 q 236 1029 285 1029 q 162 1051 183 1029 q 140 1108 140 1072 m 393 1108 q 415 1167 393 1144 q 486 1189 436 1189 q 559 1167 538 1189 q 581 1108 581 1144 q 559 1051 581 1072 q 486 1029 538 1029 q 415 1051 436 1029 q 393 1108 393 1072 z "},"Ý":{"ha":688,"x_min":-6,"x_max":693,"o":"m 256 361 l -6 972 l 203 972 l 338 604 l 351 499 l 358 499 l 374 607 l 506 972 l 693 972 l 431 363 l 431 0 l 256 0 l 256 361 m 368 1208 l 567 1208 l 567 1167 l 383 1044 l 254 1044 l 368 1208 z "},"Þ":{"ha":663,"x_min":63,"x_max":638,"o":"m 63 972 l 238 972 l 238 871 q 292 872 264 872 q 417 860 356 872 q 528 814 479 849 q 607 716 576 779 q 638 551 638 653 q 612 397 638 461 q 543 293 586 333 q 444 234 500 253 q 328 215 388 215 l 310 215 q 283 216 297 215 q 256 218 269 217 q 238 221 243 219 l 238 0 l 63 0 l 63 972 m 308 717 q 238 710 265 717 l 238 379 q 269 374 246 376 q 300 372 292 372 q 358 380 331 372 q 407 408 386 388 q 440 464 428 429 q 453 553 453 499 q 441 631 453 600 q 410 681 429 663 q 364 708 390 700 q 308 717 338 717 z "},"ß":{"ha":743,"x_min":13,"x_max":715,"o":"m 88 547 l 13 547 l 13 694 l 88 694 l 88 710 q 107 838 88 785 q 161 922 126 890 q 243 969 196 954 q 347 983 290 983 q 456 970 406 983 q 542 930 506 957 q 600 863 579 903 q 621 771 621 824 q 600 690 621 722 q 553 631 579 657 q 507 581 528 604 q 486 528 486 557 q 503 483 486 501 q 545 449 519 465 q 601 414 571 432 q 656 369 631 396 q 699 306 682 343 q 715 215 715 269 q 701 127 715 169 q 659 53 688 85 q 588 1 631 21 q 489 -18 546 -18 q 388 -5 436 -18 q 306 29 339 8 l 349 160 q 403 134 376 144 q 469 124 431 124 q 528 149 506 124 q 550 210 550 174 q 533 263 550 242 q 491 301 517 283 q 435 337 465 319 q 380 377 406 354 q 338 433 354 400 q 321 515 321 467 q 342 597 321 565 q 388 654 363 629 q 433 702 413 679 q 454 756 454 725 q 424 815 454 792 q 357 838 393 838 q 280 806 307 838 q 253 688 253 775 l 253 0 l 88 0 l 88 547 z "},"à":{"ha":574,"x_min":24,"x_max":531,"o":"m 61 653 q 165 693 103 678 q 307 708 228 708 q 472 647 425 708 q 518 474 518 586 q 515 345 518 408 q 510 222 511 282 q 512 105 508 161 q 531 -1 515 49 l 396 -1 l 369 83 l 364 83 q 301 17 342 43 q 200 -10 261 -10 q 71 45 118 -10 q 24 192 24 100 q 113 369 24 317 q 353 414 201 422 q 342 531 360 494 q 268 567 325 567 q 182 557 226 567 q 103 529 138 547 l 61 653 m 260 132 q 321 151 297 132 q 356 192 344 169 l 356 307 q 294 308 324 311 q 243 296 265 306 q 208 267 221 286 q 194 219 194 249 q 212 154 194 176 q 260 132 229 132 m 360 786 l 268 786 l 124 958 l 124 1000 l 292 1000 l 360 786 z "},"á":{"ha":574,"x_min":24,"x_max":531,"o":"m 61 653 q 165 693 103 678 q 307 708 228 708 q 472 647 425 708 q 518 474 518 586 q 515 345 518 408 q 510 222 511 282 q 512 105 508 161 q 531 -1 515 49 l 396 -1 l 369 83 l 364 83 q 301 17 342 43 q 200 -10 261 -10 q 71 45 118 -10 q 24 192 24 100 q 113 369 24 317 q 353 414 201 422 q 342 531 360 494 q 268 567 325 567 q 182 557 226 567 q 103 529 138 547 l 61 653 m 260 132 q 321 151 297 132 q 356 192 344 169 l 356 307 q 294 308 324 311 q 243 296 265 306 q 208 267 221 286 q 194 219 194 249 q 212 154 194 176 q 260 132 229 132 m 272 1000 l 438 1000 l 438 958 l 307 786 l 214 786 l 272 1000 z "},"â":{"ha":574,"x_min":24,"x_max":531,"o":"m 61 653 q 165 693 103 678 q 307 708 228 708 q 472 647 425 708 q 518 474 518 586 q 515 345 518 408 q 510 222 511 282 q 512 105 508 161 q 531 -1 515 49 l 396 -1 l 369 83 l 364 83 q 301 17 342 43 q 200 -10 261 -10 q 71 45 118 -10 q 24 192 24 100 q 113 369 24 317 q 353 414 201 422 q 342 531 360 494 q 268 567 325 567 q 182 557 226 567 q 103 529 138 547 l 61 653 m 260 132 q 321 151 297 132 q 356 192 344 169 l 356 307 q 294 308 324 311 q 243 296 265 306 q 208 267 221 286 q 194 219 194 249 q 212 154 194 176 q 260 132 229 132 m 242 1017 l 360 1017 l 486 764 l 357 764 l 313 856 l 294 924 l 276 856 l 225 764 l 101 764 l 242 1017 z "},"ã":{"ha":574,"x_min":24,"x_max":531,"o":"m 61 653 q 165 693 103 678 q 307 708 228 708 q 472 647 425 708 q 518 474 518 586 q 515 345 518 408 q 510 222 511 282 q 512 105 508 161 q 531 -1 515 49 l 396 -1 l 369 83 l 364 83 q 301 17 342 43 q 200 -10 261 -10 q 71 45 118 -10 q 24 192 24 100 q 113 369 24 317 q 353 414 201 422 q 342 531 360 494 q 268 567 325 567 q 182 557 226 567 q 103 529 138 547 l 61 653 m 260 132 q 321 151 297 132 q 356 192 344 169 l 356 307 q 294 308 324 311 q 243 296 265 306 q 208 267 221 286 q 194 219 194 249 q 212 154 194 176 q 260 132 229 132 m 83 911 q 158 981 124 963 q 222 1000 193 1000 q 269 991 247 1000 q 311 970 290 982 q 353 949 332 958 q 394 940 374 940 q 426 947 410 940 q 463 972 443 954 l 493 888 q 423 826 456 843 q 363 810 390 810 q 316 818 338 810 q 274 837 294 826 q 232 856 253 847 q 190 865 211 865 q 154 858 172 865 q 117 831 136 850 l 83 911 z "},"ä":{"ha":574,"x_min":24,"x_max":531,"o":"m 61 653 q 165 693 103 678 q 307 708 228 708 q 472 647 425 708 q 518 474 518 586 q 515 345 518 408 q 510 222 511 282 q 512 105 508 161 q 531 -1 515 49 l 396 -1 l 369 83 l 364 83 q 301 17 342 43 q 200 -10 261 -10 q 71 45 118 -10 q 24 192 24 100 q 113 369 24 317 q 353 414 201 422 q 342 531 360 494 q 268 567 325 567 q 182 557 226 567 q 103 529 138 547 l 61 653 m 260 132 q 321 151 297 132 q 356 192 344 169 l 356 307 q 294 308 324 311 q 243 296 265 306 q 208 267 221 286 q 194 219 194 249 q 212 154 194 176 q 260 132 229 132 m 78 904 q 102 974 78 949 q 167 999 126 999 q 229 974 206 999 q 253 904 253 949 q 229 838 253 863 q 167 814 206 814 q 102 838 126 814 q 78 904 78 863 m 336 904 q 360 974 336 949 q 424 999 383 999 q 488 974 464 999 q 511 904 511 949 q 488 838 511 863 q 424 814 464 814 q 360 838 383 814 q 336 904 336 863 z "},"å":{"ha":574,"x_min":24,"x_max":531,"o":"m 61 653 q 165 693 103 678 q 307 708 228 708 q 472 647 425 708 q 518 474 518 586 q 515 345 518 408 q 510 222 511 282 q 512 105 508 161 q 531 -1 515 49 l 396 -1 l 369 83 l 364 83 q 301 17 342 43 q 200 -10 261 -10 q 71 45 118 -10 q 24 192 24 100 q 113 369 24 317 q 353 414 201 422 q 342 531 360 494 q 268 567 325 567 q 182 557 226 567 q 103 529 138 547 l 61 653 m 260 132 q 321 151 297 132 q 356 192 344 169 l 356 307 q 294 308 324 311 q 243 296 265 306 q 208 267 221 286 q 194 219 194 249 q 212 154 194 176 q 260 132 229 132 m 158 899 q 192 996 158 961 q 293 1031 226 1031 q 393 998 357 1031 q 429 899 429 965 q 394 805 429 840 q 293 769 358 769 q 193 804 228 769 q 158 899 158 839 m 251 899 q 263 863 251 875 q 293 851 275 851 q 336 899 336 851 q 324 937 336 925 q 293 949 313 949 q 263 938 275 949 q 251 899 251 926 z "},"æ":{"ha":907,"x_min":24,"x_max":863,"o":"m 357 310 q 296 310 325 313 q 244 298 267 308 q 208 269 221 288 q 194 219 194 250 q 211 158 194 181 q 260 136 228 136 q 322 155 299 136 q 357 199 346 174 l 357 310 m 399 94 q 324 18 369 47 q 203 -11 279 -11 q 72 46 119 -11 q 24 193 24 103 q 47 301 24 257 q 112 372 69 344 q 215 410 154 399 q 351 417 276 421 q 353 440 353 429 q 353 461 353 450 q 335 540 353 515 q 269 564 317 564 q 182 551 226 564 q 103 519 138 539 l 60 644 q 168 691 104 674 q 301 708 232 708 q 397 690 360 708 q 457 633 433 672 q 529 694 485 674 q 629 714 574 714 q 716 701 674 714 q 791 656 758 688 q 843 571 824 624 q 863 439 863 518 q 859 374 863 408 q 849 300 856 339 l 514 300 q 549 166 517 208 q 653 124 581 124 q 733 137 696 124 q 789 165 769 150 l 843 50 q 750 2 808 22 q 621 -18 692 -18 q 406 94 469 -18 l 399 94 m 708 410 q 692 528 713 485 q 625 572 671 572 q 547 531 572 572 q 518 410 522 489 l 708 410 z "},"ç":{"ha":486,"x_min":35,"x_max":469,"o":"m 469 38 q 413 5 444 17 q 344 -14 381 -7 l 324 -60 q 399 -90 371 -65 q 426 -164 426 -114 q 412 -219 426 -196 q 372 -259 397 -243 q 314 -283 347 -275 q 244 -292 281 -292 q 169 -283 207 -292 l 179 -217 q 256 -209 238 -222 q 275 -176 275 -196 q 178 -132 275 -137 l 238 -14 q 81 100 126 4 q 35 347 35 196 q 100 621 35 529 q 292 713 165 713 q 394 701 354 713 q 464 674 433 690 l 425 536 q 377 555 400 549 q 322 561 354 561 q 235 510 264 561 q 206 347 206 460 q 235 193 206 253 q 331 133 265 133 q 390 142 365 133 q 435 165 414 151 l 469 38 z "},"è":{"ha":594,"x_min":35,"x_max":549,"o":"m 529 51 q 435 1 494 21 q 310 -18 375 -18 q 185 7 238 -18 q 100 79 133 32 q 51 194 67 126 q 35 347 35 261 q 109 624 35 535 q 315 714 183 714 q 401 701 360 714 q 476 656 443 688 q 528 573 508 625 q 549 442 549 521 q 545 376 549 411 q 535 301 542 342 l 197 301 q 233 169 200 215 q 340 124 267 124 q 422 138 385 124 q 478 167 458 151 l 529 51 m 313 572 q 233 530 260 572 q 203 411 207 488 l 394 411 q 378 531 399 490 q 313 572 357 572 m 376 786 l 285 786 l 140 958 l 140 1000 l 308 1000 l 376 786 z "},"é":{"ha":594,"x_min":35,"x_max":549,"o":"m 529 51 q 435 1 494 21 q 310 -18 375 -18 q 185 7 238 -18 q 100 79 133 32 q 51 194 67 126 q 35 347 35 261 q 109 624 35 535 q 315 714 183 714 q 401 701 360 714 q 476 656 443 688 q 528 573 508 625 q 549 442 549 521 q 545 376 549 411 q 535 301 542 342 l 197 301 q 233 169 200 215 q 340 124 267 124 q 422 138 385 124 q 478 167 458 151 l 529 51 m 313 572 q 233 530 260 572 q 203 411 207 488 l 394 411 q 378 531 399 490 q 313 572 357 572 m 310 1000 l 475 1000 l 475 958 l 344 786 l 251 786 l 310 1000 z "},"ê":{"ha":594,"x_min":35,"x_max":549,"o":"m 529 51 q 435 1 494 21 q 310 -18 375 -18 q 185 7 238 -18 q 100 79 133 32 q 51 194 67 126 q 35 347 35 261 q 109 624 35 535 q 315 714 183 714 q 401 701 360 714 q 476 656 443 688 q 528 573 508 625 q 549 442 549 521 q 545 376 549 411 q 535 301 542 342 l 197 301 q 233 169 200 215 q 340 124 267 124 q 422 138 385 124 q 478 167 458 151 l 529 51 m 313 572 q 233 530 260 572 q 203 411 207 488 l 394 411 q 378 531 399 490 q 313 572 357 572 m 249 1017 l 367 1017 l 493 764 l 364 764 l 319 856 l 301 924 l 283 856 l 232 764 l 108 764 l 249 1017 z "},"ë":{"ha":594,"x_min":35,"x_max":549,"o":"m 529 51 q 435 1 494 21 q 310 -18 375 -18 q 185 7 238 -18 q 100 79 133 32 q 51 194 67 126 q 35 347 35 261 q 109 624 35 535 q 315 714 183 714 q 401 701 360 714 q 476 656 443 688 q 528 573 508 625 q 549 442 549 521 q 545 376 549 411 q 535 301 542 342 l 197 301 q 233 169 200 215 q 340 124 267 124 q 422 138 385 124 q 478 167 458 151 l 529 51 m 313 572 q 233 530 260 572 q 203 411 207 488 l 394 411 q 378 531 399 490 q 313 572 357 572 m 90 904 q 115 974 90 949 q 179 999 139 999 q 242 974 218 999 q 265 904 265 949 q 242 838 265 863 q 179 814 218 814 q 115 838 139 814 q 90 904 90 863 m 349 904 q 372 974 349 949 q 436 999 396 999 q 500 974 476 999 q 524 904 524 949 q 500 838 524 863 q 436 814 476 814 q 372 838 396 814 q 349 904 349 863 z "},"ì":{"ha":313,"x_min":-7,"x_max":239,"o":"m 74 694 l 239 694 l 239 0 l 74 0 l 74 694 m 229 786 l 138 786 l -7 958 l -7 1000 l 161 1000 l 229 786 z "},"í":{"ha":313,"x_min":74,"x_max":306,"o":"m 74 694 l 239 694 l 239 0 l 74 0 l 74 694 m 140 1000 l 306 1000 l 306 958 l 175 786 l 82 786 l 140 1000 z "},"î":{"ha":313,"x_min":-37,"x_max":347,"o":"m 74 694 l 239 694 l 239 0 l 74 0 l 74 694 m 103 1017 l 221 1017 l 347 764 l 218 764 l 174 856 l 156 924 l 138 856 l 86 764 l -37 764 l 103 1017 z "},"ï":{"ha":313,"x_min":-60,"x_max":374,"o":"m 74 694 l 239 694 l 239 0 l 74 0 l 74 694 m -60 904 q -35 974 -60 949 q 29 999 -11 999 q 92 974 68 999 q 115 904 115 949 q 92 838 115 863 q 29 814 68 814 q -35 838 -11 814 q -60 904 -60 863 m 199 904 q 222 974 199 949 q 286 999 246 999 q 350 974 326 999 q 374 904 374 949 q 350 838 374 863 q 286 814 326 814 q 222 838 246 814 q 199 904 199 863 z "},"ð":{"ha":636,"x_min":38,"x_max":599,"o":"m 197 339 q 231 177 197 226 q 321 128 265 128 q 369 142 347 128 q 406 187 390 156 q 431 267 422 218 q 440 389 440 317 q 440 413 440 397 q 438 443 439 428 q 436 474 438 458 q 433 497 435 489 q 384 534 415 522 q 321 546 353 546 q 228 492 260 546 q 197 339 197 438 m 207 806 l 274 857 q 188 897 232 882 l 254 992 q 319 965 283 982 q 375 935 347 953 l 440 985 l 496 915 l 444 875 q 469 847 457 863 q 535 746 507 806 q 581 608 564 686 q 599 428 599 529 q 578 224 599 308 q 521 85 558 139 q 430 6 483 31 q 310 -19 376 -19 q 106 74 175 -19 q 38 340 38 168 q 57 490 38 425 q 111 601 76 556 q 194 669 146 646 q 299 693 242 693 q 374 681 339 693 q 432 642 410 668 q 344 800 407 739 l 264 738 l 207 806 z "},"ñ":{"ha":624,"x_min":60,"x_max":569,"o":"m 404 0 l 404 422 q 386 529 404 499 q 325 560 368 560 q 263 538 289 560 q 225 482 236 515 l 225 0 l 60 0 l 60 694 l 192 694 l 211 614 l 215 614 q 283 683 240 654 q 396 711 326 711 q 470 699 438 711 q 525 658 503 686 q 558 581 547 629 q 569 463 569 533 l 569 0 l 404 0 m 107 911 q 182 981 147 963 q 246 1000 217 1000 q 292 991 271 1000 q 335 970 314 982 q 376 949 356 958 q 418 940 397 940 q 450 947 433 940 q 486 972 467 954 l 517 888 q 447 826 479 843 q 386 810 414 810 q 340 818 361 810 q 297 837 318 826 q 256 856 276 847 q 214 865 235 865 q 178 858 196 865 q 140 831 160 850 l 107 911 z "},"ò":{"ha":618,"x_min":35,"x_max":583,"o":"m 35 347 q 107 622 35 532 q 308 713 179 713 q 515 621 447 713 q 583 347 583 529 q 511 72 583 161 q 308 -18 439 -18 q 35 347 35 -18 m 206 347 q 229 186 206 243 q 308 129 253 129 q 387 178 361 129 q 413 347 413 228 q 389 510 413 454 q 308 565 365 565 q 233 516 260 565 q 206 347 206 467 m 376 786 l 285 786 l 140 958 l 140 1000 l 308 1000 l 376 786 z "},"ó":{"ha":618,"x_min":35,"x_max":583,"o":"m 35 347 q 107 622 35 532 q 308 713 179 713 q 515 621 447 713 q 583 347 583 529 q 511 72 583 161 q 308 -18 439 -18 q 35 347 35 -18 m 206 347 q 229 186 206 243 q 308 129 253 129 q 387 178 361 129 q 413 347 413 228 q 389 510 413 454 q 308 565 365 565 q 233 516 260 565 q 206 347 206 467 m 311 1000 l 476 1000 l 476 958 l 346 786 l 253 786 l 311 1000 z "},"ô":{"ha":618,"x_min":35,"x_max":583,"o":"m 35 347 q 107 622 35 532 q 308 713 179 713 q 515 621 447 713 q 583 347 583 529 q 511 72 583 161 q 308 -18 439 -18 q 35 347 35 -18 m 206 347 q 229 186 206 243 q 308 129 253 129 q 387 178 361 129 q 413 347 413 228 q 389 510 413 454 q 308 565 365 565 q 233 516 260 565 q 206 347 206 467 m 258 1017 l 376 1017 l 503 764 l 374 764 l 329 856 l 311 924 l 293 856 l 242 764 l 118 764 l 258 1017 z "},"õ":{"ha":618,"x_min":35,"x_max":583,"o":"m 35 347 q 107 622 35 532 q 308 713 179 713 q 515 621 447 713 q 583 347 583 529 q 511 72 583 161 q 308 -18 439 -18 q 35 347 35 -18 m 206 347 q 229 186 206 243 q 308 129 253 129 q 387 178 361 129 q 413 347 413 228 q 389 510 413 454 q 308 565 365 565 q 233 516 260 565 q 206 347 206 467 m 101 911 q 176 981 142 963 q 240 1000 211 1000 q 287 991 265 1000 q 329 970 308 982 q 371 949 350 958 q 413 940 392 940 q 444 947 428 940 q 481 972 461 954 l 511 888 q 441 826 474 843 q 381 810 408 810 q 334 818 356 810 q 292 837 313 826 q 250 856 271 847 q 208 865 229 865 q 172 858 190 865 q 135 831 154 850 l 101 911 z "},"ö":{"ha":618,"x_min":35,"x_max":583,"o":"m 35 347 q 107 622 35 532 q 308 713 179 713 q 515 621 447 713 q 583 347 583 529 q 511 72 583 161 q 308 -18 439 -18 q 35 347 35 -18 m 206 347 q 229 186 206 243 q 308 129 253 129 q 387 178 361 129 q 413 347 413 228 q 389 510 413 454 q 308 565 365 565 q 233 516 260 565 q 206 347 206 467 m 92 904 q 116 974 92 949 q 181 999 140 999 q 243 974 219 999 q 267 904 267 949 q 243 838 267 863 q 181 814 219 814 q 116 838 140 814 q 92 904 92 863 m 350 904 q 374 974 350 949 q 438 999 397 999 q 501 974 478 999 q 525 904 525 949 q 501 838 525 863 q 438 814 478 814 q 374 838 397 814 q 350 904 350 863 z "},"÷":{"ha":617,"x_min":53,"x_max":564,"o":"m 53 546 l 564 546 l 564 399 l 53 399 l 53 546 m 210 219 q 237 297 210 271 q 308 324 264 324 q 383 297 357 324 q 410 219 410 271 q 383 142 410 169 q 308 114 356 114 q 236 142 263 114 q 210 219 210 169 m 210 726 q 237 804 210 778 q 308 831 264 831 q 383 804 357 831 q 410 726 410 778 q 383 649 410 676 q 308 621 356 621 q 236 649 263 621 q 210 726 210 676 z "},"ø":{"ha":622,"x_min":39,"x_max":588,"o":"m 86 108 q 39 347 39 197 q 111 624 39 533 q 314 714 183 714 q 435 689 382 714 l 460 731 l 569 663 l 532 599 q 588 347 588 508 q 516 71 588 161 q 314 -19 444 -19 q 243 -12 275 -19 q 183 10 211 -4 l 157 -33 l 44 38 l 86 108 m 249 158 q 314 128 274 128 q 393 176 367 128 q 419 347 419 225 q 418 397 419 374 q 414 440 417 419 l 249 158 m 374 542 q 314 567 350 567 q 235 517 263 567 q 207 347 207 467 q 211 264 207 301 l 374 542 z "},"ù":{"ha":619,"x_min":54,"x_max":578,"o":"m 219 694 l 219 279 q 235 165 219 197 q 290 133 250 133 q 356 162 329 133 q 393 231 382 190 l 393 694 l 558 694 l 558 211 q 563 99 558 154 q 578 0 567 44 l 453 0 l 424 94 l 419 94 q 348 14 393 46 q 236 -18 303 -18 q 160 -6 193 -18 q 103 35 126 6 q 67 115 79 64 q 54 243 54 165 l 54 694 l 219 694 m 368 786 l 276 786 l 132 958 l 132 1000 l 300 1000 l 368 786 z "},"ú":{"ha":619,"x_min":54,"x_max":578,"o":"m 219 694 l 219 279 q 235 165 219 197 q 290 133 250 133 q 356 162 329 133 q 393 231 382 190 l 393 694 l 558 694 l 558 211 q 563 99 558 154 q 578 0 567 44 l 453 0 l 424 94 l 419 94 q 348 14 393 46 q 236 -18 303 -18 q 160 -6 193 -18 q 103 35 126 6 q 67 115 79 64 q 54 243 54 165 l 54 694 l 219 694 m 294 1000 l 460 1000 l 460 958 l 329 786 l 236 786 l 294 1000 z "},"û":{"ha":619,"x_min":54,"x_max":578,"o":"m 219 694 l 219 279 q 235 165 219 197 q 290 133 250 133 q 356 162 329 133 q 393 231 382 190 l 393 694 l 558 694 l 558 211 q 563 99 558 154 q 578 0 567 44 l 453 0 l 424 94 l 419 94 q 348 14 393 46 q 236 -18 303 -18 q 160 -6 193 -18 q 103 35 126 6 q 67 115 79 64 q 54 243 54 165 l 54 694 l 219 694 m 256 1017 l 374 1017 l 500 764 l 371 764 l 326 856 l 308 924 l 290 856 l 239 764 l 115 764 l 256 1017 z "},"ü":{"ha":619,"x_min":54,"x_max":578,"o":"m 219 694 l 219 279 q 235 165 219 197 q 290 133 250 133 q 356 162 329 133 q 393 231 382 190 l 393 694 l 558 694 l 558 211 q 563 99 558 154 q 578 0 567 44 l 453 0 l 424 94 l 419 94 q 348 14 393 46 q 236 -18 303 -18 q 160 -6 193 -18 q 103 35 126 6 q 67 115 79 64 q 54 243 54 165 l 54 694 l 219 694 m 88 904 q 112 974 88 949 q 176 999 136 999 q 239 974 215 999 q 263 904 263 949 q 239 838 263 863 q 176 814 215 814 q 112 838 136 814 q 88 904 88 863 m 346 904 q 369 974 346 949 q 433 999 393 999 q 497 974 474 999 q 521 904 521 949 q 497 838 521 863 q 433 814 474 814 q 369 838 393 814 q 346 904 346 863 z "},"ý":{"ha":556,"x_min":-14,"x_max":569,"o":"m 282 304 l 300 196 l 307 196 l 319 306 l 400 694 l 569 694 l 396 68 q 351 -79 372 -14 q 307 -190 331 -144 q 253 -260 283 -236 q 182 -285 224 -285 q 126 -280 153 -285 q 79 -264 99 -275 l 107 -122 q 144 -128 125 -129 q 178 -115 163 -128 q 207 -74 194 -101 q 228 0 219 -46 l -14 694 l 185 694 l 282 304 m 285 1000 l 450 1000 l 450 958 l 319 786 l 226 786 l 285 1000 z "},"þ":{"ha":619,"x_min":60,"x_max":585,"o":"m 60 972 l 225 972 l 225 643 l 229 643 q 287 694 253 675 q 374 714 321 714 q 532 631 479 714 q 585 365 585 549 q 568 205 585 276 q 519 83 551 133 q 438 7 486 33 q 325 -19 389 -19 q 268 -14 292 -19 q 225 3 244 -8 l 225 -278 l 60 -278 l 60 972 m 319 567 q 260 546 283 567 q 225 488 238 525 l 225 154 q 256 135 239 142 q 303 128 274 128 q 386 183 358 128 q 414 369 414 238 q 392 517 414 467 q 319 567 371 567 z "},"ÿ":{"ha":556,"x_min":-14,"x_max":569,"o":"m 282 304 l 300 196 l 307 196 l 319 306 l 400 694 l 569 694 l 396 68 q 351 -79 372 -14 q 307 -190 331 -144 q 253 -260 283 -236 q 182 -285 224 -285 q 126 -280 153 -285 q 79 -264 99 -275 l 107 -122 q 144 -128 125 -129 q 178 -115 163 -128 q 207 -74 194 -101 q 228 0 219 -46 l -14 694 l 185 694 l 282 304 m 67 904 q 91 974 67 949 q 156 999 115 999 q 218 974 194 999 q 242 904 242 949 q 218 838 242 863 q 156 814 194 814 q 91 838 115 814 q 67 904 67 863 m 325 904 q 349 974 325 949 q 413 999 372 999 q 476 974 453 999 q 500 904 500 949 q 476 838 500 863 q 413 814 453 814 q 349 838 372 814 q 325 904 325 863 z "},"Ā":{"ha":696,"x_min":-4,"x_max":699,"o":"m 456 219 l 226 219 l 169 0 l -4 0 l 278 979 l 415 979 l 699 0 l 515 0 l 456 219 m 264 364 l 425 364 l 369 590 l 347 743 l 342 743 l 318 589 l 264 364 m 146 1189 l 547 1189 l 547 1065 l 146 1065 l 146 1189 z "},"ā":{"ha":574,"x_min":24,"x_max":531,"o":"m 61 653 q 165 693 103 678 q 307 708 228 708 q 472 647 425 708 q 518 474 518 586 q 515 345 518 408 q 510 222 511 282 q 512 105 508 161 q 531 -1 515 49 l 396 -1 l 369 83 l 364 83 q 301 17 342 43 q 200 -10 261 -10 q 71 45 118 -10 q 24 192 24 100 q 113 369 24 317 q 353 414 201 422 q 342 531 360 494 q 268 567 325 567 q 182 557 226 567 q 103 529 138 547 l 61 653 m 260 132 q 321 151 297 132 q 356 192 344 169 l 356 307 q 294 308 324 311 q 243 296 265 306 q 208 267 221 286 q 194 219 194 249 q 212 154 194 176 q 260 132 229 132 m 100 914 l 478 914 l 478 788 l 100 788 l 100 914 z "},"Ă":{"ha":696,"x_min":-4,"x_max":699,"o":"m 456 219 l 226 219 l 169 0 l -4 0 l 278 979 l 415 979 l 699 0 l 515 0 l 456 219 m 264 364 l 425 364 l 369 590 l 347 743 l 342 743 l 318 589 l 264 364 m 188 1215 q 256 1159 211 1179 q 353 1139 300 1139 q 448 1160 408 1139 q 511 1215 488 1181 l 572 1172 q 533 1101 557 1131 q 480 1051 510 1071 q 417 1023 450 1032 q 351 1014 385 1014 q 288 1022 321 1014 q 224 1049 256 1031 q 167 1096 193 1067 q 124 1167 140 1125 l 188 1215 z "},"ă":{"ha":574,"x_min":24,"x_max":531,"o":"m 61 653 q 165 693 103 678 q 307 708 228 708 q 472 647 425 708 q 518 474 518 586 q 515 345 518 408 q 510 222 511 282 q 512 105 508 161 q 531 -1 515 49 l 396 -1 l 369 83 l 364 83 q 301 17 342 43 q 200 -10 261 -10 q 71 45 118 -10 q 24 192 24 100 q 113 369 24 317 q 353 414 201 422 q 342 531 360 494 q 268 567 325 567 q 182 557 226 567 q 103 529 138 547 l 61 653 m 260 132 q 321 151 297 132 q 356 192 344 169 l 356 307 q 294 308 324 311 q 243 296 265 306 q 208 267 221 286 q 194 219 194 249 q 212 154 194 176 q 260 132 229 132 m 164 999 q 218 936 183 957 q 293 915 253 915 q 365 936 333 915 q 413 999 397 957 l 489 963 q 470 894 486 926 q 428 838 454 863 q 368 798 403 813 q 292 783 333 783 q 157 829 213 783 q 86 957 101 875 l 164 999 z "},"Ą":{"ha":696,"x_min":-4,"x_max":725,"o":"m 264 364 l 425 364 l 369 590 l 347 743 l 342 743 l 318 589 l 264 364 m 456 219 l 226 219 l 169 0 l -4 0 l 278 979 l 415 979 l 699 0 l 672 0 q 607 -101 607 -32 q 631 -153 607 -136 q 700 -150 656 -171 l 725 -231 q 703 -247 717 -239 q 671 -262 689 -256 q 631 -274 653 -269 q 589 -279 610 -279 q 482 -244 518 -279 q 446 -154 446 -210 q 481 -56 446 -96 q 551 0 508 -22 l 515 0 l 456 219 z "},"ą":{"ha":574,"x_min":24,"x_max":558,"o":"m 61 653 q 165 693 103 678 q 307 708 228 708 q 472 647 425 708 q 518 474 518 586 q 515 345 518 408 q 510 222 511 282 q 512 105 508 161 q 531 -1 515 49 l 503 -1 q 440 -101 440 -35 q 465 -153 440 -136 q 533 -150 489 -171 l 558 -231 q 536 -247 550 -239 q 504 -262 522 -256 q 465 -274 486 -269 q 422 -279 443 -279 q 315 -244 351 -279 q 279 -154 279 -210 q 311 -59 279 -99 q 393 4 343 -19 l 369 83 l 364 83 q 301 17 342 43 q 200 -10 261 -10 q 71 45 118 -10 q 24 192 24 100 q 113 369 24 317 q 353 414 201 422 q 342 531 360 494 q 268 567 325 567 q 182 557 226 567 q 103 529 138 547 l 61 653 m 260 132 q 321 151 297 132 q 356 192 344 169 l 356 307 q 294 308 324 311 q 243 296 265 306 q 208 267 221 286 q 194 219 194 249 q 212 154 194 176 q 260 132 229 132 z "},"Ć":{"ha":635,"x_min":40,"x_max":622,"o":"m 614 39 q 517 -6 578 8 q 397 -19 457 -19 q 258 6 322 -19 q 144 92 193 32 q 68 249 96 151 q 40 488 40 346 q 72 732 40 635 q 153 887 103 829 q 269 968 204 944 q 401 992 335 992 q 520 981 469 992 q 603 956 571 969 l 568 801 q 506 823 542 815 q 422 831 471 831 q 275 747 326 831 q 224 486 224 664 q 235 347 224 410 q 273 238 247 283 q 338 167 299 192 q 433 142 378 142 q 517 155 482 142 q 579 186 551 168 l 614 39 m 424 1208 l 622 1208 l 622 1167 l 439 1044 l 310 1044 l 424 1208 z "},"ć":{"ha":486,"x_min":35,"x_max":469,"o":"m 469 38 q 386 -4 435 10 q 289 -18 338 -18 q 170 8 218 -18 q 92 81 122 33 q 48 197 61 129 q 35 347 35 264 q 100 621 35 529 q 292 713 165 713 q 394 701 354 713 q 464 674 433 690 l 425 536 q 377 555 400 549 q 322 561 354 561 q 235 510 264 561 q 206 347 206 460 q 235 193 206 253 q 331 133 265 133 q 390 142 365 133 q 435 165 414 151 l 469 38 m 283 1000 l 449 1000 l 449 958 l 318 786 l 225 786 l 283 1000 z "},"Ĉ":{"ha":635,"x_min":40,"x_max":614,"o":"m 614 39 q 517 -6 578 8 q 397 -19 457 -19 q 258 6 322 -19 q 144 92 193 32 q 68 249 96 151 q 40 488 40 346 q 72 732 40 635 q 153 887 103 829 q 269 968 204 944 q 401 992 335 992 q 520 981 469 992 q 603 956 571 969 l 568 801 q 506 823 542 815 q 422 831 471 831 q 275 747 326 831 q 224 486 224 664 q 235 347 224 410 q 273 238 247 283 q 338 167 299 192 q 433 142 378 142 q 517 155 482 142 q 579 186 551 168 l 614 39 m 333 1208 l 454 1208 l 599 1079 l 599 1025 l 481 1025 l 415 1082 l 392 1129 l 367 1083 l 297 1025 l 182 1025 l 182 1081 l 333 1208 z "},"ĉ":{"ha":486,"x_min":35,"x_max":469,"o":"m 469 38 q 386 -4 435 10 q 289 -18 338 -18 q 170 8 218 -18 q 92 81 122 33 q 48 197 61 129 q 35 347 35 264 q 100 621 35 529 q 292 713 165 713 q 394 701 354 713 q 464 674 433 690 l 425 536 q 377 555 400 549 q 322 561 354 561 q 235 510 264 561 q 206 347 206 460 q 235 193 206 253 q 331 133 265 133 q 390 142 365 133 q 435 165 414 151 l 469 38 m 193 1017 l 311 1017 l 438 764 l 308 764 l 264 856 l 246 924 l 228 856 l 176 764 l 53 764 l 193 1017 z "},"Č":{"ha":635,"x_min":40,"x_max":614,"o":"m 614 39 q 517 -6 578 8 q 397 -19 457 -19 q 258 6 322 -19 q 144 92 193 32 q 68 249 96 151 q 40 488 40 346 q 72 732 40 635 q 153 887 103 829 q 269 968 204 944 q 401 992 335 992 q 520 981 469 992 q 603 956 571 969 l 568 801 q 506 823 542 815 q 422 831 471 831 q 275 747 326 831 q 224 486 224 664 q 235 347 224 410 q 273 238 247 283 q 338 167 299 192 q 433 142 378 142 q 517 155 482 142 q 579 186 551 168 l 614 39 m 447 1024 l 326 1024 l 182 1154 l 182 1208 l 308 1208 l 367 1146 l 390 1104 l 414 1144 l 476 1208 l 599 1208 l 599 1153 l 447 1024 z "},"č":{"ha":486,"x_min":35,"x_max":478,"o":"m 469 38 q 386 -4 435 10 q 289 -18 338 -18 q 170 8 218 -18 q 92 81 122 33 q 48 197 61 129 q 35 347 35 264 q 100 621 35 529 q 292 713 165 713 q 394 701 354 713 q 464 674 433 690 l 425 536 q 377 555 400 549 q 322 561 354 561 q 235 510 264 561 q 206 347 206 460 q 235 193 206 253 q 331 133 265 133 q 390 142 365 133 q 435 165 414 151 l 469 38 m 338 764 l 215 764 l 83 1017 l 219 1017 l 264 925 l 282 857 l 300 925 l 351 1017 l 478 1017 l 338 764 z "},"Ď":{"ha":743,"x_min":63,"x_max":701,"o":"m 63 972 q 119 978 88 976 q 183 983 150 981 q 246 985 215 985 q 300 986 276 986 q 492 951 415 986 q 616 851 569 915 q 682 696 663 786 q 701 494 701 606 q 683 301 701 393 q 617 138 664 208 q 489 26 569 68 q 286 -15 408 -15 q 238 -14 268 -15 q 174 -10 207 -12 q 110 -6 140 -8 q 63 -1 79 -4 l 63 972 m 318 825 q 273 824 296 825 q 238 821 250 824 l 238 151 q 252 149 242 150 q 274 148 263 149 q 297 147 286 147 q 311 146 307 146 q 414 175 374 146 q 477 253 454 204 q 509 365 500 301 q 518 497 518 428 q 510 621 518 561 q 481 726 503 681 q 420 798 460 771 q 318 825 381 825 m 375 1024 l 254 1024 l 110 1154 l 110 1208 l 236 1208 l 294 1146 l 318 1104 l 342 1144 l 404 1208 l 526 1208 l 526 1153 l 375 1024 z "},"ď":{"ha":618,"x_min":35,"x_max":772,"o":"m 558 244 q 560 128 558 186 q 571 -1 561 69 l 454 -1 l 432 79 l 426 79 q 261 -18 379 -18 q 95 65 156 -18 q 35 336 35 149 q 100 615 35 519 q 294 710 165 710 q 350 706 328 710 q 393 692 372 701 l 393 972 l 558 972 l 558 244 m 300 133 q 360 152 338 133 q 393 207 382 171 l 393 535 q 362 553 379 547 q 317 558 344 558 q 233 508 261 558 q 206 331 206 458 q 228 184 206 235 q 300 133 251 133 m 772 972 q 758 888 769 932 q 729 806 746 844 q 694 736 713 767 q 661 692 675 706 l 588 728 q 617 843 607 778 q 628 972 628 908 l 772 972 z "},"Đ":{"ha":771,"x_min":-4,"x_max":729,"o":"m -4 557 l 90 557 l 90 972 q 147 978 115 976 q 210 983 178 981 q 274 985 243 985 q 328 986 304 986 q 520 951 443 986 q 644 851 597 915 q 710 696 690 786 q 729 494 729 606 q 710 301 729 393 q 644 138 692 208 q 517 26 597 68 q 314 -15 436 -15 q 265 -14 296 -15 q 201 -10 235 -12 q 138 -6 168 -8 q 90 -1 107 -4 l 90 447 l -4 447 l -4 557 m 265 557 l 415 557 l 415 447 l 265 447 l 265 151 q 280 149 269 150 q 302 148 290 149 q 324 147 314 147 q 339 146 335 146 q 442 175 401 146 q 505 253 482 204 q 537 365 528 301 q 546 497 546 428 q 538 621 546 561 q 509 726 531 681 q 448 798 488 771 q 346 825 408 825 q 301 824 324 825 q 265 821 278 824 l 265 557 z "},"đ":{"ha":628,"x_min":35,"x_max":643,"o":"m 558 890 l 643 890 l 643 781 l 558 781 l 558 244 q 560 128 558 186 q 571 -1 561 69 l 454 -1 l 432 79 l 426 79 q 261 -18 379 -18 q 95 65 156 -18 q 35 336 35 149 q 100 615 35 519 q 294 710 165 710 q 350 706 328 710 q 393 692 372 701 l 393 781 l 226 781 l 226 890 l 393 890 l 393 972 l 558 972 l 558 890 m 300 133 q 360 152 338 133 q 393 207 382 171 l 393 535 q 362 553 379 547 q 317 558 344 558 q 233 508 261 558 q 206 331 206 458 q 228 184 206 235 q 300 133 251 133 z "},"Ē":{"ha":597,"x_min":63,"x_max":554,"o":"m 63 972 l 549 972 l 549 811 l 238 811 l 238 572 l 519 572 l 519 411 l 238 411 l 238 161 l 554 161 l 554 0 l 63 0 l 63 972 m 103 1189 l 504 1189 l 504 1065 l 103 1065 l 103 1189 z "},"ē":{"ha":594,"x_min":35,"x_max":549,"o":"m 529 51 q 435 1 494 21 q 310 -18 375 -18 q 185 7 238 -18 q 100 79 133 32 q 51 194 67 126 q 35 347 35 261 q 109 624 35 535 q 315 714 183 714 q 401 701 360 714 q 476 656 443 688 q 528 573 508 625 q 549 442 549 521 q 545 376 549 411 q 535 301 542 342 l 197 301 q 233 169 200 215 q 340 124 267 124 q 422 138 385 124 q 478 167 458 151 l 529 51 m 313 572 q 233 530 260 572 q 203 411 207 488 l 394 411 q 378 531 399 490 q 313 572 357 572 m 110 914 l 488 914 l 488 788 l 110 788 l 110 914 z "},"Ė":{"ha":597,"x_min":63,"x_max":554,"o":"m 63 972 l 549 972 l 549 811 l 238 811 l 238 572 l 519 572 l 519 411 l 238 411 l 238 161 l 554 161 l 554 0 l 63 0 l 63 972 m 207 1110 q 234 1169 207 1144 q 314 1194 261 1194 q 396 1169 368 1194 q 424 1110 424 1144 q 396 1049 424 1074 q 314 1024 368 1024 q 234 1049 261 1024 q 207 1110 207 1074 z "},"ė":{"ha":594,"x_min":35,"x_max":549,"o":"m 529 51 q 435 1 494 21 q 310 -18 375 -18 q 185 7 238 -18 q 100 79 133 32 q 51 194 67 126 q 35 347 35 261 q 109 624 35 535 q 315 714 183 714 q 401 701 360 714 q 476 656 443 688 q 528 573 508 625 q 549 442 549 521 q 545 376 549 411 q 535 301 542 342 l 197 301 q 233 169 200 215 q 340 124 267 124 q 422 138 385 124 q 478 167 458 151 l 529 51 m 313 572 q 233 530 260 572 q 203 411 207 488 l 394 411 q 378 531 399 490 q 313 572 357 572 m 203 890 q 229 959 203 932 q 304 986 256 986 q 382 960 353 986 q 411 890 411 933 q 382 822 411 847 q 304 797 353 797 q 229 823 256 797 q 203 890 203 849 z "},"Ę":{"ha":597,"x_min":63,"x_max":574,"o":"m 63 972 l 549 972 l 549 811 l 238 811 l 238 572 l 519 572 l 519 411 l 238 411 l 238 161 l 554 161 l 554 0 l 521 0 q 456 -101 456 -31 q 480 -153 456 -136 q 549 -150 504 -171 l 574 -231 q 551 -247 565 -239 q 519 -262 538 -256 q 480 -274 501 -269 q 438 -279 458 -279 q 331 -244 367 -279 q 294 -154 294 -210 q 324 -62 294 -101 q 400 0 353 -24 l 63 0 l 63 972 z "},"ę":{"ha":585,"x_min":35,"x_max":549,"o":"m 313 572 q 233 530 260 572 q 203 411 207 488 l 394 411 q 378 531 399 490 q 313 572 357 572 m 529 51 q 454 8 500 25 q 421 -25 435 -6 q 397 -96 396 -58 q 404 -128 397 -114 q 424 -151 411 -143 q 456 -158 438 -160 q 496 -144 474 -157 l 521 -231 q 465 -264 504 -247 q 381 -281 425 -281 q 278 -242 314 -281 q 243 -150 243 -204 q 283 -39 243 -85 q 304 -18 293 -28 q 185 7 235 -17 q 100 79 133 32 q 51 194 67 126 q 35 347 35 261 q 109 624 35 535 q 315 714 183 714 q 401 701 360 714 q 476 656 443 688 q 528 573 508 625 q 549 442 549 521 q 545 376 549 411 q 535 301 542 342 l 197 301 q 233 169 200 215 q 340 124 267 124 q 422 138 385 124 q 478 167 458 151 l 529 51 z "},"Ě":{"ha":597,"x_min":63,"x_max":554,"o":"m 63 972 l 549 972 l 549 811 l 238 811 l 238 572 l 519 572 l 519 411 l 238 411 l 238 161 l 554 161 l 554 0 l 63 0 l 63 972 m 361 1024 l 240 1024 l 96 1154 l 96 1208 l 222 1208 l 281 1146 l 304 1104 l 328 1144 l 390 1208 l 513 1208 l 513 1153 l 361 1024 z "},"ě":{"ha":594,"x_min":35,"x_max":549,"o":"m 529 51 q 435 1 494 21 q 310 -18 375 -18 q 185 7 238 -18 q 100 79 133 32 q 51 194 67 126 q 35 347 35 261 q 109 624 35 535 q 315 714 183 714 q 401 701 360 714 q 476 656 443 688 q 528 573 508 625 q 549 442 549 521 q 545 376 549 411 q 535 301 542 342 l 197 301 q 233 169 200 215 q 340 124 267 124 q 422 138 385 124 q 478 167 458 151 l 529 51 m 313 572 q 233 530 260 572 q 203 411 207 488 l 394 411 q 378 531 399 490 q 313 572 357 572 m 361 764 l 239 764 l 107 1017 l 243 1017 l 288 925 l 306 857 l 324 925 l 375 1017 l 501 1017 l 361 764 z "},"Ĝ":{"ha":697,"x_min":40,"x_max":657,"o":"m 357 503 l 657 503 l 657 72 q 537 2 606 24 q 400 -19 468 -19 q 251 10 318 -19 q 138 101 185 39 q 66 258 92 163 q 40 486 40 353 q 71 721 40 625 q 152 877 101 817 q 270 965 203 938 q 413 992 338 992 q 534 980 479 992 q 625 953 589 968 l 589 801 q 524 822 561 814 q 435 831 488 831 q 347 811 386 831 q 280 750 307 792 q 238 642 253 708 q 224 485 224 576 q 277 225 224 308 q 418 142 331 142 q 472 150 446 142 q 517 176 497 158 l 517 375 l 357 397 l 357 503 m 311 1208 l 432 1208 l 576 1079 l 576 1025 l 458 1025 l 393 1082 l 369 1129 l 344 1083 l 275 1025 l 160 1025 l 160 1081 l 311 1208 z "},"ĝ":{"ha":615,"x_min":35,"x_max":557,"o":"m 557 0 q 488 -223 557 -151 q 294 -294 418 -294 q 160 -281 208 -294 q 85 -253 111 -268 l 119 -112 q 185 -136 150 -125 q 269 -147 221 -147 q 367 -109 340 -147 q 394 7 394 -71 l 394 44 l 390 44 q 338 3 371 17 q 254 -11 306 -11 q 90 72 144 -11 q 35 333 35 154 q 110 618 35 526 q 326 710 186 710 q 461 698 401 710 q 557 669 521 686 l 557 0 m 300 131 q 359 149 338 131 q 392 200 381 167 l 392 547 q 358 558 376 554 q 314 563 339 563 q 234 513 263 563 q 206 340 206 463 q 300 131 206 131 m 256 1017 l 374 1017 l 500 764 l 371 764 l 326 856 l 308 924 l 290 856 l 239 764 l 115 764 l 256 1017 z "},"Ğ":{"ha":697,"x_min":40,"x_max":657,"o":"m 357 503 l 657 503 l 657 72 q 537 2 606 24 q 400 -19 468 -19 q 251 10 318 -19 q 138 101 185 39 q 66 258 92 163 q 40 486 40 353 q 71 721 40 625 q 152 877 101 817 q 270 965 203 938 q 413 992 338 992 q 534 980 479 992 q 625 953 589 968 l 589 801 q 524 822 561 814 q 435 831 488 831 q 347 811 386 831 q 280 750 307 792 q 238 642 253 708 q 224 485 224 576 q 277 225 224 308 q 418 142 331 142 q 472 150 446 142 q 517 176 497 158 l 517 375 l 357 397 l 357 503 m 224 1215 q 292 1159 247 1179 q 389 1139 336 1139 q 484 1160 444 1139 q 547 1215 524 1181 l 608 1172 q 569 1101 593 1131 q 516 1051 546 1071 q 453 1023 486 1032 q 388 1014 421 1014 q 324 1022 357 1014 q 260 1049 292 1031 q 203 1096 229 1067 q 160 1167 176 1125 l 224 1215 z "},"ğ":{"ha":615,"x_min":35,"x_max":557,"o":"m 557 0 q 488 -223 557 -151 q 294 -294 418 -294 q 160 -281 208 -294 q 85 -253 111 -268 l 119 -112 q 185 -136 150 -125 q 269 -147 221 -147 q 367 -109 340 -147 q 394 7 394 -71 l 394 44 l 390 44 q 338 3 371 17 q 254 -11 306 -11 q 90 72 144 -11 q 35 333 35 154 q 110 618 35 526 q 326 710 186 710 q 461 698 401 710 q 557 669 521 686 l 557 0 m 300 131 q 359 149 338 131 q 392 200 381 167 l 392 547 q 358 558 376 554 q 314 563 339 563 q 234 513 263 563 q 206 340 206 463 q 300 131 206 131 m 186 999 q 240 936 206 957 q 315 915 275 915 q 388 936 356 915 q 435 999 419 957 l 511 963 q 492 894 508 926 q 451 838 476 863 q 390 798 425 813 q 314 783 356 783 q 179 829 235 783 q 108 957 124 875 l 186 999 z "},"Ģ":{"ha":697,"x_min":40,"x_max":657,"o":"m 357 503 l 657 503 l 657 72 q 537 2 606 24 q 400 -19 468 -19 q 251 10 318 -19 q 138 101 185 39 q 66 258 92 163 q 40 486 40 353 q 71 721 40 625 q 152 877 101 817 q 270 965 203 938 q 413 992 338 992 q 534 980 479 992 q 625 953 589 968 l 589 801 q 524 822 561 814 q 435 831 488 831 q 347 811 386 831 q 280 750 307 792 q 238 642 253 708 q 224 485 224 576 q 277 225 224 308 q 418 142 331 142 q 472 150 446 142 q 517 176 497 158 l 517 375 l 357 397 l 357 503 m 329 -147 q 354 -83 329 -107 q 415 -58 379 -58 q 485 -89 458 -58 q 513 -182 513 -119 q 499 -262 513 -228 q 465 -321 485 -297 q 423 -359 444 -344 q 385 -379 401 -374 l 339 -315 q 374 -283 357 -304 q 393 -231 390 -261 q 351 -210 372 -229 q 329 -147 329 -190 z "},"ģ":{"ha":615,"x_min":35,"x_max":557,"o":"m 557 0 q 488 -223 557 -151 q 294 -294 418 -294 q 160 -281 208 -294 q 85 -253 111 -268 l 119 -112 q 185 -136 150 -125 q 269 -147 221 -147 q 367 -109 340 -147 q 394 7 394 -71 l 394 44 l 390 44 q 338 3 371 17 q 254 -11 306 -11 q 90 72 144 -11 q 35 333 35 154 q 110 618 35 526 q 326 710 186 710 q 461 698 401 710 q 557 669 521 686 l 557 0 m 300 131 q 359 149 338 131 q 392 200 381 167 l 392 547 q 358 558 376 554 q 314 563 339 563 q 234 513 263 563 q 206 340 206 463 q 300 131 206 131 m 421 854 q 396 790 421 814 q 335 765 371 765 q 265 796 292 765 q 238 889 238 826 q 251 969 238 935 q 285 1028 265 1004 q 327 1066 306 1051 q 365 1086 349 1081 l 411 1022 q 376 990 393 1011 q 357 937 360 968 q 399 917 378 936 q 421 854 421 897 z "},"Ĥ":{"ha":740,"x_min":63,"x_max":678,"o":"m 503 411 l 238 411 l 238 0 l 63 0 l 63 972 l 238 972 l 238 572 l 503 572 l 503 972 l 678 972 l 678 0 l 503 0 l 503 411 m 322 1208 l 443 1208 l 588 1079 l 588 1025 l 469 1025 l 404 1082 l 381 1129 l 356 1083 l 286 1025 l 171 1025 l 171 1081 l 322 1208 z "},"ĥ":{"ha":624,"x_min":-54,"x_max":569,"o":"m 404 0 l 404 419 q 387 528 404 494 q 324 561 369 561 q 263 538 290 561 q 225 478 235 514 l 225 0 l 60 0 l 60 972 l 225 972 l 225 632 l 229 632 q 297 690 257 668 q 396 713 336 713 q 471 700 439 713 q 525 658 503 688 q 558 580 547 629 q 569 456 569 531 l 569 0 l 404 0 m 97 1208 l 218 1208 l 363 1079 l 363 1025 l 244 1025 l 179 1082 l 156 1129 l 131 1083 l 61 1025 l -54 1025 l -54 1081 l 97 1208 z "},"Ħ":{"ha":788,"x_min":3,"x_max":785,"o":"m 3 828 l 88 828 l 88 972 l 263 972 l 263 828 l 528 828 l 528 972 l 703 972 l 703 828 l 785 828 l 785 719 l 703 719 l 703 0 l 528 0 l 528 411 l 263 411 l 263 0 l 88 0 l 88 719 l 3 719 l 3 828 m 528 572 l 528 719 l 263 719 l 263 572 l 528 572 z "},"ħ":{"ha":633,"x_min":-12,"x_max":579,"o":"m -12 890 l 69 890 l 69 972 l 235 972 l 235 890 l 419 890 l 419 781 l 235 781 l 235 632 l 239 632 q 306 690 267 668 q 406 713 346 713 q 481 700 449 713 q 535 658 513 688 q 568 580 557 629 q 579 456 579 531 l 579 0 l 414 0 l 414 419 q 397 528 414 494 q 333 561 379 561 q 272 538 300 561 q 235 478 244 514 l 235 0 l 69 0 l 69 781 l -12 781 l -12 890 z "},"Ī":{"ha":331,"x_min":-31,"x_max":371,"o":"m 78 972 l 253 972 l 253 0 l 78 0 l 78 972 m -31 1189 l 371 1189 l 371 1065 l -31 1065 l -31 1189 z "},"ī":{"ha":313,"x_min":-33,"x_max":344,"o":"m 74 694 l 239 694 l 239 0 l 74 0 l 74 694 m -33 914 l 344 914 l 344 788 l -33 788 l -33 914 z "},"Į":{"ha":331,"x_min":22,"x_max":301,"o":"m 78 972 l 253 972 l 253 0 l 236 0 q 198 -41 213 -17 q 183 -101 183 -65 q 208 -155 183 -137 q 276 -150 232 -172 l 301 -232 q 246 -264 285 -247 q 163 -281 207 -281 q 58 -246 94 -281 q 22 -154 22 -211 q 49 -62 22 -101 q 124 0 76 -24 l 78 0 l 78 972 z "},"į":{"ha":310,"x_min":15,"x_max":293,"o":"m 74 694 l 239 694 l 239 0 l 224 0 q 183 -44 199 -19 q 169 -101 168 -69 q 197 -155 169 -137 q 268 -144 225 -172 l 293 -231 q 237 -264 276 -247 q 153 -281 197 -281 q 50 -245 85 -281 q 15 -153 15 -210 q 42 -62 15 -100 q 115 0 68 -24 l 74 0 l 74 694 m 51 890 q 78 959 51 932 q 153 986 104 986 q 231 960 201 986 q 260 890 260 933 q 231 822 260 847 q 153 797 201 797 q 78 823 104 797 q 51 890 51 849 z "},"İ":{"ha":331,"x_min":58,"x_max":275,"o":"m 78 972 l 253 972 l 253 0 l 78 0 l 78 972 m 58 1110 q 85 1169 58 1144 q 165 1194 113 1194 q 247 1169 219 1194 q 275 1110 275 1144 q 247 1049 275 1074 q 165 1024 219 1024 q 85 1049 113 1024 q 58 1110 58 1074 z "},"ı":{"ha":313,"x_min":74,"x_max":239,"o":"m 74 694 l 239 694 l 239 0 l 74 0 l 74 694 z "},"Ĵ":{"ha":401,"x_min":-24,"x_max":447,"o":"m 157 972 l 332 972 l 332 265 q 322 149 332 201 q 288 60 311 97 q 225 3 264 24 q 128 -17 186 -17 q 48 -8 88 -17 q -24 15 8 0 l 17 163 q 85 144 46 144 q 145 185 133 144 q 157 303 157 226 l 157 972 m 182 1208 l 303 1208 l 447 1079 l 447 1025 l 329 1025 l 264 1082 l 240 1129 l 215 1083 l 146 1025 l 31 1025 l 31 1081 l 182 1208 z "},"ĵ":{"ha":313,"x_min":-35,"x_max":350,"o":"m 75 694 l 240 694 l 240 -29 q 197 -222 240 -156 q 57 -289 153 -289 q -22 -279 18 -289 l -22 -132 q 56 -98 38 -137 q 75 19 75 -58 l 75 694 m 106 1017 l 224 1017 l 350 764 l 221 764 l 176 856 l 158 924 l 140 856 l 89 764 l -35 764 l 106 1017 z "},"Ķ":{"ha":721,"x_min":63,"x_max":710,"o":"m 275 417 l 238 417 l 238 0 l 63 0 l 63 972 l 238 972 l 238 540 l 272 557 l 476 972 l 674 972 l 451 563 l 386 511 l 453 458 l 710 0 l 496 0 l 275 417 m 258 -147 q 283 -83 258 -107 q 344 -58 308 -58 q 415 -89 388 -58 q 442 -182 442 -119 q 428 -262 442 -228 q 394 -321 414 -297 q 352 -359 374 -344 q 314 -379 331 -374 l 268 -315 q 303 -283 286 -304 q 322 -231 319 -261 q 280 -210 301 -229 q 258 -147 258 -190 z "},"ķ":{"ha":572,"x_min":60,"x_max":572,"o":"m 264 288 l 225 288 l 225 0 l 60 0 l 60 972 l 225 972 l 225 399 l 258 418 l 374 694 l 553 694 l 425 419 l 365 372 l 431 325 l 572 0 l 386 0 l 264 288 m 200 -147 q 225 -83 200 -107 q 286 -58 250 -58 q 356 -89 329 -58 q 383 -182 383 -119 q 369 -262 383 -228 q 335 -321 356 -297 q 294 -359 315 -344 q 256 -379 272 -374 l 210 -315 q 244 -283 228 -304 q 264 -231 261 -261 q 222 -210 243 -229 q 200 -147 200 -190 z "},"Ĺ":{"ha":589,"x_min":63,"x_max":579,"o":"m 579 0 l 63 0 l 63 972 l 238 972 l 238 161 l 579 161 l 579 0 m 218 1208 l 417 1208 l 417 1167 l 233 1044 l 104 1044 l 218 1208 z "},"ĺ":{"ha":338,"x_min":63,"x_max":389,"o":"m 228 225 q 238 156 228 176 q 269 135 247 135 q 295 138 282 135 q 325 147 308 140 l 340 14 q 283 -7 324 3 q 201 -17 243 -17 q 97 18 132 -17 q 63 136 63 53 l 63 972 l 228 972 l 228 225 m 190 1208 l 389 1208 l 389 1167 l 206 1044 l 76 1044 l 190 1208 z "},"Ļ":{"ha":589,"x_min":63,"x_max":579,"o":"m 579 0 l 63 0 l 63 972 l 238 972 l 238 161 l 579 161 l 579 0 m 208 -147 q 233 -83 208 -107 q 294 -58 258 -58 q 365 -89 338 -58 q 392 -182 392 -119 q 378 -262 392 -228 q 344 -321 364 -297 q 302 -359 324 -344 q 264 -379 281 -374 l 218 -315 q 253 -283 236 -304 q 272 -231 269 -261 q 230 -210 251 -229 q 208 -147 208 -190 z "},"ļ":{"ha":338,"x_min":63,"x_max":340,"o":"m 228 225 q 238 156 228 176 q 269 135 247 135 q 295 138 282 135 q 325 147 308 140 l 340 14 q 283 -7 324 3 q 201 -17 243 -17 q 97 18 132 -17 q 63 136 63 53 l 63 972 l 228 972 l 228 225 m 106 -147 q 131 -83 106 -107 q 192 -58 156 -58 q 262 -89 235 -58 q 289 -182 289 -119 q 275 -262 289 -228 q 241 -321 261 -297 q 199 -359 221 -344 q 161 -379 178 -374 l 115 -315 q 150 -283 133 -304 q 169 -231 167 -261 q 127 -210 149 -229 q 106 -147 106 -190 z "},"Ľ":{"ha":589,"x_min":63,"x_max":579,"o":"m 579 0 l 63 0 l 63 972 l 238 972 l 238 161 l 579 161 l 579 0 m 551 972 q 537 888 549 932 q 508 806 525 844 q 473 736 492 767 q 440 692 454 706 l 367 728 q 397 843 386 778 q 407 972 407 908 l 551 972 z "},"ľ":{"ha":338,"x_min":63,"x_max":443,"o":"m 228 225 q 238 156 228 176 q 269 135 247 135 q 295 138 282 135 q 325 147 308 140 l 340 14 q 283 -7 324 3 q 201 -17 243 -17 q 97 18 132 -17 q 63 136 63 53 l 63 972 l 228 972 l 228 225 m 443 972 q 428 888 440 932 q 400 806 417 844 q 365 736 383 767 q 332 692 346 706 l 258 728 q 288 843 278 778 q 299 972 299 908 l 443 972 z "},"Ł":{"ha":603,"x_min":4,"x_max":593,"o":"m 4 444 l 76 500 l 76 972 l 251 972 l 251 635 l 368 725 l 368 550 l 251 461 l 251 161 l 593 161 l 593 0 l 76 0 l 76 328 l 4 274 l 4 444 z "},"ł":{"ha":371,"x_min":1,"x_max":367,"o":"m 1 429 l 89 496 l 89 972 l 254 972 l 254 624 l 365 710 l 365 535 l 254 450 l 254 225 q 264 156 254 176 q 296 135 274 135 q 322 138 308 135 q 351 147 335 140 l 367 14 q 310 -7 350 3 q 228 -17 269 -17 q 124 18 158 -17 q 89 136 89 53 l 89 325 l 1 258 l 1 429 z "},"Ń":{"ha":750,"x_min":63,"x_max":688,"o":"m 276 478 l 213 649 l 206 649 l 228 481 l 228 0 l 63 0 l 63 979 l 197 979 l 476 490 l 536 322 l 544 322 l 522 488 l 522 972 l 688 972 l 688 -7 l 553 -7 l 276 478 m 421 1208 l 619 1208 l 619 1167 l 436 1044 l 307 1044 l 421 1208 z "},"ń":{"ha":624,"x_min":60,"x_max":569,"o":"m 404 0 l 404 422 q 386 529 404 499 q 325 560 368 560 q 263 538 289 560 q 225 482 236 515 l 225 0 l 60 0 l 60 694 l 192 694 l 211 614 l 215 614 q 283 683 240 654 q 396 711 326 711 q 470 699 438 711 q 525 658 503 686 q 558 581 547 629 q 569 463 569 533 l 569 0 l 404 0 m 314 1000 l 479 1000 l 479 958 l 349 786 l 256 786 l 314 1000 z "},"Ņ":{"ha":750,"x_min":63,"x_max":688,"o":"m 276 478 l 213 649 l 206 649 l 228 481 l 228 0 l 63 0 l 63 979 l 197 979 l 476 490 l 536 322 l 544 322 l 522 488 l 522 972 l 688 972 l 688 -7 l 553 -7 l 276 478 m 297 -147 q 322 -83 297 -107 q 383 -58 347 -58 q 453 -89 426 -58 q 481 -182 481 -119 q 467 -262 481 -228 q 433 -321 453 -297 q 391 -359 413 -344 q 353 -379 369 -374 l 307 -315 q 342 -283 325 -304 q 361 -231 358 -261 q 319 -210 340 -229 q 297 -147 297 -190 z "},"ņ":{"ha":624,"x_min":60,"x_max":569,"o":"m 404 0 l 404 422 q 386 529 404 499 q 325 560 368 560 q 263 538 289 560 q 225 482 236 515 l 225 0 l 60 0 l 60 694 l 192 694 l 211 614 l 215 614 q 283 683 240 654 q 396 711 326 711 q 470 699 438 711 q 525 658 503 686 q 558 581 547 629 q 569 463 569 533 l 569 0 l 404 0 m 221 -147 q 246 -83 221 -107 q 307 -58 271 -58 q 377 -89 350 -58 q 404 -182 404 -119 q 390 -262 404 -228 q 356 -321 376 -297 q 315 -359 336 -344 q 276 -379 293 -374 l 231 -315 q 265 -283 249 -304 q 285 -231 282 -261 q 242 -210 264 -229 q 221 -147 221 -190 z "},"Ň":{"ha":750,"x_min":63,"x_max":688,"o":"m 276 478 l 213 649 l 206 649 l 228 481 l 228 0 l 63 0 l 63 979 l 197 979 l 476 490 l 536 322 l 544 322 l 522 488 l 522 972 l 688 972 l 688 -7 l 553 -7 l 276 478 m 439 1024 l 318 1024 l 174 1154 l 174 1208 l 300 1208 l 358 1146 l 382 1104 l 406 1144 l 468 1208 l 590 1208 l 590 1153 l 439 1024 z "},"ň":{"ha":624,"x_min":60,"x_max":569,"o":"m 404 0 l 404 422 q 386 529 404 499 q 325 560 368 560 q 263 538 289 560 q 225 482 236 515 l 225 0 l 60 0 l 60 694 l 192 694 l 211 614 l 215 614 q 283 683 240 654 q 396 711 326 711 q 470 699 438 711 q 525 658 503 686 q 558 581 547 629 q 569 463 569 533 l 569 0 l 404 0 m 372 764 l 250 764 l 118 1017 l 254 1017 l 299 925 l 317 857 l 335 925 l 386 1017 l 513 1017 l 372 764 z "},"Ō":{"ha":768,"x_min":40,"x_max":728,"o":"m 40 486 q 125 863 40 733 q 383 992 210 992 q 539 956 474 992 q 646 855 604 921 q 708 695 688 789 q 728 486 728 601 q 641 110 728 239 q 383 -19 554 -19 q 227 16 292 -19 q 121 117 163 51 q 60 277 79 183 q 40 486 40 371 m 224 486 q 232 349 224 413 q 260 240 240 286 q 309 168 279 194 q 383 142 339 142 q 504 224 464 142 q 544 486 544 306 q 536 620 544 557 q 509 730 528 683 q 460 803 490 776 q 383 831 429 831 q 224 486 224 831 m 186 1189 l 588 1189 l 588 1065 l 186 1065 l 186 1189 z "},"ō":{"ha":618,"x_min":35,"x_max":583,"o":"m 35 347 q 107 622 35 532 q 308 713 179 713 q 515 621 447 713 q 583 347 583 529 q 511 72 583 161 q 308 -18 439 -18 q 35 347 35 -18 m 206 347 q 229 186 206 243 q 308 129 253 129 q 387 178 361 129 q 413 347 413 228 q 389 510 413 454 q 308 565 365 565 q 233 516 260 565 q 206 347 206 467 m 118 914 l 496 914 l 496 788 l 118 788 l 118 914 z "},"Ő":{"ha":768,"x_min":40,"x_max":728,"o":"m 40 486 q 125 863 40 733 q 383 992 210 992 q 539 956 474 992 q 646 855 604 921 q 708 695 688 789 q 728 486 728 601 q 641 110 728 239 q 383 -19 554 -19 q 227 16 292 -19 q 121 117 163 51 q 60 277 79 183 q 40 486 40 371 m 224 486 q 232 349 224 413 q 260 240 240 286 q 309 168 279 194 q 383 142 339 142 q 504 224 464 142 q 544 486 544 306 q 536 620 544 557 q 509 730 528 683 q 460 803 490 776 q 383 831 429 831 q 224 486 224 831 m 274 1181 l 440 1181 l 440 1158 l 326 1029 l 207 1029 l 274 1181 m 513 1181 l 686 1181 l 686 1158 l 522 1029 l 403 1029 l 513 1181 z "},"ő":{"ha":618,"x_min":35,"x_max":583,"o":"m 35 347 q 107 622 35 532 q 308 713 179 713 q 515 621 447 713 q 583 347 583 529 q 511 72 583 161 q 308 -18 439 -18 q 35 347 35 -18 m 206 347 q 229 186 206 243 q 308 129 253 129 q 387 178 361 129 q 413 347 413 228 q 389 510 413 454 q 308 565 365 565 q 233 516 260 565 q 206 347 206 467 m 196 972 l 346 972 l 346 950 l 257 793 l 156 793 l 196 972 m 410 972 l 568 972 l 568 950 l 431 793 l 326 793 l 410 972 z "},"Œ":{"ha":1046,"x_min":40,"x_max":1001,"o":"m 511 796 q 457 821 489 811 q 385 831 425 831 q 265 747 306 831 q 224 486 224 663 q 233 349 224 413 q 262 240 242 286 q 314 168 282 194 q 393 142 346 142 q 453 147 425 142 q 511 168 481 153 l 511 796 m 511 0 q 451 -14 489 -8 q 378 -19 413 -19 q 225 17 289 -19 q 120 119 161 53 q 60 278 79 185 q 40 486 40 371 q 125 862 40 732 q 378 992 210 992 q 453 985 419 992 q 511 972 488 979 l 996 972 l 996 811 l 686 811 l 686 572 l 967 572 l 967 411 l 686 411 l 686 161 l 1001 161 l 1001 0 l 511 0 z "},"œ":{"ha":968,"x_min":35,"x_max":922,"o":"m 206 347 q 230 188 206 247 q 308 128 254 128 q 386 179 361 128 q 411 347 411 231 q 388 509 411 451 q 308 567 365 567 q 233 517 260 567 q 206 347 206 467 m 493 76 q 420 6 465 32 q 306 -19 375 -19 q 101 75 168 -19 q 35 347 35 169 q 106 621 35 528 q 308 714 178 714 q 431 685 386 714 q 500 619 475 656 q 570 685 526 656 q 689 714 614 714 q 776 701 733 714 q 851 656 818 688 q 903 572 883 625 q 922 442 922 519 q 919 376 922 410 q 908 301 915 342 l 572 301 q 608 166 575 213 q 711 119 640 119 q 795 136 758 119 q 851 169 832 153 l 906 54 q 809 1 871 22 q 681 -19 747 -19 q 569 6 618 -19 q 493 76 521 32 m 686 575 q 606 528 631 575 q 576 411 581 482 l 768 411 q 753 531 774 486 q 686 575 733 575 z "},"Ŕ":{"ha":699,"x_min":63,"x_max":683,"o":"m 63 963 q 185 981 119 975 q 297 986 250 986 q 414 974 357 986 q 515 931 471 963 q 585 847 558 900 q 613 711 613 793 q 569 519 613 593 q 449 417 525 444 l 504 372 l 683 0 l 482 0 l 313 383 l 238 401 l 238 0 l 63 0 l 63 963 m 238 521 l 297 521 q 396 560 363 521 q 429 683 429 600 q 401 785 429 746 q 314 825 374 825 q 271 824 292 825 q 238 818 250 822 l 238 521 m 329 1208 l 528 1208 l 528 1167 l 344 1044 l 215 1044 l 329 1208 z "},"ŕ":{"ha":407,"x_min":60,"x_max":407,"o":"m 388 531 q 326 543 354 543 q 262 522 289 543 q 225 464 235 501 l 225 0 l 60 0 l 60 694 l 186 694 l 206 611 l 211 611 q 263 683 229 657 q 342 708 297 708 q 407 694 375 708 l 388 531 m 203 1000 l 368 1000 l 368 958 l 238 786 l 144 786 l 203 1000 z "},"Ŗ":{"ha":699,"x_min":63,"x_max":683,"o":"m 63 963 q 185 981 119 975 q 297 986 250 986 q 414 974 357 986 q 515 931 471 963 q 585 847 558 900 q 613 711 613 793 q 569 519 613 593 q 449 417 525 444 l 504 372 l 683 0 l 482 0 l 313 383 l 238 401 l 238 0 l 63 0 l 63 963 m 238 521 l 297 521 q 396 560 363 521 q 429 683 429 600 q 401 785 429 746 q 314 825 374 825 q 271 824 292 825 q 238 818 250 822 l 238 521 m 267 -147 q 292 -83 267 -107 q 353 -58 317 -58 q 423 -89 396 -58 q 450 -182 450 -119 q 436 -262 450 -228 q 402 -321 422 -297 q 360 -359 382 -344 q 322 -379 339 -374 l 276 -315 q 311 -283 294 -304 q 331 -231 328 -261 q 288 -210 310 -229 q 267 -147 267 -190 z "},"ŗ":{"ha":407,"x_min":60,"x_max":407,"o":"m 388 531 q 326 543 354 543 q 262 522 289 543 q 225 464 235 501 l 225 0 l 60 0 l 60 694 l 186 694 l 206 611 l 211 611 q 263 683 229 657 q 342 708 297 708 q 407 694 375 708 l 388 531 m 85 -147 q 110 -83 85 -107 q 171 -58 135 -58 q 241 -89 214 -58 q 268 -182 268 -119 q 254 -262 268 -228 q 220 -321 240 -297 q 178 -359 200 -344 q 140 -379 157 -374 l 94 -315 q 129 -283 113 -304 q 149 -231 146 -261 q 106 -210 128 -229 q 85 -147 85 -190 z "},"Ř":{"ha":699,"x_min":64,"x_max":685,"o":"m 64 963 q 186 981 121 975 q 299 986 251 986 q 415 974 358 986 q 516 931 472 963 q 587 847 560 900 q 614 711 614 793 q 570 519 614 593 q 450 417 526 444 l 506 372 l 685 0 l 483 0 l 314 383 l 239 401 l 239 0 l 64 0 l 64 963 m 239 521 l 299 521 q 397 560 364 521 q 431 683 431 600 q 403 785 431 746 q 315 825 375 825 q 272 824 293 825 q 239 818 251 822 l 239 521 m 358 1024 l 238 1024 l 93 1154 l 93 1208 l 219 1208 l 278 1146 l 301 1104 l 325 1144 l 388 1208 l 510 1208 l 510 1153 l 358 1024 z "},"ř":{"ha":407,"x_min":28,"x_max":422,"o":"m 388 531 q 326 543 354 543 q 262 522 289 543 q 225 464 235 501 l 225 0 l 60 0 l 60 694 l 186 694 l 206 611 l 211 611 q 263 683 229 657 q 342 708 297 708 q 407 694 375 708 l 388 531 m 282 764 l 160 764 l 28 1017 l 164 1017 l 208 925 l 226 857 l 244 925 l 296 1017 l 422 1017 l 282 764 z "},"Ś":{"ha":610,"x_min":26,"x_max":578,"o":"m 403 250 q 376 326 403 294 q 310 385 350 357 q 224 442 271 413 q 138 510 178 471 q 72 601 99 549 q 46 731 46 654 q 67 851 46 801 q 126 931 89 900 q 215 977 164 963 q 325 992 267 992 q 457 978 396 992 q 558 940 518 964 l 504 786 q 434 817 481 803 q 333 831 388 831 q 250 808 279 831 q 221 743 221 786 q 247 674 221 704 q 313 617 274 644 q 399 559 353 589 q 485 490 446 529 q 551 397 525 450 q 578 269 578 343 q 556 142 578 196 q 495 52 535 88 q 400 -1 456 17 q 276 -19 344 -19 q 126 -3 190 -19 q 26 35 61 14 l 83 192 q 160 158 111 175 q 264 142 208 142 q 403 250 403 142 m 344 1208 l 543 1208 l 543 1167 l 360 1044 l 231 1044 l 344 1208 z "},"ś":{"ha":486,"x_min":26,"x_max":458,"o":"m 293 185 q 274 234 293 214 q 226 272 256 254 q 165 307 197 289 q 103 351 132 325 q 55 415 74 378 q 36 510 36 453 q 89 660 36 607 q 244 713 142 713 q 360 699 306 713 q 446 667 414 686 l 407 539 q 343 560 381 550 q 269 571 306 571 q 201 514 201 571 q 220 470 201 488 q 268 436 239 453 q 330 401 297 419 q 392 356 363 383 q 440 290 421 329 q 458 194 458 251 q 400 40 458 99 q 226 -18 342 -18 q 115 -4 169 -18 q 26 32 60 10 l 72 165 q 140 136 101 149 q 219 124 178 124 q 272 138 251 124 q 293 185 293 153 m 242 1000 l 407 1000 l 407 958 l 276 786 l 183 786 l 242 1000 z "},"Ŝ":{"ha":610,"x_min":26,"x_max":578,"o":"m 403 250 q 376 326 403 294 q 310 385 350 357 q 224 442 271 413 q 138 510 178 471 q 72 601 99 549 q 46 731 46 654 q 67 851 46 801 q 126 931 89 900 q 215 977 164 963 q 325 992 267 992 q 457 978 396 992 q 558 940 518 964 l 504 786 q 434 817 481 803 q 333 831 388 831 q 250 808 279 831 q 221 743 221 786 q 247 674 221 704 q 313 617 274 644 q 399 559 353 589 q 485 490 446 529 q 551 397 525 450 q 578 269 578 343 q 556 142 578 196 q 495 52 535 88 q 400 -1 456 17 q 276 -19 344 -19 q 126 -3 190 -19 q 26 35 61 14 l 83 192 q 160 158 111 175 q 264 142 208 142 q 403 250 403 142 m 268 1208 l 389 1208 l 533 1079 l 533 1025 l 415 1025 l 350 1082 l 326 1129 l 301 1083 l 232 1025 l 117 1025 l 117 1081 l 268 1208 z "},"ŝ":{"ha":486,"x_min":26,"x_max":458,"o":"m 293 185 q 274 234 293 214 q 226 272 256 254 q 165 307 197 289 q 103 351 132 325 q 55 415 74 378 q 36 510 36 453 q 89 660 36 607 q 244 713 142 713 q 360 699 306 713 q 446 667 414 686 l 407 539 q 343 560 381 550 q 269 571 306 571 q 201 514 201 571 q 220 470 201 488 q 268 436 239 453 q 330 401 297 419 q 392 356 363 383 q 440 290 421 329 q 458 194 458 251 q 400 40 458 99 q 226 -18 342 -18 q 115 -4 169 -18 q 26 32 60 10 l 72 165 q 140 136 101 149 q 219 124 178 124 q 272 138 251 124 q 293 185 293 153 m 193 1017 l 311 1017 l 438 764 l 308 764 l 264 856 l 246 924 l 228 856 l 176 764 l 53 764 l 193 1017 z "},"Ş":{"ha":610,"x_min":26,"x_max":578,"o":"m 403 250 q 376 326 403 294 q 310 385 350 357 q 224 442 271 413 q 138 510 178 471 q 72 601 99 549 q 46 731 46 654 q 67 851 46 801 q 126 931 89 900 q 215 977 164 963 q 325 992 267 992 q 457 978 396 992 q 558 940 518 964 l 504 786 q 434 817 481 803 q 333 831 388 831 q 250 808 279 831 q 221 743 221 786 q 247 674 221 704 q 313 617 274 644 q 399 559 353 589 q 485 490 446 529 q 551 397 525 450 q 578 269 578 343 q 515 72 578 142 q 346 -14 453 1 l 325 -60 q 400 -90 372 -65 q 428 -164 428 -114 q 413 -219 428 -196 q 374 -259 399 -243 q 315 -283 349 -275 q 246 -292 282 -292 q 171 -283 208 -292 l 181 -217 q 258 -209 239 -222 q 276 -176 276 -196 q 179 -132 276 -137 l 238 -18 q 111 0 165 -15 q 26 35 57 15 l 83 193 q 160 160 111 176 q 264 143 208 143 q 403 250 403 143 z "},"ş":{"ha":486,"x_min":26,"x_max":458,"o":"m 72 165 q 140 136 101 149 q 219 124 178 124 q 272 138 251 124 q 293 185 293 153 q 274 234 293 214 q 226 272 256 254 q 165 307 197 289 q 103 351 132 325 q 55 415 74 378 q 36 510 36 453 q 89 660 36 607 q 244 713 142 713 q 360 699 306 713 q 446 667 414 686 l 407 539 q 343 560 381 550 q 269 571 306 571 q 201 514 201 571 q 220 470 201 488 q 268 436 239 453 q 330 401 297 419 q 392 356 363 383 q 440 290 421 329 q 458 194 458 251 q 417 58 458 113 q 293 -11 375 4 l 271 -60 q 346 -90 318 -65 q 374 -164 374 -114 q 359 -219 374 -196 q 319 -259 344 -243 q 261 -283 294 -275 q 192 -292 228 -292 q 117 -283 154 -292 l 126 -217 q 203 -209 185 -222 q 222 -176 222 -196 q 125 -132 222 -137 l 185 -15 q 96 1 138 -11 q 26 32 54 14 l 72 165 z "},"Š":{"ha":610,"x_min":26,"x_max":578,"o":"m 403 250 q 376 326 403 294 q 310 385 350 357 q 224 442 271 413 q 138 510 178 471 q 72 601 99 549 q 46 731 46 654 q 67 851 46 801 q 126 931 89 900 q 215 977 164 963 q 325 992 267 992 q 457 978 396 992 q 558 940 518 964 l 504 786 q 434 817 481 803 q 333 831 388 831 q 250 808 279 831 q 221 743 221 786 q 247 674 221 704 q 313 617 274 644 q 399 559 353 589 q 485 490 446 529 q 551 397 525 450 q 578 269 578 343 q 556 142 578 196 q 495 52 535 88 q 400 -1 456 17 q 276 -19 344 -19 q 126 -3 190 -19 q 26 35 61 14 l 83 192 q 160 158 111 175 q 264 142 208 142 q 403 250 403 142 m 382 1024 l 261 1024 l 117 1154 l 117 1208 l 243 1208 l 301 1146 l 325 1104 l 349 1144 l 411 1208 l 533 1208 l 533 1153 l 382 1024 z "},"š":{"ha":486,"x_min":26,"x_max":458,"o":"m 293 185 q 274 234 293 214 q 226 272 256 254 q 165 307 197 289 q 103 351 132 325 q 55 415 74 378 q 36 510 36 453 q 89 660 36 607 q 244 713 142 713 q 360 699 306 713 q 446 667 414 686 l 407 539 q 343 560 381 550 q 269 571 306 571 q 201 514 201 571 q 220 470 201 488 q 268 436 239 453 q 330 401 297 419 q 392 356 363 383 q 440 290 421 329 q 458 194 458 251 q 400 40 458 99 q 226 -18 342 -18 q 115 -4 169 -18 q 26 32 60 10 l 72 165 q 140 136 101 149 q 219 124 178 124 q 272 138 251 124 q 293 185 293 153 m 303 764 l 181 764 l 49 1017 l 185 1017 l 229 925 l 247 857 l 265 925 l 317 1017 l 443 1017 l 303 764 z "},"Ţ":{"ha":658,"x_min":11,"x_max":647,"o":"m 381 0 l 353 -60 q 428 -90 400 -65 q 456 -164 456 -114 q 441 -219 456 -196 q 401 -259 426 -243 q 343 -283 376 -275 q 274 -292 310 -292 q 199 -283 236 -292 l 208 -217 q 285 -209 267 -222 q 304 -176 304 -196 q 207 -132 304 -137 l 275 0 l 242 0 l 242 811 l 11 811 l 11 972 l 647 972 l 647 811 l 417 811 l 417 0 l 381 0 z "},"ţ":{"ha":404,"x_min":6,"x_max":396,"o":"m 271 -60 q 346 -90 318 -65 q 374 -164 374 -114 q 359 -219 374 -196 q 319 -259 344 -243 q 261 -283 294 -275 q 192 -292 228 -292 q 117 -283 154 -292 l 126 -217 q 203 -209 185 -222 q 222 -176 222 -196 q 125 -132 222 -137 l 188 -10 q 121 29 146 0 q 82 183 82 75 l 82 547 l 6 547 l 6 694 l 82 694 l 82 825 l 247 876 l 247 694 l 382 694 l 382 547 l 247 547 l 247 244 q 259 160 247 185 q 301 135 271 135 q 339 139 322 135 q 375 151 356 143 l 396 19 q 325 -6 365 4 q 292 -12 308 -10 l 271 -60 z "},"Ť":{"ha":658,"x_min":11,"x_max":647,"o":"m 647 811 l 417 811 l 417 0 l 242 0 l 242 811 l 11 811 l 11 972 l 647 972 l 647 811 m 385 1024 l 264 1024 l 119 1154 l 119 1208 l 246 1208 l 304 1146 l 328 1104 l 351 1144 l 414 1208 l 536 1208 l 536 1153 l 385 1024 z "},"ť":{"ha":404,"x_min":6,"x_max":463,"o":"m 6 694 l 82 694 l 82 825 l 247 876 l 247 694 l 382 694 l 382 547 l 247 547 l 247 244 q 259 160 247 185 q 301 135 271 135 q 339 139 322 135 q 375 151 356 143 l 396 19 q 325 -6 365 4 q 240 -17 285 -17 q 122 29 161 -17 q 82 183 82 75 l 82 547 l 6 547 l 6 694 m 463 1004 q 448 920 460 964 q 419 838 436 876 q 384 768 403 799 q 351 724 365 738 l 278 760 q 308 875 297 810 q 318 1004 318 940 l 463 1004 z "},"Ū":{"ha":715,"x_min":58,"x_max":657,"o":"m 492 972 l 657 972 l 657 342 q 580 68 657 153 q 367 -17 503 -17 q 133 66 207 -17 q 58 318 58 149 l 58 972 l 233 972 l 233 349 q 264 190 233 235 q 365 144 294 144 q 463 192 433 144 q 492 349 492 240 l 492 972 m 160 1189 l 561 1189 l 561 1065 l 160 1065 l 160 1189 z "},"ū":{"ha":619,"x_min":54,"x_max":578,"o":"m 219 694 l 219 279 q 235 165 219 197 q 290 133 250 133 q 356 162 329 133 q 393 231 382 190 l 393 694 l 558 694 l 558 211 q 563 99 558 154 q 578 0 567 44 l 453 0 l 424 94 l 419 94 q 348 14 393 46 q 236 -18 303 -18 q 160 -6 193 -18 q 103 35 126 6 q 67 115 79 64 q 54 243 54 165 l 54 694 l 219 694 m 119 914 l 497 914 l 497 788 l 119 788 l 119 914 z "},"Ŭ":{"ha":715,"x_min":58,"x_max":657,"o":"m 492 972 l 657 972 l 657 342 q 580 68 657 153 q 367 -17 503 -17 q 133 66 207 -17 q 58 318 58 149 l 58 972 l 233 972 l 233 349 q 264 190 233 235 q 365 144 294 144 q 463 192 433 144 q 492 349 492 240 l 492 972 m 197 1215 q 265 1159 221 1179 q 363 1139 310 1139 q 458 1160 418 1139 q 521 1215 497 1181 l 582 1172 q 543 1101 567 1131 q 490 1051 519 1071 q 427 1023 460 1032 q 361 1014 394 1014 q 298 1022 331 1014 q 234 1049 265 1031 q 176 1096 203 1067 q 133 1167 150 1125 l 197 1215 z "},"ŭ":{"ha":619,"x_min":54,"x_max":578,"o":"m 219 694 l 219 279 q 235 165 219 197 q 290 133 250 133 q 356 162 329 133 q 393 231 382 190 l 393 694 l 558 694 l 558 211 q 563 99 558 154 q 578 0 567 44 l 453 0 l 424 94 l 419 94 q 348 14 393 46 q 236 -18 303 -18 q 160 -6 193 -18 q 103 35 126 6 q 67 115 79 64 q 54 243 54 165 l 54 694 l 219 694 m 186 999 q 240 936 206 957 q 315 915 275 915 q 388 936 356 915 q 435 999 419 957 l 511 963 q 492 894 508 926 q 451 838 476 863 q 390 798 425 813 q 314 783 356 783 q 179 829 235 783 q 108 957 124 875 l 186 999 z "},"Ů":{"ha":715,"x_min":58,"x_max":657,"o":"m 492 972 l 657 972 l 657 342 q 580 68 657 153 q 367 -17 503 -17 q 133 66 207 -17 q 58 318 58 149 l 58 972 l 233 972 l 233 349 q 264 190 233 235 q 365 144 294 144 q 463 192 433 144 q 492 349 492 240 l 492 972 m 210 1072 q 217 1120 210 1097 q 242 1160 224 1143 q 289 1188 260 1178 q 364 1197 318 1197 q 484 1164 449 1197 q 519 1072 519 1131 q 512 1025 519 1047 q 486 987 504 1003 q 438 961 468 971 q 364 951 408 951 q 244 985 278 951 q 210 1072 210 1019 m 314 1072 q 364 1029 314 1029 q 404 1040 393 1029 q 415 1072 415 1050 q 403 1108 415 1096 q 364 1119 392 1119 q 314 1072 314 1119 z "},"ů":{"ha":619,"x_min":54,"x_max":578,"o":"m 219 694 l 219 279 q 235 165 219 197 q 290 133 250 133 q 356 162 329 133 q 393 231 382 190 l 393 694 l 558 694 l 558 211 q 563 99 558 154 q 578 0 567 44 l 453 0 l 424 94 l 419 94 q 348 14 393 46 q 236 -18 303 -18 q 160 -6 193 -18 q 103 35 126 6 q 67 115 79 64 q 54 243 54 165 l 54 694 l 219 694 m 169 899 q 203 996 169 961 q 304 1031 238 1031 q 404 998 368 1031 q 440 899 440 965 q 405 805 440 840 q 304 769 369 769 q 204 804 239 769 q 169 899 169 839 m 263 899 q 274 863 263 875 q 304 851 286 851 q 347 899 347 851 q 335 937 347 925 q 304 949 324 949 q 274 938 286 949 q 263 899 263 926 z "},"Ű":{"ha":715,"x_min":58,"x_max":658,"o":"m 492 972 l 657 972 l 657 342 q 580 68 657 153 q 367 -17 503 -17 q 133 66 207 -17 q 58 318 58 149 l 58 972 l 233 972 l 233 349 q 264 190 233 235 q 365 144 294 144 q 463 192 433 144 q 492 349 492 240 l 492 972 m 246 1181 l 413 1181 l 413 1158 l 299 1029 l 179 1029 l 246 1181 m 485 1181 l 658 1181 l 658 1158 l 494 1029 l 375 1029 l 485 1181 z "},"ű":{"ha":619,"x_min":54,"x_max":578,"o":"m 219 694 l 219 279 q 235 165 219 197 q 290 133 250 133 q 356 162 329 133 q 393 231 382 190 l 393 694 l 558 694 l 558 211 q 563 99 558 154 q 578 0 567 44 l 453 0 l 424 94 l 419 94 q 348 14 393 46 q 236 -18 303 -18 q 160 -6 193 -18 q 103 35 126 6 q 67 115 79 64 q 54 243 54 165 l 54 694 l 219 694 m 188 972 l 338 972 l 338 950 l 249 793 l 147 793 l 188 972 m 401 972 l 560 972 l 560 950 l 422 793 l 318 793 l 401 972 z "},"Ų":{"ha":715,"x_min":58,"x_max":657,"o":"m 492 972 l 657 972 l 657 342 q 579 68 657 153 q 503 11 547 32 q 444 -96 444 -33 q 451 -128 444 -112 q 470 -151 458 -143 q 499 -160 482 -160 q 539 -150 517 -161 l 564 -232 q 507 -264 546 -247 q 424 -281 468 -281 q 319 -242 354 -281 q 283 -149 283 -204 q 319 -46 283 -92 q 349 -17 333 -31 q 132 65 203 -12 q 58 318 58 149 l 58 972 l 233 972 l 233 349 q 264 190 233 235 q 365 144 294 144 q 463 192 433 144 q 492 349 492 240 l 492 972 z "},"ų":{"ha":619,"x_min":54,"x_max":611,"o":"m 219 694 l 219 279 q 235 165 219 197 q 290 133 250 133 q 356 162 329 133 q 393 231 382 190 l 393 694 l 558 694 l 558 211 q 563 99 558 154 q 578 0 567 44 l 556 0 q 486 -103 486 -29 q 493 -135 486 -121 q 513 -156 500 -149 q 545 -160 526 -162 q 586 -146 564 -158 l 611 -232 q 554 -265 593 -249 q 471 -282 515 -282 q 367 -247 403 -282 q 332 -154 332 -211 q 364 -57 332 -97 q 450 7 396 -17 l 424 94 l 419 94 q 348 14 393 46 q 236 -18 303 -18 q 160 -6 193 -18 q 103 35 126 6 q 67 115 79 64 q 54 243 54 165 l 54 694 l 219 694 z "},"Ÿ":{"ha":688,"x_min":-6,"x_max":693,"o":"m 256 361 l -6 972 l 203 972 l 338 604 l 351 499 l 358 499 l 374 607 l 506 972 l 693 972 l 431 363 l 431 0 l 256 0 l 256 361 m 129 1108 q 151 1167 129 1144 q 225 1189 172 1189 q 295 1167 274 1189 q 317 1108 317 1144 q 295 1051 317 1072 q 225 1029 274 1029 q 151 1051 172 1029 q 129 1108 129 1072 m 382 1108 q 403 1167 382 1144 q 475 1189 425 1189 q 548 1167 526 1189 q 569 1108 569 1144 q 548 1051 569 1072 q 475 1029 526 1029 q 403 1051 425 1029 q 382 1108 382 1072 z "},"Ź":{"ha":618,"x_min":29,"x_max":589,"o":"m 29 161 l 354 754 l 413 811 l 29 811 l 29 972 l 589 972 l 589 811 l 263 214 l 206 161 l 589 161 l 589 0 l 29 0 l 29 161 m 336 1208 l 535 1208 l 535 1167 l 351 1044 l 222 1044 l 336 1208 z "},"ź":{"ha":529,"x_min":33,"x_max":493,"o":"m 33 147 l 258 488 l 319 547 l 33 547 l 33 694 l 493 694 l 493 547 l 271 201 l 211 147 l 493 147 l 493 0 l 33 0 l 33 147 m 257 1000 l 422 1000 l 422 958 l 292 786 l 199 786 l 257 1000 z "},"Ż":{"ha":618,"x_min":29,"x_max":589,"o":"m 29 161 l 354 754 l 413 811 l 29 811 l 29 972 l 589 972 l 589 811 l 263 214 l 206 161 l 589 161 l 589 0 l 29 0 l 29 161 m 206 1110 q 233 1169 206 1144 q 313 1194 260 1194 q 394 1169 367 1194 q 422 1110 422 1144 q 394 1049 422 1074 q 313 1024 367 1024 q 233 1049 260 1024 q 206 1110 206 1074 z "},"ż":{"ha":529,"x_min":33,"x_max":493,"o":"m 33 147 l 258 488 l 319 547 l 33 547 l 33 694 l 493 694 l 493 547 l 271 201 l 211 147 l 493 147 l 493 0 l 33 0 l 33 147 m 164 890 q 190 959 164 932 q 265 986 217 986 q 343 960 314 986 q 372 890 372 933 q 343 822 372 847 q 265 797 314 797 q 190 823 217 797 q 164 890 164 849 z "},"Ž":{"ha":618,"x_min":29,"x_max":589,"o":"m 29 161 l 354 754 l 413 811 l 29 811 l 29 972 l 589 972 l 589 811 l 263 214 l 206 161 l 589 161 l 589 0 l 29 0 l 29 161 m 363 1024 l 242 1024 l 97 1154 l 97 1208 l 224 1208 l 282 1146 l 306 1104 l 329 1144 l 392 1208 l 514 1208 l 514 1153 l 363 1024 z "},"ž":{"ha":529,"x_min":33,"x_max":493,"o":"m 33 147 l 258 488 l 319 547 l 33 547 l 33 694 l 493 694 l 493 547 l 271 201 l 211 147 l 493 147 l 493 0 l 33 0 l 33 147 m 324 764 l 201 764 l 69 1017 l 206 1017 l 250 925 l 268 857 l 286 925 l 338 1017 l 464 1017 l 324 764 z "},"ſ":{"ha":304,"x_min":13,"x_max":433,"o":"m 13 694 l 88 694 l 88 733 q 136 924 88 865 q 271 983 185 983 q 364 975 326 983 q 433 951 401 967 l 400 819 q 357 833 375 829 q 317 836 339 836 q 264 804 275 836 q 253 697 253 772 l 253 0 l 88 0 l 88 547 l 13 547 l 13 694 z "},"ƒ":{"ha":664,"x_min":-69,"x_max":646,"o":"m 400 547 l 319 -47 q 299 -142 313 -99 q 263 -219 286 -186 q 204 -270 240 -251 q 115 -289 168 -289 q 70 -287 96 -289 q 18 -281 44 -285 q -32 -270 -8 -276 q -69 -257 -56 -264 l -39 -118 q 67 -142 10 -142 q 163 11 144 -142 l 229 547 l 143 547 l 143 694 l 253 694 l 265 788 q 284 877 272 839 q 318 941 296 915 q 374 979 340 967 q 460 992 408 992 q 503 989 478 992 q 554 981 528 986 q 605 969 581 976 q 646 953 629 961 l 606 822 q 500 844 556 844 q 450 820 465 844 q 428 740 435 796 l 422 694 l 560 694 l 560 547 l 400 547 z "},"Ǵ":{"ha":697,"x_min":40,"x_max":657,"o":"m 357 503 l 657 503 l 657 72 q 537 2 606 24 q 400 -19 468 -19 q 251 10 318 -19 q 138 101 185 39 q 66 258 92 163 q 40 486 40 353 q 71 721 40 625 q 152 877 101 817 q 270 965 203 938 q 413 992 338 992 q 534 980 479 992 q 625 953 589 968 l 589 801 q 524 822 561 814 q 435 831 488 831 q 347 811 386 831 q 280 750 307 792 q 238 642 253 708 q 224 485 224 576 q 277 225 224 308 q 418 142 331 142 q 472 150 446 142 q 517 176 497 158 l 517 375 l 357 397 l 357 503 m 442 1208 l 640 1208 l 640 1167 l 457 1044 l 328 1044 l 442 1208 z "},"ǵ":{"ha":615,"x_min":35,"x_max":557,"o":"m 557 0 q 488 -223 557 -151 q 294 -294 418 -294 q 160 -281 208 -294 q 85 -253 111 -268 l 119 -112 q 185 -136 150 -125 q 269 -147 221 -147 q 367 -109 340 -147 q 394 7 394 -71 l 394 44 l 390 44 q 338 3 371 17 q 254 -11 306 -11 q 90 72 144 -11 q 35 333 35 154 q 110 618 35 526 q 326 710 186 710 q 461 698 401 710 q 557 669 521 686 l 557 0 m 300 131 q 359 149 338 131 q 392 200 381 167 l 392 547 q 358 558 376 554 q 314 563 339 563 q 234 513 263 563 q 206 340 206 463 q 300 131 206 131 m 325 1000 l 490 1000 l 490 958 l 360 786 l 267 786 l 325 1000 z "},"Ș":{"ha":610,"x_min":26,"x_max":578,"o":"m 403 250 q 376 326 403 294 q 310 385 350 357 q 224 442 271 413 q 138 510 178 471 q 72 601 99 549 q 46 731 46 654 q 67 851 46 801 q 126 931 89 900 q 215 977 164 963 q 325 992 267 992 q 457 978 396 992 q 558 940 518 964 l 504 786 q 434 817 481 803 q 333 831 388 831 q 250 808 279 831 q 221 743 221 786 q 247 674 221 704 q 313 617 274 644 q 399 559 353 589 q 485 490 446 529 q 551 397 525 450 q 578 269 578 343 q 556 142 578 196 q 495 52 535 88 q 400 -1 456 17 q 276 -19 344 -19 q 126 -3 190 -19 q 26 35 61 14 l 83 192 q 160 158 111 175 q 264 142 208 142 q 403 250 403 142 m 207 -147 q 232 -83 207 -107 q 293 -58 257 -58 q 363 -89 336 -58 q 390 -182 390 -119 q 376 -262 390 -228 q 342 -321 363 -297 q 301 -359 322 -344 q 263 -379 279 -374 l 217 -315 q 251 -283 235 -304 q 271 -231 268 -261 q 228 -210 250 -229 q 207 -147 207 -190 z "},"ș":{"ha":486,"x_min":26,"x_max":458,"o":"m 293 185 q 274 234 293 214 q 226 272 256 254 q 165 307 197 289 q 103 351 132 325 q 55 415 74 378 q 36 510 36 453 q 89 660 36 607 q 244 713 142 713 q 360 699 306 713 q 446 667 414 686 l 407 539 q 343 560 381 550 q 269 571 306 571 q 201 514 201 571 q 220 470 201 488 q 268 436 239 453 q 330 401 297 419 q 392 356 363 383 q 440 290 421 329 q 458 194 458 251 q 400 40 458 99 q 226 -18 342 -18 q 115 -4 169 -18 q 26 32 60 10 l 72 165 q 140 136 101 149 q 219 124 178 124 q 272 138 251 124 q 293 185 293 153 m 151 -147 q 176 -83 151 -107 q 238 -58 201 -58 q 308 -89 281 -58 q 335 -182 335 -119 q 321 -262 335 -228 q 287 -321 307 -297 q 245 -359 267 -344 q 207 -379 224 -374 l 161 -315 q 196 -283 179 -304 q 215 -231 213 -261 q 173 -210 194 -229 q 151 -147 151 -190 z "},"Ț":{"ha":657,"x_min":11,"x_max":647,"o":"m 647 811 l 417 811 l 417 0 l 242 0 l 242 811 l 11 811 l 11 972 l 647 972 l 647 811 m 235 -147 q 260 -83 235 -107 q 321 -58 285 -58 q 391 -89 364 -58 q 418 -182 418 -119 q 404 -262 418 -228 q 370 -321 390 -297 q 328 -359 350 -344 q 290 -379 307 -374 l 244 -315 q 279 -283 263 -304 q 299 -231 296 -261 q 256 -210 278 -229 q 235 -147 235 -190 z "},"ț":{"ha":404,"x_min":6,"x_max":396,"o":"m 6 694 l 82 694 l 82 825 l 247 876 l 247 694 l 382 694 l 382 547 l 247 547 l 247 244 q 259 160 247 185 q 301 135 271 135 q 339 139 322 135 q 375 151 356 143 l 396 19 q 325 -6 365 4 q 240 -17 285 -17 q 122 29 161 -17 q 82 183 82 75 l 82 547 l 6 547 l 6 694 m 124 -147 q 149 -83 124 -107 q 210 -58 174 -58 q 280 -89 253 -58 q 307 -182 307 -119 q 293 -262 307 -228 q 259 -321 279 -297 q 217 -359 239 -344 q 179 -379 196 -374 l 133 -315 q 168 -283 151 -304 q 188 -231 185 -261 q 145 -210 167 -229 q 124 -147 124 -190 z "},"ȷ":{"ha":313,"x_min":-22,"x_max":240,"o":"m 75 694 l 240 694 l 240 -29 q 197 -222 240 -156 q 57 -289 153 -289 q -22 -279 18 -289 l -22 -132 q 56 -98 38 -137 q 75 19 75 -58 l 75 694 z "},"ʼ":{"ha":261,"x_min":40,"x_max":221,"o":"m 40 894 q 65 960 40 935 q 125 985 89 985 q 195 953 169 985 q 221 867 221 922 q 206 775 221 813 q 169 712 190 738 q 124 671 147 686 q 83 649 100 656 l 42 718 q 83 751 65 729 q 104 806 101 774 q 60 828 81 807 q 40 894 40 850 z "},"ˆ":{"ha":551,"x_min":83,"x_max":468,"o":"m 224 1017 l 342 1017 l 468 764 l 339 764 l 294 856 l 276 924 l 258 856 l 207 764 l 83 764 l 224 1017 z "},"ˇ":{"ha":561,"x_min":83,"x_max":478,"o":"m 338 764 l 215 764 l 83 1017 l 219 1017 l 264 925 l 282 857 l 300 925 l 351 1017 l 478 1017 l 338 764 z "},"˘":{"ha":569,"x_min":83,"x_max":486,"o":"m 161 999 q 215 936 181 957 q 290 915 250 915 q 363 936 331 915 q 410 999 394 957 l 486 963 q 467 894 483 926 q 426 838 451 863 q 365 798 400 813 q 289 783 331 783 q 154 829 210 783 q 83 957 99 875 l 161 999 z "},"˙":{"ha":375,"x_min":83,"x_max":292,"o":"m 83 890 q 110 959 83 932 q 185 986 136 986 q 263 960 233 986 q 292 890 292 933 q 263 822 292 847 q 185 797 233 797 q 110 823 136 797 q 83 890 83 849 z "},"˚":{"ha":438,"x_min":83,"x_max":354,"o":"m 83 899 q 117 996 83 961 q 218 1031 151 1031 q 318 998 282 1031 q 354 899 354 965 q 319 805 354 840 q 218 769 283 769 q 118 804 153 769 q 83 899 83 839 m 176 899 q 188 863 176 875 q 218 851 200 851 q 261 899 261 851 q 249 937 261 925 q 218 949 238 949 q 188 938 200 949 q 176 899 176 926 z "},"˛":{"ha":446,"x_min":83,"x_max":363,"o":"m 331 14 q 244 -96 244 -17 q 269 -148 244 -131 q 338 -144 293 -165 l 363 -225 q 340 -242 354 -233 q 308 -257 326 -250 q 269 -269 290 -264 q 226 -274 247 -274 q 119 -239 156 -274 q 83 -149 83 -204 q 118 -50 83 -90 q 207 14 153 -10 l 331 14 z "},"˜":{"ha":576,"x_min":83,"x_max":493,"o":"m 83 911 q 158 981 124 963 q 222 1000 193 1000 q 269 991 247 1000 q 311 970 290 982 q 353 949 332 958 q 394 940 374 940 q 426 947 410 940 q 463 972 443 954 l 493 888 q 423 826 456 843 q 363 810 390 810 q 316 818 338 810 q 274 837 294 826 q 232 856 253 847 q 190 865 211 865 q 154 858 172 865 q 117 831 136 850 l 83 911 z "},"˝":{"ha":579,"x_min":83,"x_max":496,"o":"m 124 972 l 274 972 l 274 950 l 185 793 l 83 793 l 124 972 m 338 972 l 496 972 l 496 950 l 358 793 l 254 793 l 338 972 z "},"́":{"ha":3,"x_min":-481,"x_max":-257,"o":"m -422 1000 l -257 1000 l -257 958 l -387 786 l -481 786 l -422 1000 z "},"Δ":{"ha":675,"x_min":14,"x_max":664,"o":"m 14 0 l 14 99 l 285 979 l 390 979 l 664 99 l 664 0 l 14 0 m 194 150 l 482 150 l 363 564 l 339 719 l 332 719 l 307 563 l 194 150 z "},"Ω":{"ha":879,"x_min":60,"x_max":819,"o":"m 60 147 l 176 147 l 274 131 l 274 163 l 219 178 q 108 312 154 217 q 61 551 61 407 q 88 741 61 658 q 165 879 115 824 q 285 963 215 935 q 439 992 354 992 q 598 961 528 992 q 717 873 668 931 q 792 733 767 815 q 818 546 818 650 q 806 415 818 474 q 772 310 793 356 q 722 231 750 264 q 663 179 693 199 l 606 163 l 606 131 l 703 147 l 819 147 l 819 0 l 472 0 l 472 261 q 528 289 500 268 q 581 345 557 310 q 619 430 604 381 q 635 544 635 479 q 624 654 635 601 q 591 747 614 707 q 531 811 568 788 q 439 835 493 835 q 295 763 346 835 q 244 540 244 692 q 258 428 244 478 q 295 344 272 379 q 347 288 318 308 q 406 261 376 267 l 406 0 l 60 0 l 60 147 z "},"π":{"ha":803,"x_min":15,"x_max":771,"o":"m 660 211 q 669 156 660 172 q 696 139 679 139 q 721 142 707 139 q 746 147 735 144 l 771 25 q 708 3 746 14 q 617 -8 671 -8 q 521 33 547 -8 q 494 147 494 75 l 494 547 l 350 547 l 350 0 l 185 0 l 185 547 l 169 547 q 100 496 124 547 l 15 578 q 85 665 39 636 q 194 694 132 694 l 754 694 l 754 547 l 660 547 l 660 211 z "},"Ё":{"ha":597,"x_min":63,"x_max":554,"o":"m 63 972 l 549 972 l 549 811 l 238 811 l 238 572 l 519 572 l 519 411 l 238 411 l 238 161 l 554 161 l 554 0 l 63 0 l 63 972 m 83 1108 q 105 1167 83 1144 q 179 1189 126 1189 q 249 1167 228 1189 q 271 1108 271 1144 q 249 1051 271 1072 q 179 1029 228 1029 q 105 1051 126 1029 q 83 1108 83 1072 m 336 1108 q 358 1167 336 1144 q 429 1189 379 1189 q 502 1167 481 1189 q 524 1108 524 1144 q 502 1051 524 1072 q 429 1029 481 1029 q 358 1051 379 1029 q 336 1108 336 1072 z "},"Ђ":{"ha":854,"x_min":11,"x_max":813,"o":"m 415 0 l 240 0 l 240 811 l 11 811 l 11 972 l 644 972 l 644 811 l 415 811 l 415 603 q 475 624 435 613 q 575 635 515 635 q 663 621 619 635 q 739 572 706 607 q 792 476 772 538 q 813 322 813 415 q 798 180 813 242 q 751 76 783 118 q 667 12 719 33 q 539 -10 615 -10 q 467 -4 482 -10 l 467 149 q 492 147 476 147 q 525 146 508 146 q 603 185 578 146 q 629 313 629 225 q 620 394 629 363 q 596 442 611 425 q 558 467 581 460 q 508 474 535 474 q 456 464 482 474 q 415 446 429 454 l 415 0 z "},"Ѓ":{"ha":529,"x_min":63,"x_max":539,"o":"m 539 811 l 238 811 l 238 0 l 63 0 l 63 972 l 539 972 l 539 811 m 329 1208 l 528 1208 l 528 1167 l 344 1044 l 215 1044 l 329 1208 z "},"Є":{"ha":660,"x_min":40,"x_max":619,"o":"m 619 39 q 576 13 601 24 q 520 -6 550 1 q 458 -16 490 -12 q 397 -19 426 -19 q 258 6 322 -19 q 144 92 193 32 q 68 249 96 151 q 40 488 40 346 q 72 732 40 635 q 153 887 103 829 q 269 968 204 944 q 401 992 335 992 q 523 981 469 992 q 608 956 576 969 l 574 801 q 509 823 547 815 q 422 831 471 831 q 288 768 339 831 q 225 572 238 706 l 535 572 l 535 428 l 224 428 q 243 311 228 364 q 284 221 258 258 q 347 163 310 183 q 435 142 385 142 q 520 155 483 142 q 585 186 557 168 l 619 39 z "},"Ѕ":{"ha":610,"x_min":26,"x_max":578,"o":"m 403 250 q 376 326 403 294 q 310 385 350 357 q 224 442 271 413 q 138 510 178 471 q 72 601 99 549 q 46 731 46 654 q 67 851 46 801 q 126 931 89 900 q 215 977 164 963 q 325 992 267 992 q 457 978 396 992 q 558 940 518 964 l 504 786 q 434 817 481 803 q 333 831 388 831 q 250 808 279 831 q 221 743 221 786 q 247 674 221 704 q 313 617 274 644 q 399 559 353 589 q 485 490 446 529 q 551 397 525 450 q 578 269 578 343 q 556 142 578 196 q 495 52 535 88 q 400 -1 456 17 q 276 -19 344 -19 q 126 -3 190 -19 q 26 35 61 14 l 83 192 q 160 158 111 175 q 264 142 208 142 q 403 250 403 142 z "},"І":{"ha":331,"x_min":78,"x_max":253,"o":"m 78 972 l 253 972 l 253 0 l 78 0 l 78 972 z "},"Ї":{"ha":340,"x_min":11,"x_max":329,"o":"m 11 1100 q 85 1189 11 1189 q 158 1100 158 1189 q 85 1014 158 1014 q 11 1100 11 1014 m 183 1100 q 256 1189 183 1189 q 329 1100 329 1189 q 256 1014 329 1014 q 183 1100 183 1014 m 82 972 l 257 972 l 257 0 l 82 0 l 82 972 z "},"Ј":{"ha":401,"x_min":-24,"x_max":332,"o":"m 157 972 l 332 972 l 332 265 q 322 149 332 201 q 288 60 311 97 q 225 3 264 24 q 128 -17 186 -17 q 48 -8 88 -17 q -24 15 8 0 l 17 163 q 85 144 46 144 q 145 185 133 144 q 157 303 157 226 l 157 972 z "},"Љ":{"ha":1076,"x_min":-17,"x_max":1051,"o":"m 479 811 l 332 811 q 306 370 322 547 q 242 100 289 193 q 203 45 225 67 q 160 12 182 24 q 117 -5 139 0 q 76 -10 94 -10 q 25 -5 47 -10 q -17 10 3 0 l 3 168 q 53 167 28 158 q 94 213 78 176 q 124 302 111 243 q 145 454 136 361 q 159 675 154 547 q 167 972 164 803 l 654 972 l 654 622 q 676 626 663 624 q 704 631 689 629 q 736 633 719 632 q 765 635 753 635 q 876 621 824 635 q 967 572 928 607 q 1028 477 1006 538 q 1051 324 1051 417 q 971 72 1051 157 q 717 -14 890 -14 q 673 -13 701 -14 q 611 -10 644 -12 q 543 -3 578 -8 q 479 8 508 1 l 479 811 m 654 156 q 687 149 667 151 q 726 147 707 147 q 830 185 792 147 q 868 315 868 222 q 857 395 868 364 q 827 444 846 426 q 783 467 808 461 q 726 474 757 474 q 687 469 711 474 q 654 461 663 465 l 654 156 z "},"Њ":{"ha":1100,"x_min":63,"x_max":1075,"o":"m 238 972 l 238 589 l 503 589 l 503 972 l 678 972 l 678 599 q 696 602 683 600 q 724 606 708 604 q 757 608 740 607 q 786 610 774 610 q 897 598 844 610 q 988 553 949 586 q 1051 463 1028 521 q 1075 313 1075 404 q 992 65 1075 144 q 740 -14 910 -14 q 697 -13 725 -14 q 634 -10 668 -12 q 565 -5 600 -8 q 503 4 531 -1 l 503 428 l 238 428 l 238 0 l 63 0 l 63 972 l 238 972 m 678 154 q 710 149 689 151 q 750 147 731 147 q 855 183 818 147 q 892 304 892 218 q 882 376 892 349 q 853 420 872 404 q 809 442 835 436 q 751 449 783 449 q 710 444 735 449 q 678 438 685 440 l 678 154 z "},"Ћ":{"ha":876,"x_min":11,"x_max":831,"o":"m 415 0 l 240 0 l 240 811 l 11 811 l 11 972 l 644 972 l 644 811 l 415 811 l 415 558 q 494 596 444 578 q 614 614 544 614 q 703 599 664 614 q 772 552 743 585 q 815 469 800 519 q 831 346 831 418 l 831 0 l 656 0 l 656 293 q 631 418 656 379 q 547 457 606 457 q 472 444 507 457 q 415 411 436 432 l 415 0 z "},"Ќ":{"ha":721,"x_min":63,"x_max":710,"o":"m 275 417 l 238 417 l 238 0 l 63 0 l 63 972 l 238 972 l 238 540 l 272 557 l 476 972 l 674 972 l 451 563 l 386 511 l 453 458 l 710 0 l 496 0 l 275 417 m 365 1208 l 564 1208 l 564 1167 l 381 1044 l 251 1044 l 365 1208 z "},"Ў":{"ha":660,"x_min":-14,"x_max":678,"o":"m 342 549 l 363 419 l 369 419 l 388 553 l 497 972 l 678 972 l 461 300 q 414 163 436 221 q 365 67 392 106 q 306 9 339 28 q 226 -10 274 -10 q 162 -3 189 -10 q 106 24 135 4 l 149 171 q 183 156 168 160 q 215 151 199 153 q 286 257 267 151 l -14 972 l 193 972 l 342 549 m 278 1214 q 356 1129 286 1129 q 433 1213 425 1129 l 575 1192 q 507 1061 564 1101 q 354 1021 450 1021 q 265 1029 306 1021 q 194 1057 225 1038 q 144 1108 164 1076 q 119 1189 125 1140 l 278 1214 z "},"Џ":{"ha":728,"x_min":63,"x_max":665,"o":"m 63 0 l 63 972 l 238 972 l 238 161 l 490 161 l 490 972 l 665 972 l 665 0 l 439 0 l 422 -243 l 308 -243 l 286 0 l 63 0 z "},"А":{"ha":696,"x_min":-4,"x_max":699,"o":"m 456 219 l 226 219 l 169 0 l -4 0 l 278 979 l 415 979 l 699 0 l 515 0 l 456 219 m 264 364 l 425 364 l 369 590 l 347 743 l 342 743 l 318 589 l 264 364 z "},"Б":{"ha":661,"x_min":63,"x_max":632,"o":"m 63 972 l 572 972 l 572 811 l 238 811 l 238 600 q 288 608 258 604 q 344 613 317 613 q 464 597 411 613 q 554 545 517 581 q 612 453 592 510 q 632 314 632 396 q 550 68 632 150 q 307 -14 468 -14 q 257 -12 288 -14 q 192 -9 226 -11 q 123 -3 157 -7 q 63 8 89 1 l 63 972 m 319 142 q 413 178 378 142 q 449 300 449 214 q 438 382 449 351 q 408 429 426 413 q 363 451 389 446 q 307 457 338 457 q 269 453 292 457 q 238 447 246 450 l 238 149 q 274 144 250 146 q 319 142 297 142 z "},"В":{"ha":681,"x_min":63,"x_max":642,"o":"m 618 747 q 610 676 618 711 q 586 609 603 640 q 542 554 569 578 q 478 518 515 531 l 478 510 q 541 485 511 501 q 593 440 571 468 q 628 370 615 411 q 642 274 642 329 q 616 144 642 199 q 547 54 590 89 q 444 3 503 19 q 321 -14 386 -14 q 271 -14 301 -14 q 205 -12 240 -14 q 132 -6 169 -10 q 63 7 94 -1 l 63 965 q 176 980 108 974 q 310 986 243 986 q 427 976 371 986 q 526 940 483 967 q 593 867 568 914 q 618 747 618 821 m 325 138 q 421 175 383 138 q 458 285 458 213 q 446 358 458 331 q 413 399 433 385 q 365 418 392 414 q 308 422 338 422 l 238 422 l 238 146 q 276 140 249 142 q 325 138 303 138 m 278 560 q 313 562 293 560 q 346 567 333 564 q 415 617 386 582 q 443 707 443 651 q 433 768 443 743 q 407 808 424 793 q 367 828 390 822 q 318 835 344 835 q 238 829 261 835 l 238 560 l 278 560 z "},"Г":{"ha":529,"x_min":63,"x_max":539,"o":"m 539 811 l 238 811 l 238 0 l 63 0 l 63 972 l 539 972 l 539 811 z "},"Д":{"ha":800,"x_min":0,"x_max":781,"o":"m 781 -174 l 657 -174 l 640 0 l 140 0 l 124 -174 l 0 -174 l 0 161 l 85 161 q 110 231 93 176 q 146 383 128 285 q 176 628 164 482 q 186 972 188 774 l 681 972 l 681 161 l 781 161 l 781 -174 m 506 161 l 506 811 l 351 811 q 319 399 344 565 q 267 161 293 232 l 506 161 z "},"Е":{"ha":597,"x_min":63,"x_max":554,"o":"m 63 972 l 549 972 l 549 811 l 238 811 l 238 572 l 519 572 l 519 411 l 238 411 l 238 161 l 554 161 l 554 0 l 63 0 l 63 972 z "},"Ж":{"ha":974,"x_min":-7,"x_max":981,"o":"m 399 972 l 564 972 l 564 538 l 604 557 l 750 972 l 946 972 l 772 544 l 717 499 l 785 442 l 981 0 l 769 0 l 607 424 l 564 424 l 564 0 l 399 0 l 399 440 l 360 421 l 196 0 l -7 0 l 188 428 l 251 481 l 189 531 l 8 972 l 211 972 l 356 554 l 399 554 l 399 972 z "},"З":{"ha":604,"x_min":17,"x_max":568,"o":"m 136 435 l 136 576 l 169 576 q 221 578 190 576 q 269 586 251 579 q 333 628 307 597 q 360 707 360 658 q 327 801 360 775 q 236 828 294 828 q 148 813 189 828 q 83 783 107 799 l 39 935 q 78 953 53 943 q 134 971 103 963 q 201 984 165 979 q 272 989 236 989 q 374 978 325 989 q 461 941 424 968 q 521 867 499 914 q 543 746 543 819 q 513 614 543 675 q 417 524 483 553 l 417 515 q 528 438 489 496 q 568 279 568 379 q 542 143 568 200 q 473 50 517 86 q 372 -3 429 14 q 254 -19 315 -19 q 117 -6 179 -19 q 17 29 54 7 l 63 185 q 135 156 89 169 q 244 142 182 142 q 343 178 301 142 q 385 294 385 215 q 347 397 385 363 q 213 433 308 431 q 192 434 197 433 q 168 435 186 435 l 136 435 z "},"И":{"ha":760,"x_min":63,"x_max":697,"o":"m 522 518 l 536 656 l 529 656 l 476 508 l 200 0 l 63 0 l 63 972 l 238 972 l 238 464 l 222 322 l 229 322 l 285 474 l 561 972 l 697 972 l 697 0 l 522 0 l 522 518 z "},"Й":{"ha":760,"x_min":63,"x_max":697,"o":"m 522 518 l 536 656 l 529 656 l 476 508 l 200 0 l 63 0 l 63 972 l 238 972 l 238 464 l 222 322 l 229 322 l 285 474 l 561 972 l 697 972 l 697 0 l 522 0 l 522 518 m 322 1214 q 400 1129 331 1129 q 478 1213 469 1129 l 619 1192 q 551 1061 608 1101 q 399 1021 494 1021 q 310 1029 350 1021 q 239 1057 269 1038 q 189 1108 208 1076 q 164 1189 169 1140 l 322 1214 z "},"К":{"ha":721,"x_min":63,"x_max":710,"o":"m 275 417 l 238 417 l 238 0 l 63 0 l 63 972 l 238 972 l 238 540 l 272 557 l 476 972 l 674 972 l 451 563 l 386 511 l 453 458 l 710 0 l 496 0 l 275 417 z "},"Л":{"ha":718,"x_min":-17,"x_max":654,"o":"m 479 811 l 332 811 q 306 370 322 547 q 242 100 289 193 q 203 45 225 67 q 160 12 182 24 q 117 -5 139 0 q 76 -10 94 -10 q 25 -5 47 -10 q -17 10 3 0 l 3 168 q 53 167 28 158 q 94 213 78 176 q 124 302 111 243 q 145 454 136 361 q 159 675 154 547 q 167 972 164 803 l 654 972 l 654 0 l 479 0 l 479 811 z "},"М":{"ha":922,"x_min":63,"x_max":860,"o":"m 685 501 l 704 688 l 697 688 l 646 521 l 488 179 l 429 179 l 261 522 l 210 690 l 201 690 l 228 503 l 228 0 l 63 0 l 63 972 l 231 972 l 433 551 l 467 431 l 472 431 l 504 554 l 694 972 l 860 972 l 860 0 l 685 0 l 685 501 z "},"Н":{"ha":740,"x_min":63,"x_max":678,"o":"m 503 411 l 238 411 l 238 0 l 63 0 l 63 972 l 238 972 l 238 572 l 503 572 l 503 972 l 678 972 l 678 0 l 503 0 l 503 411 z "},"О":{"ha":768,"x_min":40,"x_max":728,"o":"m 40 486 q 125 863 40 733 q 383 992 210 992 q 539 956 474 992 q 646 855 604 921 q 708 695 688 789 q 728 486 728 601 q 641 110 728 239 q 383 -19 554 -19 q 227 16 292 -19 q 121 117 163 51 q 60 277 79 183 q 40 486 40 371 m 224 486 q 232 349 224 413 q 260 240 240 286 q 309 168 279 194 q 383 142 339 142 q 504 224 464 142 q 544 486 544 306 q 536 620 544 557 q 509 730 528 683 q 460 803 490 776 q 383 831 429 831 q 224 486 224 831 z "},"П":{"ha":728,"x_min":63,"x_max":665,"o":"m 490 811 l 238 811 l 238 0 l 63 0 l 63 972 l 665 972 l 665 0 l 490 0 l 490 811 z "},"Р":{"ha":663,"x_min":63,"x_max":638,"o":"m 63 963 q 172 980 113 974 q 292 986 232 986 q 417 974 356 986 q 528 928 479 963 q 607 830 576 893 q 638 665 638 767 q 612 510 638 574 q 543 406 586 446 q 444 347 500 365 q 328 329 388 329 q 310 329 322 329 q 283 330 297 329 q 256 332 269 331 q 238 335 243 333 l 238 0 l 63 0 l 63 963 m 238 492 q 269 487 246 489 q 300 485 292 485 q 358 493 331 485 q 408 522 386 501 q 442 577 429 542 q 454 667 454 613 q 442 744 454 713 q 410 795 431 776 q 364 822 390 814 q 308 831 338 831 q 238 824 265 831 l 238 492 z "},"С":{"ha":635,"x_min":40,"x_max":614,"o":"m 614 39 q 517 -6 578 8 q 397 -19 457 -19 q 258 6 322 -19 q 144 92 193 32 q 68 249 96 151 q 40 488 40 346 q 72 732 40 635 q 153 887 103 829 q 269 968 204 944 q 401 992 335 992 q 520 981 469 992 q 603 956 571 969 l 568 801 q 506 823 542 815 q 422 831 471 831 q 275 747 326 831 q 224 486 224 664 q 235 347 224 410 q 273 238 247 283 q 338 167 299 192 q 433 142 378 142 q 517 155 482 142 q 579 186 551 168 l 614 39 z "},"Т":{"ha":658,"x_min":11,"x_max":647,"o":"m 647 811 l 417 811 l 417 0 l 242 0 l 242 811 l 11 811 l 11 972 l 647 972 l 647 811 z "},"У":{"ha":660,"x_min":-14,"x_max":678,"o":"m 342 549 l 363 419 l 369 419 l 388 553 l 497 972 l 678 972 l 461 300 q 414 163 436 221 q 365 67 392 106 q 306 9 339 28 q 226 -10 274 -10 q 162 -3 189 -10 q 106 24 135 4 l 149 171 q 183 156 168 160 q 215 151 199 153 q 286 257 267 151 l -14 972 l 193 972 l 342 549 z "},"Ф":{"ha":931,"x_min":26,"x_max":904,"o":"m 378 106 q 333 100 356 101 q 282 99 310 99 q 180 121 226 99 q 99 190 133 143 q 46 310 65 238 q 26 486 26 383 q 101 785 26 681 q 304 889 176 889 q 341 888 318 889 q 378 882 364 886 l 378 1000 l 553 1000 l 553 878 q 603 887 574 885 q 650 889 632 889 q 752 865 706 889 q 833 794 799 842 q 885 672 867 746 q 904 500 904 599 q 883 324 904 399 q 825 199 861 249 q 739 124 789 149 q 633 99 689 99 q 591 101 613 99 q 553 108 569 103 l 553 -28 l 378 -28 l 378 106 m 606 738 q 575 736 594 738 q 544 731 556 735 l 544 253 q 567 250 553 250 q 594 250 581 250 q 692 309 654 250 q 729 499 729 368 q 698 674 729 611 q 606 738 667 738 m 329 250 q 356 251 339 250 q 386 256 374 251 l 386 735 q 361 737 375 736 q 335 738 347 738 q 238 678 275 738 q 201 488 201 619 q 235 311 201 372 q 329 250 268 250 z "},"Х":{"ha":733,"x_min":8,"x_max":724,"o":"m 246 494 l 31 972 l 242 972 l 354 694 l 381 589 l 406 694 l 524 972 l 713 972 l 490 504 l 724 0 l 519 0 l 389 299 l 360 407 l 332 299 l 201 0 l 8 0 l 246 494 z "},"Ц":{"ha":782,"x_min":63,"x_max":764,"o":"m 764 -174 l 640 -174 l 622 0 l 63 0 l 63 972 l 238 972 l 238 161 l 488 161 l 488 972 l 663 972 l 663 161 l 764 161 l 764 -174 z "},"Ч":{"ha":699,"x_min":47,"x_max":636,"o":"m 222 972 l 222 653 q 247 530 222 567 q 329 493 272 493 q 405 506 369 493 q 461 542 440 518 l 461 972 l 636 972 l 636 0 l 461 0 l 461 392 q 384 355 433 372 q 268 338 335 338 q 182 351 222 338 q 112 394 142 364 q 65 473 82 424 q 47 596 47 522 l 47 972 l 222 972 z "},"Ш":{"ha":981,"x_min":63,"x_max":918,"o":"m 63 0 l 63 972 l 238 972 l 238 161 l 403 161 l 403 972 l 578 972 l 578 161 l 743 161 l 743 972 l 918 972 l 918 0 l 63 0 z "},"Щ":{"ha":1044,"x_min":63,"x_max":1026,"o":"m 63 0 l 63 972 l 238 972 l 238 161 l 404 161 l 404 972 l 579 972 l 579 161 l 746 161 l 746 972 l 921 972 l 921 161 l 1026 161 l 1026 -174 l 903 -174 l 885 0 l 63 0 z "},"Ъ":{"ha":772,"x_min":-6,"x_max":749,"o":"m 176 811 l -6 811 l -6 972 l 351 972 l 351 622 q 401 631 367 626 q 463 635 435 635 q 572 621 521 635 q 663 572 624 607 q 726 477 703 538 q 749 324 749 417 q 667 71 749 156 q 414 -14 586 -14 q 369 -13 397 -14 q 307 -10 340 -12 q 240 -3 274 -8 q 176 8 206 1 l 176 811 m 351 156 q 383 149 363 151 q 422 147 403 147 q 526 184 486 147 q 565 315 565 221 q 554 395 565 364 q 524 444 543 426 q 478 467 504 461 q 424 474 453 474 q 384 469 408 474 q 351 461 360 465 l 351 156 z "},"Ы":{"ha":928,"x_min":63,"x_max":865,"o":"m 690 972 l 865 972 l 865 0 l 690 0 l 690 972 m 63 972 l 238 972 l 238 624 q 279 631 250 626 q 336 635 308 635 q 445 622 394 635 q 533 574 496 608 q 593 478 571 539 q 615 325 615 418 q 538 70 615 154 q 288 -14 460 -14 q 244 -13 271 -14 q 187 -10 218 -12 q 123 -3 156 -8 q 63 8 90 1 l 63 972 m 238 156 q 265 149 249 151 q 300 147 282 147 q 397 185 363 147 q 432 317 432 224 q 422 394 432 364 q 396 443 413 425 q 355 467 379 461 q 301 474 331 474 q 267 469 288 474 q 238 461 246 465 l 238 156 z "},"Ь":{"ha":660,"x_min":63,"x_max":635,"o":"m 63 972 l 238 972 l 238 622 q 259 626 246 624 q 288 631 272 629 q 319 633 303 632 q 349 635 336 635 q 459 621 407 635 q 550 572 511 607 q 612 477 589 538 q 635 324 635 417 q 554 72 635 157 q 300 -14 474 -14 q 256 -13 285 -14 q 194 -10 228 -12 q 126 -3 161 -8 q 63 8 92 1 l 63 972 m 238 156 q 270 149 250 151 q 310 147 290 147 q 413 185 375 147 q 451 315 451 222 q 440 395 451 364 q 410 444 429 426 q 366 467 392 461 q 310 474 340 474 q 270 469 294 474 q 238 461 246 465 l 238 156 z "},"Э":{"ha":663,"x_min":19,"x_max":622,"o":"m 146 565 l 439 565 q 424 672 436 624 q 388 756 413 721 q 328 811 364 792 q 243 831 293 831 q 138 816 183 831 q 61 782 93 801 l 21 933 q 129 976 65 960 q 253 992 193 992 q 405 965 336 992 q 522 878 474 938 q 596 722 569 818 q 622 488 622 625 q 592 242 622 340 q 508 86 561 144 q 384 4 454 28 q 235 -19 314 -19 q 109 -6 167 -19 q 19 25 51 8 l 65 181 q 139 154 93 167 q 242 142 185 142 q 383 209 333 142 q 440 421 433 276 l 146 421 l 146 565 z "},"Ю":{"ha":1032,"x_min":63,"x_max":992,"o":"m 238 572 l 336 572 q 426 881 347 771 q 661 992 504 992 q 815 956 751 992 q 917 853 878 919 q 974 693 957 786 q 992 486 992 600 q 911 112 992 243 q 660 -19 831 -19 q 522 10 581 -19 q 424 97 464 40 q 363 233 385 153 q 336 411 342 313 l 238 411 l 238 0 l 63 0 l 63 972 l 238 972 l 238 572 m 511 486 q 518 348 511 411 q 542 239 525 285 q 588 167 560 193 q 660 142 617 142 q 774 223 740 142 q 808 486 808 304 q 802 622 808 558 q 779 731 796 685 q 734 804 763 778 q 660 831 706 831 q 546 747 581 831 q 511 486 511 663 z "},"Я":{"ha":675,"x_min":7,"x_max":613,"o":"m 613 0 l 438 0 l 438 388 l 363 361 l 208 0 l 7 0 l 165 331 l 235 386 q 113 477 161 407 q 64 674 64 547 q 89 822 64 763 q 160 918 114 882 q 269 970 206 954 q 410 986 333 986 q 455 985 428 986 q 510 981 482 983 q 565 973 538 978 q 613 963 592 968 l 613 0 m 438 818 q 413 824 425 822 q 382 825 400 825 q 329 817 354 825 q 286 791 304 810 q 258 742 268 772 q 247 665 247 711 q 285 540 247 578 q 385 501 324 501 l 438 501 l 438 818 z "},"а":{"ha":574,"x_min":24,"x_max":531,"o":"m 61 653 q 165 693 103 678 q 307 708 228 708 q 472 647 425 708 q 518 474 518 586 q 515 345 518 408 q 510 222 511 282 q 512 105 508 161 q 531 -1 515 49 l 396 -1 l 369 83 l 364 83 q 301 17 342 43 q 200 -10 261 -10 q 71 45 118 -10 q 24 192 24 100 q 113 369 24 317 q 353 414 201 422 q 342 531 360 494 q 268 567 325 567 q 182 557 226 567 q 103 529 138 547 l 61 653 m 260 132 q 321 151 297 132 q 356 192 344 169 l 356 307 q 294 308 324 311 q 243 296 265 306 q 208 267 221 286 q 194 219 194 249 q 212 154 194 176 q 260 132 229 132 z "},"б":{"ha":618,"x_min":35,"x_max":583,"o":"m 171 569 q 248 656 203 629 q 356 682 293 682 q 521 606 458 682 q 583 363 583 531 q 513 74 583 168 q 313 -19 443 -19 q 194 6 246 -19 q 106 83 142 31 q 53 220 71 136 q 35 421 35 304 q 47 625 35 540 q 80 768 58 710 q 131 861 101 826 q 197 916 161 896 q 275 944 233 936 q 363 958 317 953 q 468 976 422 965 q 535 1010 514 986 l 538 854 q 472 820 515 831 q 357 804 428 810 q 281 788 314 800 q 226 751 249 776 q 188 681 203 725 q 167 569 174 638 l 171 569 m 206 339 q 231 183 206 239 q 308 128 256 128 q 388 178 364 128 q 413 339 413 228 q 390 485 413 435 q 315 535 368 535 q 232 485 258 535 q 206 339 206 435 z "},"в":{"ha":581,"x_min":60,"x_max":546,"o":"m 60 693 q 159 701 99 697 q 285 704 219 704 q 469 661 415 704 q 524 531 524 618 q 500 435 524 481 q 428 369 476 390 l 428 364 q 546 197 546 332 q 479 42 546 93 q 263 -10 413 -10 q 156 -7 214 -10 q 60 1 99 -4 l 60 693 m 221 133 q 247 130 235 131 q 278 129 260 129 q 356 151 332 129 q 381 218 381 172 q 360 278 381 256 q 289 301 339 301 l 221 301 l 221 133 m 289 411 q 344 432 322 411 q 365 488 365 453 q 348 547 365 528 q 283 565 331 565 q 246 565 260 565 q 221 563 232 564 l 221 411 l 289 411 z "},"г":{"ha":429,"x_min":60,"x_max":436,"o":"m 436 543 l 225 543 l 225 0 l 60 0 l 60 694 l 436 694 l 436 543 z "},"д":{"ha":661,"x_min":-3,"x_max":647,"o":"m 647 -158 l 525 -158 l 507 0 l 136 0 l 118 -158 l -3 -158 l -3 151 l 64 151 q 86 205 72 167 q 113 308 100 243 q 136 469 126 374 q 146 694 146 565 l 564 694 l 564 151 l 647 151 l 647 -158 m 399 143 l 399 547 l 293 547 q 285 439 290 497 q 272 326 281 381 q 253 222 264 271 q 229 143 243 174 l 399 143 z "},"е":{"ha":594,"x_min":35,"x_max":549,"o":"m 529 51 q 435 1 494 21 q 310 -18 375 -18 q 185 7 238 -18 q 100 79 133 32 q 51 194 67 126 q 35 347 35 261 q 109 624 35 535 q 315 714 183 714 q 401 701 360 714 q 476 656 443 688 q 528 573 508 625 q 549 442 549 521 q 545 376 549 411 q 535 301 542 342 l 197 301 q 233 169 200 215 q 340 124 267 124 q 422 138 385 124 q 478 167 458 151 l 529 51 m 313 572 q 233 530 260 572 q 203 411 207 488 l 394 411 q 378 531 399 490 q 313 572 357 572 z "},"ж":{"ha":808,"x_min":-6,"x_max":814,"o":"m 279 282 l 178 0 l -6 0 l 133 318 l 174 360 l 115 413 l 7 694 l 182 694 l 275 413 l 322 413 l 322 694 l 479 694 l 479 399 l 521 418 l 614 694 l 789 694 l 674 413 l 628 368 l 686 313 l 814 0 l 626 0 l 525 288 l 479 288 l 479 0 l 322 0 l 322 301 l 279 282 z "},"з":{"ha":492,"x_min":19,"x_max":457,"o":"m 118 289 l 118 413 l 185 413 q 246 435 222 413 q 269 489 269 457 q 183 558 269 558 q 110 547 142 558 q 58 524 78 536 l 21 656 q 115 691 57 676 q 236 706 174 706 q 435 533 435 706 q 413 437 435 482 q 346 372 390 392 l 346 367 q 431 308 404 350 q 457 196 457 267 q 442 113 457 151 q 397 47 428 75 q 320 3 367 19 q 210 -14 274 -14 q 99 -1 147 -14 q 19 32 51 13 l 53 167 q 115 142 79 151 q 190 133 150 133 q 292 215 292 133 q 266 269 292 250 q 171 289 240 289 l 118 289 z "},"и":{"ha":625,"x_min":60,"x_max":565,"o":"m 400 303 l 413 415 l 408 415 l 357 297 l 171 0 l 60 0 l 60 694 l 225 694 l 225 379 l 213 271 l 217 271 l 267 386 l 454 694 l 565 694 l 565 0 l 400 0 l 400 303 z "},"й":{"ha":625,"x_min":60,"x_max":565,"o":"m 400 303 l 413 415 l 408 415 l 357 297 l 171 0 l 60 0 l 60 694 l 225 694 l 225 379 l 213 271 l 217 271 l 267 386 l 454 694 l 565 694 l 565 0 l 400 0 l 400 303 m 258 978 q 281 901 263 925 q 326 878 299 878 q 373 901 356 878 q 397 976 390 924 l 522 946 q 452 808 507 851 q 322 764 397 764 q 251 774 286 764 q 189 805 217 783 q 142 861 161 826 q 118 947 124 896 l 258 978 z "},"к":{"ha":568,"x_min":60,"x_max":572,"o":"m 263 288 l 225 288 l 225 0 l 60 0 l 60 694 l 225 694 l 225 399 l 258 418 l 375 694 l 553 694 l 426 428 l 365 374 l 432 319 l 572 0 l 386 0 l 263 288 z "},"л":{"ha":601,"x_min":-21,"x_max":542,"o":"m 376 543 l 276 543 q 261 321 271 422 q 231 147 251 219 q 174 33 210 74 q 82 -8 139 -8 q 22 -3 47 -8 q -21 13 -3 1 l -1 157 q 55 158 32 146 q 93 227 78 171 q 117 394 108 283 q 131 694 126 506 l 542 694 l 542 0 l 376 0 l 376 543 z "},"м":{"ha":771,"x_min":60,"x_max":711,"o":"m 554 319 l 564 463 l 557 463 l 515 333 l 414 125 l 351 125 l 240 333 l 197 463 l 189 463 l 207 319 l 207 0 l 60 0 l 60 694 l 233 694 l 360 439 l 388 346 l 393 346 l 422 442 l 539 694 l 711 694 l 711 0 l 554 0 l 554 319 z "},"н":{"ha":617,"x_min":60,"x_max":557,"o":"m 392 276 l 225 276 l 225 0 l 60 0 l 60 694 l 225 694 l 225 428 l 392 428 l 392 694 l 557 694 l 557 0 l 392 0 l 392 276 z "},"о":{"ha":618,"x_min":35,"x_max":583,"o":"m 35 347 q 107 622 35 532 q 308 713 179 713 q 515 621 447 713 q 583 347 583 529 q 511 72 583 161 q 308 -18 439 -18 q 35 347 35 -18 m 206 347 q 229 186 206 243 q 308 129 253 129 q 387 178 361 129 q 413 347 413 228 q 389 510 413 454 q 308 565 365 565 q 233 516 260 565 q 206 347 206 467 z "},"п":{"ha":611,"x_min":60,"x_max":551,"o":"m 386 543 l 225 543 l 225 0 l 60 0 l 60 694 l 551 694 l 551 0 l 386 0 l 386 543 z "},"р":{"ha":621,"x_min":60,"x_max":586,"o":"m 60 694 l 183 694 l 200 615 l 204 615 q 276 688 236 665 q 374 711 315 711 q 533 631 479 711 q 586 365 586 551 q 519 80 586 179 q 326 -19 453 -19 q 269 -14 293 -19 q 225 4 246 -8 l 225 -278 l 60 -278 l 60 694 m 225 156 q 256 135 239 142 q 301 128 274 128 q 386 183 357 128 q 415 369 415 238 q 393 516 415 468 q 319 564 371 564 q 225 482 250 564 l 225 156 z "},"с":{"ha":486,"x_min":35,"x_max":469,"o":"m 469 38 q 386 -4 435 10 q 289 -18 338 -18 q 170 8 218 -18 q 92 81 122 33 q 48 197 61 129 q 35 347 35 264 q 100 621 35 529 q 292 713 165 713 q 394 701 354 713 q 464 674 433 690 l 425 536 q 377 555 400 549 q 322 561 354 561 q 235 510 264 561 q 206 347 206 460 q 235 193 206 253 q 331 133 265 133 q 390 142 365 133 q 435 165 414 151 l 469 38 z "},"т":{"ha":479,"x_min":1,"x_max":478,"o":"m 478 543 l 325 543 l 325 0 l 160 0 l 160 543 l 1 543 l 1 694 l 478 694 l 478 543 z "},"у":{"ha":556,"x_min":-14,"x_max":569,"o":"m 282 304 l 300 196 l 307 196 l 319 306 l 400 694 l 569 694 l 396 68 q 351 -79 372 -14 q 307 -190 331 -144 q 253 -260 283 -236 q 182 -285 224 -285 q 126 -280 153 -285 q 79 -264 99 -275 l 107 -122 q 144 -128 125 -129 q 178 -115 163 -128 q 207 -74 194 -101 q 228 0 219 -46 l -14 694 l 185 694 l 282 304 z "},"ф":{"ha":813,"x_min":29,"x_max":783,"o":"m 324 -8 q 283 -18 304 -17 q 244 -19 261 -19 q 85 69 140 -19 q 29 347 29 158 q 90 619 29 529 q 268 708 151 708 q 297 707 283 708 q 324 703 311 706 l 324 972 l 489 972 l 489 701 q 525 707 510 706 q 556 708 540 708 q 655 690 613 708 q 726 629 697 671 q 769 522 754 588 q 783 361 783 456 q 724 80 783 179 q 551 -19 664 -19 q 520 -17 540 -19 q 489 -10 500 -15 l 489 -278 l 324 -278 l 324 -8 m 518 569 q 499 567 507 569 q 481 563 492 565 l 481 124 q 524 119 497 119 q 565 131 547 119 q 595 172 583 143 q 613 246 607 200 q 618 361 618 292 q 613 460 618 419 q 594 524 607 500 q 563 559 582 549 q 518 569 544 569 m 289 119 q 310 122 300 119 q 331 126 319 124 l 331 564 q 292 569 313 569 q 250 559 268 569 q 219 523 232 549 q 201 454 207 497 q 194 347 194 411 q 217 174 194 229 q 289 119 240 119 z "},"х":{"ha":610,"x_min":6,"x_max":603,"o":"m 185 356 l 19 694 l 214 694 l 285 531 l 311 442 l 340 531 l 413 694 l 592 694 l 425 361 l 603 0 l 415 0 l 331 181 l 300 279 l 268 181 l 183 0 l 6 0 l 185 356 z "},"ц":{"ha":644,"x_min":60,"x_max":631,"o":"m 631 -158 l 510 -158 l 492 0 l 60 0 l 60 694 l 225 694 l 225 151 l 382 151 l 382 694 l 547 694 l 547 151 l 631 151 l 631 -158 z "},"ч":{"ha":582,"x_min":33,"x_max":522,"o":"m 199 694 l 199 508 q 212 402 199 435 q 269 369 225 369 q 322 378 300 369 q 357 399 343 388 l 357 694 l 522 694 l 522 0 l 357 0 l 357 269 q 306 239 340 256 q 213 222 271 222 q 138 233 171 222 q 81 269 104 243 q 46 339 58 296 q 33 447 33 382 l 33 694 l 199 694 z "},"ш":{"ha":871,"x_min":60,"x_max":811,"o":"m 60 0 l 60 694 l 225 694 l 225 151 l 353 151 l 353 694 l 518 694 l 518 151 l 646 151 l 646 694 l 811 694 l 811 0 l 60 0 z "},"щ":{"ha":907,"x_min":60,"x_max":893,"o":"m 893 -158 l 771 -158 l 754 0 l 60 0 l 60 694 l 225 694 l 225 151 l 353 151 l 353 694 l 518 694 l 518 151 l 646 151 l 646 694 l 811 694 l 811 151 l 893 151 l 893 -158 z "},"ъ":{"ha":631,"x_min":-7,"x_max":608,"o":"m 283 146 q 343 138 313 138 q 415 160 393 138 q 438 235 438 182 q 346 332 438 332 q 283 324 313 332 l 283 146 m 283 447 q 339 455 311 453 q 390 457 367 457 q 490 441 449 457 q 558 397 532 425 q 597 328 585 368 q 608 242 608 289 q 594 132 608 179 q 546 53 579 85 q 458 6 513 22 q 322 -10 403 -10 q 208 -7 257 -10 q 118 0 158 -4 l 118 543 l -7 543 l -7 694 l 283 694 l 283 447 z "},"ы":{"ha":821,"x_min":60,"x_max":763,"o":"m 225 146 q 285 138 254 138 q 348 160 329 138 q 367 236 367 183 q 349 308 367 285 q 286 332 331 332 q 225 324 254 332 l 225 146 m 225 447 q 282 455 253 453 q 335 457 311 457 q 431 441 392 457 q 493 396 469 425 q 527 327 517 367 q 538 242 538 288 q 524 132 538 179 q 478 53 510 85 q 394 6 446 22 q 267 -10 343 -10 q 149 -7 200 -10 q 60 0 99 -4 l 60 694 l 225 694 l 225 447 m 597 694 l 763 694 l 763 0 l 597 0 l 597 694 z "},"ь":{"ha":571,"x_min":60,"x_max":549,"o":"m 225 146 q 286 138 254 138 q 356 160 335 138 q 378 235 378 182 q 357 307 378 282 q 289 332 336 332 q 225 322 253 332 l 225 146 m 225 447 q 282 455 253 453 q 335 457 311 457 q 434 441 393 457 q 501 396 475 425 q 538 327 526 367 q 549 242 549 288 q 534 132 549 179 q 488 53 519 85 q 403 6 456 22 q 274 -10 350 -10 q 150 -7 201 -10 q 60 0 99 -4 l 60 694 l 225 694 l 225 447 z "},"э":{"ha":524,"x_min":21,"x_max":489,"o":"m 118 414 l 318 414 q 287 528 314 489 q 199 567 260 567 q 124 558 156 567 q 68 533 92 549 l 24 658 q 231 714 99 714 q 424 624 358 714 q 489 347 489 533 q 417 72 489 161 q 215 -18 346 -18 q 109 -8 164 -18 q 21 22 54 3 l 60 160 q 190 129 117 129 q 287 167 258 129 q 318 289 315 206 l 118 289 l 118 414 z "},"ю":{"ha":849,"x_min":60,"x_max":814,"o":"m 556 -17 q 370 61 426 -17 q 304 283 314 139 l 225 283 l 225 0 l 60 0 l 60 694 l 225 694 l 225 431 l 306 431 q 377 640 318 569 q 558 711 436 711 q 753 616 692 711 q 814 347 814 521 q 556 -17 814 -17 m 461 347 q 482 185 461 240 q 556 131 503 131 q 594 140 578 131 q 622 175 611 150 q 638 242 633 200 q 643 347 643 283 q 624 513 643 461 q 553 564 604 564 q 483 516 506 564 q 461 347 461 468 z "},"я":{"ha":585,"x_min":10,"x_max":529,"o":"m 364 263 l 301 246 l 203 0 l 10 0 l 115 224 l 169 268 q 79 335 114 282 q 44 468 44 388 q 114 654 44 594 q 335 713 183 714 q 444 707 393 713 q 529 693 494 701 l 529 0 l 364 0 l 364 263 m 364 356 l 364 556 q 313 565 343 565 q 215 458 215 565 q 325 353 215 356 l 364 356 z "},"ё":{"ha":594,"x_min":35,"x_max":549,"o":"m 529 51 q 435 1 494 21 q 310 -18 375 -18 q 185 7 238 -18 q 100 79 133 32 q 51 194 67 126 q 35 347 35 261 q 109 624 35 535 q 315 714 183 714 q 401 701 360 714 q 476 656 443 688 q 528 573 508 625 q 549 442 549 521 q 545 376 549 411 q 535 301 542 342 l 197 301 q 233 169 200 215 q 340 124 267 124 q 422 138 385 124 q 478 167 458 151 l 529 51 m 313 572 q 233 530 260 572 q 203 411 207 488 l 394 411 q 378 531 399 490 q 313 572 357 572 m 89 878 q 113 947 89 922 q 178 972 138 972 q 240 947 217 972 q 264 878 264 922 q 240 812 264 836 q 178 788 217 788 q 113 812 138 788 q 89 878 89 836 m 347 878 q 371 947 347 922 q 435 972 394 972 q 499 947 475 972 q 522 878 522 922 q 499 812 522 836 q 435 788 475 788 q 371 812 394 788 q 347 878 347 836 z "},"ђ":{"ha":635,"x_min":-11,"x_max":581,"o":"m 71 972 l 236 972 l 236 833 l 421 833 l 421 724 l 236 724 l 236 551 l 242 551 q 307 615 267 592 q 410 639 347 639 q 483 626 451 639 q 537 585 515 614 q 569 510 558 557 q 581 393 581 463 l 581 -43 q 538 -223 581 -160 q 399 -286 494 -286 q 360 -284 381 -286 q 318 -276 340 -282 l 318 -135 q 397 -103 378 -140 q 415 4 415 -67 l 415 351 q 398 458 415 428 q 336 488 381 488 q 275 466 303 488 q 236 410 247 444 l 236 0 l 71 0 l 71 724 l -11 724 l -11 833 l 71 833 l 71 972 z "},"ѓ":{"ha":429,"x_min":60,"x_max":436,"o":"m 436 543 l 225 543 l 225 0 l 60 0 l 60 694 l 436 694 l 436 543 m 239 1000 l 404 1000 l 404 958 l 274 786 l 181 786 l 239 1000 z "},"є":{"ha":515,"x_min":38,"x_max":494,"o":"m 494 35 q 410 -3 463 10 q 307 -17 357 -17 q 187 9 238 -17 q 103 83 136 35 q 53 198 69 131 q 38 347 38 265 q 112 617 38 524 q 314 711 186 711 q 417 701 376 711 q 489 675 458 692 l 449 535 q 396 554 422 549 q 339 560 369 560 q 256 524 290 560 q 210 411 221 489 l 419 411 l 419 292 l 208 292 q 251 178 217 221 q 347 135 285 135 q 410 143 382 135 q 460 165 438 151 l 494 35 z "},"ѕ":{"ha":486,"x_min":26,"x_max":458,"o":"m 293 185 q 274 234 293 214 q 226 272 256 254 q 165 307 197 289 q 103 351 132 325 q 55 415 74 378 q 36 510 36 453 q 89 660 36 607 q 244 713 142 713 q 360 699 306 713 q 446 667 414 686 l 407 539 q 343 560 381 550 q 269 571 306 571 q 201 514 201 571 q 220 470 201 488 q 268 436 239 453 q 330 401 297 419 q 392 356 363 383 q 440 290 421 329 q 458 194 458 251 q 400 40 458 99 q 226 -18 342 -18 q 115 -4 169 -18 q 26 32 60 10 l 72 165 q 140 136 101 149 q 219 124 178 124 q 272 138 251 124 q 293 185 293 153 z "},"і":{"ha":313,"x_min":53,"x_max":261,"o":"m 74 694 l 239 694 l 239 0 l 74 0 l 74 694 m 53 890 q 79 959 53 932 q 154 986 106 986 q 232 960 203 986 q 261 890 261 933 q 232 822 261 847 q 154 797 203 797 q 79 823 106 797 q 53 890 53 849 z "},"ї":{"ha":381,"x_min":22,"x_max":360,"o":"m 22 890 q 41 960 22 935 q 100 985 60 985 q 158 960 140 985 q 176 890 176 935 q 158 824 176 850 q 100 799 140 799 q 41 824 60 799 q 22 890 22 850 m 204 890 q 222 960 204 935 q 281 985 240 985 q 341 960 322 985 q 360 890 360 935 q 341 824 360 850 q 281 799 322 799 q 222 824 240 799 q 204 890 204 850 m 104 694 l 269 694 l 269 0 l 104 0 l 104 694 z "},"ј":{"ha":313,"x_min":-22,"x_max":261,"o":"m 75 694 l 240 694 l 240 -29 q 197 -222 240 -156 q 57 -289 153 -289 q -22 -279 18 -289 l -22 -132 q 56 -98 38 -137 q 75 19 75 -58 l 75 694 m 53 890 q 79 959 53 932 q 154 986 106 986 q 232 960 203 986 q 261 890 261 933 q 232 822 261 847 q 154 797 203 797 q 79 823 106 797 q 53 890 53 849 z "},"љ":{"ha":888,"x_min":-21,"x_max":865,"o":"m 542 694 l 542 447 q 599 455 569 453 q 651 457 628 457 q 751 441 710 457 q 817 396 792 425 q 854 327 843 367 q 865 242 865 288 q 851 132 865 179 q 804 53 836 85 q 719 6 772 22 q 590 -10 667 -10 q 467 -7 518 -10 q 376 0 415 -4 l 376 543 l 278 543 q 263 321 272 422 q 231 147 253 219 q 174 33 210 74 q 82 -8 139 -8 q 22 -3 47 -8 q -21 13 -3 1 l -1 157 q 55 158 32 146 q 93 227 78 171 q 117 394 108 283 q 131 694 126 506 l 542 694 m 542 146 q 603 138 571 138 q 673 160 651 138 q 694 235 694 182 q 674 307 694 282 q 606 332 653 332 q 542 322 569 332 l 542 146 z "},"њ":{"ha":904,"x_min":60,"x_max":882,"o":"m 557 146 q 618 138 586 138 q 689 160 667 138 q 711 236 711 183 q 690 306 711 285 q 621 326 668 326 q 557 318 586 326 l 557 146 m 557 444 q 614 451 585 449 q 667 453 643 453 q 766 437 725 453 q 833 393 807 421 q 870 326 858 365 q 882 242 882 288 q 867 132 882 179 q 820 53 853 85 q 735 6 788 22 q 606 -10 682 -10 q 482 -7 533 -10 q 392 0 431 -4 l 392 282 l 225 282 l 225 0 l 60 0 l 60 694 l 225 694 l 225 433 l 392 433 l 392 694 l 557 694 l 557 444 z "},"ћ":{"ha":635,"x_min":-11,"x_max":581,"o":"m -11 833 l 71 833 l 71 972 l 236 972 l 236 833 l 421 833 l 421 724 l 236 724 l 236 554 l 242 554 q 307 615 267 592 q 410 639 347 639 q 483 626 451 639 q 537 585 515 614 q 569 508 558 556 q 581 392 581 461 l 581 0 l 415 0 l 415 354 q 398 456 415 425 q 336 488 381 488 q 275 465 303 488 q 236 407 247 443 l 236 0 l 71 0 l 71 724 l -11 724 l -11 833 z "},"ќ":{"ha":568,"x_min":60,"x_max":572,"o":"m 263 288 l 225 288 l 225 0 l 60 0 l 60 694 l 225 694 l 225 399 l 258 418 l 375 694 l 553 694 l 426 428 l 365 374 l 432 319 l 572 0 l 386 0 l 263 288 m 279 1000 l 444 1000 l 444 958 l 314 786 l 221 786 l 279 1000 z "},"ў":{"ha":556,"x_min":-14,"x_max":569,"o":"m 282 304 l 300 196 l 307 196 l 319 306 l 400 694 l 569 694 l 396 68 q 351 -79 372 -14 q 307 -190 331 -144 q 253 -260 283 -236 q 182 -285 224 -285 q 126 -280 153 -285 q 79 -264 99 -275 l 107 -122 q 144 -128 125 -129 q 178 -115 163 -128 q 207 -74 194 -101 q 228 0 219 -46 l -14 694 l 185 694 l 282 304 m 226 978 q 249 901 231 925 q 294 878 267 878 q 341 901 324 878 q 365 976 358 924 l 490 946 q 420 808 475 851 q 290 764 365 764 q 219 774 254 764 q 157 805 185 783 q 110 861 129 826 q 86 947 92 896 l 226 978 z "},"џ":{"ha":608,"x_min":60,"x_max":550,"o":"m 60 0 l 60 694 l 225 694 l 225 151 l 385 151 l 385 694 l 550 694 l 550 0 l 381 0 l 364 -243 l 250 -243 l 228 0 l 60 0 z "},"Ѣ":{"ha":757,"x_min":0,"x_max":732,"o":"m 0 896 l 160 896 l 160 1007 l 335 1007 l 335 896 l 561 896 l 561 744 l 335 744 l 335 613 q 353 616 340 614 q 382 619 367 618 q 413 622 397 621 q 443 624 429 624 q 554 610 501 624 q 647 564 607 597 q 709 472 686 531 q 732 322 732 414 q 651 71 732 156 q 397 -14 571 -14 q 353 -13 382 -14 q 292 -10 325 -12 q 224 -3 258 -8 q 160 8 189 1 l 160 744 l 0 744 l 0 896 m 335 156 q 367 149 347 151 q 407 147 388 147 q 510 185 471 147 q 549 315 549 222 q 538 394 549 364 q 508 442 526 425 q 463 466 489 460 q 408 472 438 472 q 369 469 393 472 q 335 461 344 465 l 335 156 z "},"ѣ":{"ha":631,"x_min":-7,"x_max":608,"o":"m -7 694 l 118 694 l 118 972 l 283 972 l 283 694 l 467 694 l 467 568 l 283 568 l 283 447 q 340 455 311 453 q 393 457 369 457 q 492 441 451 457 q 559 396 533 425 q 597 327 585 367 q 608 242 608 288 q 594 132 608 179 q 546 53 579 85 q 458 6 513 22 q 324 -10 403 -10 q 208 -7 257 -10 q 118 0 158 -4 l 118 568 l -7 568 l -7 694 m 283 146 q 343 138 313 138 q 415 163 393 138 q 438 238 438 188 q 416 306 438 282 q 347 331 394 331 q 283 322 313 331 l 283 146 z "},"Ѳ":{"ha":767,"x_min":40,"x_max":726,"o":"m 40 486 q 125 863 40 733 q 383 992 210 992 q 539 956 474 992 q 646 855 604 921 q 707 695 688 789 q 726 486 726 601 q 640 110 726 239 q 383 -19 554 -19 q 227 16 292 -19 q 121 117 163 51 q 60 277 79 183 q 40 486 40 371 m 383 142 q 497 207 456 142 q 544 415 538 272 l 224 415 q 238 304 228 354 q 268 218 249 254 q 316 162 288 182 q 383 142 344 142 m 543 563 q 528 669 539 621 q 499 754 518 718 q 451 810 479 790 q 383 831 422 831 q 224 563 240 831 l 543 563 z "},"ѳ":{"ha":618,"x_min":35,"x_max":583,"o":"m 35 347 q 106 620 35 526 q 308 714 178 714 q 429 688 378 714 q 515 615 481 663 q 567 499 550 567 q 583 347 583 432 q 511 74 583 167 q 308 -19 439 -19 q 188 6 239 -19 q 102 80 136 32 q 51 195 68 128 q 35 347 35 263 m 413 401 q 379 530 406 493 q 310 567 353 567 q 240 531 269 567 q 206 401 211 496 l 413 401 m 206 289 q 239 166 210 204 q 308 128 268 128 q 378 162 349 128 q 413 289 407 196 l 206 289 z "},"Ѵ":{"ha":733,"x_min":-17,"x_max":792,"o":"m 413 -7 l 279 -7 l -17 972 l 189 972 l 333 401 l 353 235 l 358 235 l 376 403 l 453 721 q 490 849 471 797 q 534 930 510 900 q 590 972 558 960 q 664 985 622 985 q 738 976 708 985 q 792 954 767 968 l 756 799 q 722 813 736 810 q 692 817 707 817 q 647 788 664 817 q 617 706 631 758 l 413 -7 z "},"ѵ":{"ha":606,"x_min":-12,"x_max":628,"o":"m 181 694 l 275 340 l 293 224 l 299 224 l 313 342 l 338 440 q 372 563 354 513 q 410 646 389 614 q 460 692 432 678 q 525 707 488 707 q 581 701 554 707 q 628 683 608 694 l 604 540 q 568 550 582 550 q 531 531 549 550 q 494 457 513 511 l 342 -7 l 236 -7 l -12 694 l 181 694 z "},"Ҋ":{"ha":818,"x_min":63,"x_max":825,"o":"m 522 518 l 536 656 l 529 656 l 476 508 l 200 0 l 63 0 l 63 972 l 238 972 l 238 464 l 222 322 l 229 322 l 285 474 l 561 972 l 697 972 l 697 151 l 825 151 l 825 108 l 714 -181 l 592 -181 l 643 0 l 522 0 l 522 518 m 307 1214 q 385 1129 315 1129 q 463 1213 454 1129 l 604 1192 q 536 1061 593 1101 q 383 1021 479 1021 q 294 1029 335 1021 q 224 1057 254 1038 q 174 1108 193 1076 q 149 1189 154 1140 l 307 1214 z "},"ҋ":{"ha":682,"x_min":60,"x_max":685,"o":"m 400 303 l 413 415 l 408 415 l 357 297 l 171 0 l 60 0 l 60 694 l 225 694 l 225 379 l 213 271 l 217 271 l 267 386 l 454 694 l 565 694 l 565 151 l 685 151 l 685 108 l 574 -158 l 451 -158 l 503 0 l 400 0 l 400 303 m 261 978 q 283 901 265 925 q 329 878 301 878 q 376 901 358 878 q 400 976 393 924 l 525 946 q 455 808 510 851 q 325 764 400 764 q 254 774 289 764 q 192 805 219 783 q 145 861 164 826 q 121 947 126 896 l 261 978 z "},"Ҍ":{"ha":757,"x_min":0,"x_max":732,"o":"m 0 896 l 160 896 l 160 1007 l 335 1007 l 335 896 l 561 896 l 561 744 l 335 744 l 335 613 q 353 616 340 614 q 382 619 367 618 q 413 622 397 621 q 443 624 429 624 q 554 610 501 624 q 647 564 607 597 q 709 472 686 531 q 732 322 732 414 q 651 71 732 156 q 397 -14 571 -14 q 353 -13 382 -14 q 292 -10 325 -12 q 224 -3 258 -8 q 160 8 189 1 l 160 744 l 0 744 l 0 896 m 335 156 q 367 149 347 151 q 407 147 388 147 q 510 185 471 147 q 549 315 549 222 q 538 394 549 364 q 508 442 526 425 q 463 466 489 460 q 408 472 438 472 q 369 469 393 472 q 335 461 344 465 l 335 156 z "},"ҍ":{"ha":631,"x_min":-7,"x_max":608,"o":"m -7 694 l 118 694 l 118 972 l 283 972 l 283 694 l 467 694 l 467 568 l 283 568 l 283 447 q 340 455 311 453 q 393 457 369 457 q 492 441 451 457 q 559 396 533 425 q 597 327 585 367 q 608 242 608 288 q 594 132 608 179 q 546 53 579 85 q 458 6 513 22 q 324 -10 403 -10 q 208 -7 257 -10 q 118 0 158 -4 l 118 568 l -7 568 l -7 694 m 283 146 q 343 138 313 138 q 415 163 393 138 q 438 238 438 188 q 416 306 438 282 q 347 331 394 331 q 283 322 313 331 l 283 146 z "},"Ҏ":{"ha":663,"x_min":63,"x_max":638,"o":"m 63 963 q 172 980 113 974 q 292 986 232 986 q 417 974 356 986 q 528 928 479 963 q 607 830 576 893 q 638 665 638 767 q 613 513 638 575 q 546 410 588 450 l 617 306 l 513 218 l 422 342 q 328 329 376 329 q 310 329 322 329 q 283 330 297 329 q 256 332 269 331 q 238 335 243 333 l 238 0 l 63 0 l 63 963 m 343 668 l 426 546 q 447 597 439 567 q 454 667 454 626 q 442 744 454 713 q 410 795 431 776 q 364 822 390 814 q 308 831 338 831 q 238 824 265 831 l 238 492 q 269 487 246 489 q 300 485 292 485 q 361 493 332 485 l 293 593 l 343 668 z "},"ҏ":{"ha":621,"x_min":60,"x_max":586,"o":"m 60 694 l 183 694 l 200 615 l 204 615 q 276 688 236 665 q 374 711 315 711 q 533 631 479 711 q 586 365 586 551 q 517 76 586 175 l 571 4 l 472 -86 l 407 -7 q 326 -19 371 -19 q 269 -14 293 -19 q 225 4 246 -8 l 225 -278 l 60 -278 l 60 694 m 331 268 l 392 193 q 409 265 403 222 q 415 369 415 308 q 393 516 415 468 q 319 564 371 564 q 225 482 250 564 l 225 156 q 256 135 239 142 q 301 128 274 128 q 344 136 325 128 l 286 211 l 331 268 z "},"Ґ":{"ha":529,"x_min":63,"x_max":539,"o":"m 539 811 l 238 811 l 238 0 l 63 0 l 63 972 l 403 972 l 426 1183 l 539 1183 l 539 811 z "},"ґ":{"ha":429,"x_min":60,"x_max":436,"o":"m 436 543 l 225 543 l 225 0 l 60 0 l 60 694 l 300 694 l 324 906 l 436 906 l 436 543 z "},"Ғ":{"ha":589,"x_min":1,"x_max":588,"o":"m 588 811 l 286 811 l 286 533 l 538 533 l 538 413 l 286 413 l 286 0 l 111 0 l 111 413 l 1 413 l 1 533 l 111 533 l 111 972 l 588 972 l 588 811 z "},"ғ":{"ha":469,"x_min":0,"x_max":464,"o":"m 464 543 l 253 543 l 253 381 l 439 381 l 439 271 l 253 271 l 253 0 l 88 0 l 88 271 l 0 271 l 0 381 l 88 381 l 88 694 l 464 694 l 464 543 z "},"Ҕ":{"ha":674,"x_min":63,"x_max":635,"o":"m 238 0 l 63 0 l 63 972 l 539 972 l 539 811 l 238 811 l 238 521 q 297 540 257 529 q 388 551 336 551 q 482 536 438 551 q 560 481 526 521 q 615 373 594 442 q 635 199 635 304 q 620 35 635 106 q 574 -82 606 -35 q 489 -153 542 -129 q 360 -176 436 -176 q 289 -171 304 -176 l 289 -17 q 314 -19 297 -19 q 349 -19 331 -19 q 426 30 401 -19 q 451 192 451 79 q 443 290 451 251 q 419 350 435 328 q 381 381 403 372 q 331 390 358 390 q 279 381 306 390 q 238 364 253 372 l 238 0 z "},"ҕ":{"ha":615,"x_min":60,"x_max":581,"o":"m 225 0 l 60 0 l 60 694 l 432 694 l 432 543 l 225 543 l 225 360 q 279 378 244 368 q 367 389 314 389 q 449 375 410 389 q 517 324 488 361 q 563 224 546 288 q 581 58 581 160 q 567 -95 581 -29 q 524 -205 554 -161 q 444 -271 494 -249 q 321 -293 394 -293 q 274 -291 290 -293 q 249 -286 257 -289 l 249 -139 q 272 -141 256 -140 q 307 -142 289 -142 q 382 -97 358 -142 q 406 57 406 -51 q 399 144 406 110 q 379 200 392 179 q 348 229 367 221 q 307 238 329 238 q 259 231 282 238 q 225 217 236 224 l 225 0 z "},"Җ":{"ha":1008,"x_min":-7,"x_max":1004,"o":"m 399 972 l 564 972 l 564 538 l 604 557 l 750 972 l 946 972 l 772 544 l 717 499 l 785 442 l 908 161 l 1004 161 l 1004 -174 l 881 -174 l 863 0 l 769 0 l 607 424 l 564 424 l 564 0 l 399 0 l 399 440 l 360 421 l 196 0 l -7 0 l 188 428 l 251 481 l 189 531 l 8 972 l 211 972 l 356 554 l 399 554 l 399 972 z "},"җ":{"ha":850,"x_min":-6,"x_max":846,"o":"m 525 288 l 479 288 l 479 0 l 322 0 l 322 301 l 279 282 l 178 0 l -6 0 l 133 318 l 174 360 l 115 413 l 7 694 l 182 694 l 275 413 l 322 413 l 322 694 l 479 694 l 479 399 l 521 418 l 614 694 l 789 694 l 674 413 l 628 368 l 686 313 l 751 151 l 846 151 l 846 -158 l 724 -158 l 706 0 l 626 0 l 525 288 z "},"Ҙ":{"ha":604,"x_min":17,"x_max":568,"o":"m 136 435 l 136 576 l 169 576 q 221 578 190 576 q 269 586 251 579 q 333 628 307 597 q 360 707 360 658 q 327 801 360 775 q 236 828 294 828 q 148 813 189 828 q 83 783 107 799 l 39 935 q 78 953 53 943 q 134 971 103 963 q 201 984 165 979 q 272 989 236 989 q 374 978 325 989 q 461 941 424 968 q 521 867 499 914 q 543 746 543 819 q 513 614 543 675 q 417 524 483 553 l 417 515 q 528 438 489 496 q 568 279 568 379 q 549 160 568 211 q 496 73 529 108 q 418 16 463 38 q 324 -14 374 -6 l 308 -243 l 194 -243 l 174 -15 q 85 3 125 -8 q 17 29 44 14 l 63 185 q 135 156 89 169 q 244 142 182 142 q 343 178 301 142 q 385 294 385 215 q 347 397 385 363 q 213 433 308 431 q 192 434 197 433 q 168 435 186 435 l 136 435 z "},"ҙ":{"ha":492,"x_min":19,"x_max":457,"o":"m 118 289 l 118 413 l 185 413 q 246 435 222 413 q 269 489 269 457 q 183 558 269 558 q 110 547 142 558 q 58 524 78 536 l 21 656 q 115 691 57 676 q 236 706 174 706 q 435 533 435 706 q 413 437 435 482 q 346 372 390 392 l 346 367 q 431 308 404 350 q 457 196 457 267 q 419 70 457 125 q 297 -4 381 15 l 281 -243 l 167 -243 l 144 -10 q 74 6 104 -4 q 19 32 43 17 l 53 167 q 115 142 79 151 q 190 133 150 133 q 292 215 292 133 q 266 269 292 250 q 171 289 240 289 l 118 289 z "},"Қ":{"ha":742,"x_min":63,"x_max":735,"o":"m 275 417 l 238 417 l 238 0 l 63 0 l 63 972 l 238 972 l 238 540 l 272 557 l 476 972 l 674 972 l 451 563 l 386 511 l 453 458 l 619 161 l 735 161 l 735 -174 l 611 -174 l 594 0 l 496 0 l 275 417 z "},"қ":{"ha":611,"x_min":60,"x_max":603,"o":"m 263 288 l 225 288 l 225 0 l 60 0 l 60 694 l 225 694 l 225 399 l 258 418 l 375 694 l 553 694 l 426 428 l 365 374 l 432 319 l 506 151 l 603 151 l 603 -158 l 481 -158 l 463 0 l 386 0 l 263 288 z "},"Ҝ":{"ha":839,"x_min":63,"x_max":828,"o":"m 300 732 l 415 732 l 415 558 l 442 561 l 608 972 l 796 972 l 615 564 l 550 511 l 615 457 l 828 0 l 626 0 l 446 415 l 415 415 l 415 239 l 300 239 l 300 415 l 238 415 l 238 0 l 63 0 l 63 972 l 238 972 l 238 542 l 300 547 l 300 732 z "},"ҝ":{"ha":682,"x_min":60,"x_max":668,"o":"m 271 571 l 361 571 l 361 415 l 386 418 l 476 694 l 650 694 l 550 426 l 488 374 l 553 321 l 668 0 l 488 0 l 392 288 l 361 288 l 361 124 l 271 124 l 271 288 l 225 288 l 225 0 l 60 0 l 60 694 l 225 694 l 225 399 l 271 404 l 271 571 z "},"Ҟ":{"ha":804,"x_min":1,"x_max":793,"o":"m 1 889 l 147 889 l 147 972 l 322 972 l 322 889 l 424 889 l 424 771 l 322 771 l 322 540 l 383 560 l 567 972 l 758 972 l 558 564 l 478 511 l 551 457 l 793 0 l 581 0 l 375 417 l 322 417 l 322 0 l 147 0 l 147 756 l 1 756 l 1 889 z "},"ҟ":{"ha":582,"x_min":-21,"x_max":583,"o":"m -21 869 l 71 869 l 71 972 l 236 972 l 236 869 l 411 869 l 411 760 l 236 760 l 236 399 l 269 418 l 385 694 l 564 694 l 436 419 l 376 372 l 442 325 l 583 0 l 397 0 l 275 288 l 236 288 l 236 0 l 71 0 l 71 760 l -21 760 l -21 869 z "},"Ҡ":{"ha":839,"x_min":0,"x_max":828,"o":"m 182 811 l 0 811 l 0 972 l 357 972 l 357 540 l 392 557 l 596 972 l 793 972 l 571 563 l 506 511 l 571 458 l 828 0 l 615 0 l 394 417 l 357 417 l 357 0 l 182 0 l 182 782 l 182 811 z "},"ҡ":{"ha":629,"x_min":-7,"x_max":631,"o":"m 283 399 l 318 417 l 435 694 l 611 694 l 486 431 l 424 378 l 489 324 l 631 0 l 444 0 l 322 288 l 283 288 l 283 0 l 118 0 l 118 543 l -7 543 l -7 694 l 283 694 l 283 399 z "},"Ң":{"ha":799,"x_min":63,"x_max":779,"o":"m 503 411 l 238 411 l 238 0 l 63 0 l 63 972 l 238 972 l 238 572 l 503 572 l 503 972 l 678 972 l 678 161 l 779 161 l 779 -174 l 656 -174 l 639 0 l 503 0 l 503 411 z "},"ң":{"ha":656,"x_min":60,"x_max":646,"o":"m 392 276 l 225 276 l 225 0 l 60 0 l 60 694 l 225 694 l 225 428 l 392 428 l 392 694 l 557 694 l 557 151 l 646 151 l 646 -158 l 524 -158 l 506 0 l 392 0 l 392 276 z "},"Ҥ":{"ha":968,"x_min":63,"x_max":979,"o":"m 979 811 l 678 811 l 678 0 l 503 0 l 503 411 l 238 411 l 238 0 l 63 0 l 63 972 l 238 972 l 238 572 l 503 572 l 503 972 l 979 972 l 979 811 z "},"ҥ":{"ha":758,"x_min":60,"x_max":765,"o":"m 765 543 l 557 543 l 557 0 l 392 0 l 392 276 l 225 276 l 225 0 l 60 0 l 60 694 l 225 694 l 225 428 l 392 428 l 392 694 l 765 694 l 765 543 z "},"Ҧ":{"ha":1099,"x_min":63,"x_max":1063,"o":"m 665 324 l 665 0 l 490 0 l 490 811 l 238 811 l 238 0 l 63 0 l 63 972 l 665 972 l 665 521 q 724 540 685 529 q 814 551 763 551 q 908 536 864 551 q 988 481 953 521 q 1042 373 1022 442 q 1063 199 1063 304 q 1049 39 1063 108 q 1003 -78 1035 -31 q 918 -151 971 -126 q 788 -176 865 -176 q 715 -171 731 -176 l 715 -17 q 740 -19 724 -19 q 775 -19 757 -19 q 853 31 828 -19 q 879 192 879 82 q 871 287 879 249 q 847 348 863 325 q 808 381 831 371 q 757 390 785 390 q 706 381 733 390 q 665 364 678 372 l 665 324 z "},"ҧ":{"ha":940,"x_min":60,"x_max":906,"o":"m 551 0 l 386 0 l 386 543 l 225 543 l 225 0 l 60 0 l 60 694 l 551 694 l 551 361 q 606 379 571 369 q 693 389 640 389 q 773 375 735 389 q 841 324 811 361 q 888 224 871 288 q 906 63 906 161 q 892 -94 906 -28 q 849 -205 879 -161 q 768 -271 818 -249 q 643 -293 718 -293 q 599 -291 614 -293 q 574 -286 583 -289 l 574 -139 q 599 -141 582 -140 q 633 -142 615 -142 q 710 -95 685 -142 q 735 56 735 -49 q 728 143 735 108 q 707 199 721 178 q 674 228 693 219 q 633 238 656 238 q 587 231 610 238 q 551 217 564 224 l 551 0 z "},"Ҩ":{"ha":1031,"x_min":40,"x_max":1000,"o":"m 410 831 q 272 749 321 831 q 224 494 224 668 q 242 344 224 410 q 290 233 260 278 q 358 165 319 189 q 438 142 397 142 q 467 143 451 142 q 490 149 482 144 q 406 286 442 192 q 371 510 371 381 q 450 835 371 726 q 671 944 529 944 q 801 915 747 944 q 890 834 856 886 q 941 710 925 782 q 957 553 957 638 q 942 407 957 474 q 905 288 928 340 q 855 198 882 235 q 803 143 828 161 q 818 142 810 142 q 833 142 826 142 q 894 152 864 142 q 946 181 925 163 l 1000 40 q 825 -19 940 -19 q 726 -3 778 -19 q 643 47 675 13 q 554 -2 603 15 q 438 -19 506 -19 q 142 113 243 -19 q 40 488 40 246 q 131 865 40 739 q 410 992 221 992 l 410 831 m 554 515 q 561 427 554 472 q 581 341 568 382 q 615 265 594 300 q 663 204 635 229 q 706 261 686 226 q 742 340 726 296 q 765 435 757 383 q 774 544 774 488 q 769 638 774 594 q 752 715 764 682 q 719 765 740 747 q 668 783 699 783 q 585 717 615 783 q 554 515 554 651 z "},"ҩ":{"ha":831,"x_min":33,"x_max":814,"o":"m 314 567 q 230 508 256 561 q 204 351 204 456 q 242 188 204 247 q 343 129 281 129 q 367 131 354 129 q 386 140 379 133 q 336 231 358 168 q 314 375 314 294 q 326 490 314 433 q 365 593 338 547 q 439 667 393 639 q 553 694 485 694 q 663 671 618 694 q 734 608 707 647 q 772 516 761 568 q 783 406 783 464 q 774 315 783 358 q 749 234 764 271 q 714 169 733 197 q 675 126 694 142 q 729 122 699 115 q 779 149 760 129 l 814 29 q 757 -6 792 7 q 674 -18 722 -18 q 587 -3 624 -18 q 526 39 550 13 q 441 -6 489 7 q 340 -18 393 -18 q 206 8 264 -18 q 110 81 149 33 q 53 196 72 128 q 33 347 33 264 q 48 494 33 428 q 96 608 63 560 q 183 683 129 656 q 314 714 236 711 l 314 567 m 474 372 q 491 256 474 310 q 540 169 508 203 q 593 260 574 199 q 613 396 613 321 q 597 507 613 467 q 547 547 581 547 q 488 500 503 547 q 474 372 474 453 z "},"Ҫ":{"ha":635,"x_min":40,"x_max":614,"o":"m 614 39 q 551 5 589 18 q 471 -14 513 -8 l 456 -243 l 342 -243 l 321 -12 q 208 32 260 -1 q 119 126 157 65 q 61 275 82 186 q 40 488 40 364 q 72 732 40 635 q 153 887 103 829 q 269 968 204 944 q 401 992 335 992 q 520 981 469 992 q 603 956 571 969 l 568 801 q 506 823 542 815 q 422 831 471 831 q 275 747 326 831 q 224 486 224 664 q 235 347 224 410 q 273 238 247 283 q 338 167 299 192 q 433 142 378 142 q 517 155 482 142 q 579 186 551 168 l 614 39 z "},"ҫ":{"ha":486,"x_min":35,"x_max":469,"o":"m 469 38 q 368 -8 428 4 l 353 -243 l 239 -243 l 217 -10 q 76 109 118 15 q 35 347 35 203 q 100 621 35 529 q 292 713 165 713 q 394 701 354 713 q 464 674 433 690 l 425 536 q 377 555 400 549 q 322 561 354 561 q 235 510 264 561 q 206 347 206 460 q 235 193 206 253 q 331 133 265 133 q 390 142 365 133 q 435 165 414 151 l 469 38 z "},"Ҭ":{"ha":658,"x_min":11,"x_max":647,"o":"m 242 811 l 11 811 l 11 972 l 647 972 l 647 811 l 417 811 l 417 161 l 518 161 l 518 -174 l 394 -174 l 378 0 l 242 0 l 242 811 z "},"ҭ":{"ha":479,"x_min":1,"x_max":478,"o":"m 157 543 l 1 543 l 1 694 l 478 694 l 478 543 l 322 543 l 322 151 l 419 151 l 419 -158 l 297 -158 l 279 0 l 157 0 l 157 543 z "},"Ү":{"ha":688,"x_min":-6,"x_max":693,"o":"m 256 361 l -6 972 l 203 972 l 338 604 l 351 499 l 358 499 l 374 607 l 506 972 l 693 972 l 431 363 l 431 0 l 256 0 l 256 361 z "},"ү":{"ha":567,"x_min":-12,"x_max":579,"o":"m -12 694 l 181 694 l 276 292 l 294 153 l 300 153 l 314 293 l 400 694 l 579 694 l 374 -1 l 374 -278 l 208 -278 l 208 -1 l -12 694 z "},"Ұ":{"ha":688,"x_min":-6,"x_max":693,"o":"m 78 406 l 236 406 l -6 972 l 203 972 l 338 604 l 351 499 l 358 499 l 374 607 l 506 972 l 693 972 l 449 406 l 608 406 l 608 286 l 431 286 l 431 0 l 256 0 l 256 286 l 78 286 l 78 406 z "},"ұ":{"ha":567,"x_min":-12,"x_max":579,"o":"m 74 0 l 207 0 l -12 694 l 181 694 l 276 292 l 294 153 l 300 153 l 314 293 l 400 694 l 579 694 l 374 0 l 506 0 l 506 -110 l 374 -110 l 374 -278 l 208 -278 l 208 -110 l 74 -110 l 74 0 z "},"Ҳ":{"ha":775,"x_min":8,"x_max":768,"o":"m 246 494 l 31 972 l 242 972 l 354 694 l 381 589 l 406 694 l 524 972 l 713 972 l 490 504 l 649 161 l 768 161 l 768 -174 l 644 -174 l 628 0 l 519 0 l 389 299 l 360 407 l 332 299 l 201 0 l 8 0 l 246 494 z "},"ҳ":{"ha":632,"x_min":6,"x_max":625,"o":"m 185 356 l 19 694 l 214 694 l 285 531 l 311 442 l 340 531 l 413 694 l 592 694 l 425 361 l 528 151 l 625 151 l 625 -158 l 503 -158 l 485 0 l 415 0 l 331 181 l 300 279 l 268 181 l 183 0 l 6 0 l 185 356 z "},"Ҵ":{"ha":961,"x_min":11,"x_max":943,"o":"m 943 -174 l 819 -174 l 801 0 l 242 0 l 242 811 l 11 811 l 11 972 l 565 972 l 565 811 l 417 811 l 417 161 l 667 161 l 667 972 l 842 972 l 842 161 l 943 161 l 943 -174 z "},"ҵ":{"ha":747,"x_min":1,"x_max":732,"o":"m 732 -158 l 610 -158 l 593 0 l 157 0 l 157 543 l 1 543 l 1 694 l 426 694 l 426 543 l 322 543 l 322 151 l 483 151 l 483 694 l 649 694 l 649 151 l 732 151 l 732 -158 z "},"Ҷ":{"ha":757,"x_min":47,"x_max":738,"o":"m 222 972 l 222 653 q 247 530 222 567 q 329 493 272 493 q 405 506 369 493 q 461 542 440 518 l 461 972 l 636 972 l 636 161 l 738 161 l 738 -174 l 614 -174 l 597 0 l 461 0 l 461 392 q 384 355 433 372 q 268 338 335 338 q 182 351 222 338 q 112 394 142 364 q 65 473 82 424 q 47 596 47 522 l 47 972 l 222 972 z "},"ҷ":{"ha":629,"x_min":33,"x_max":617,"o":"m 199 694 l 199 508 q 212 402 199 435 q 269 369 225 369 q 322 378 300 369 q 357 399 343 388 l 357 694 l 522 694 l 522 151 l 617 151 l 617 -158 l 494 -158 l 476 0 l 357 0 l 357 269 q 306 239 340 256 q 213 222 271 222 q 138 233 171 222 q 81 269 104 243 q 46 339 58 296 q 33 447 33 382 l 33 694 l 199 694 z "},"Ҹ":{"ha":754,"x_min":47,"x_max":692,"o":"m 314 339 q 296 338 304 338 q 279 338 288 338 q 110 397 172 338 q 47 597 47 457 l 47 972 l 222 972 l 222 654 q 242 539 222 576 q 314 494 263 501 l 314 663 l 431 663 l 431 504 q 517 540 485 517 l 517 972 l 692 972 l 692 0 l 517 0 l 517 393 q 480 374 501 383 q 431 357 458 364 l 431 169 l 314 169 l 314 339 z "},"ҹ":{"ha":633,"x_min":32,"x_max":574,"o":"m 263 221 q 242 219 251 219 q 222 219 233 219 q 141 231 176 219 q 81 269 106 242 q 44 343 57 297 q 32 458 32 389 l 32 694 l 197 694 l 197 519 q 211 412 197 449 q 263 367 225 375 l 263 536 l 354 536 l 354 374 q 408 399 392 382 l 408 694 l 574 694 l 574 0 l 408 0 l 408 269 q 354 242 392 257 l 354 82 l 263 82 l 263 221 z "},"Һ":{"ha":703,"x_min":63,"x_max":653,"o":"m 478 0 l 478 315 q 454 440 478 399 q 371 481 431 481 q 295 468 331 481 q 238 433 260 456 l 238 0 l 63 0 l 63 972 l 238 972 l 238 581 q 317 618 267 600 q 436 636 367 636 q 525 622 485 636 q 594 576 565 608 q 638 494 622 544 q 653 369 653 443 l 653 0 l 478 0 z "},"һ":{"ha":624,"x_min":60,"x_max":569,"o":"m 404 0 l 404 419 q 387 528 404 494 q 324 561 369 561 q 263 538 290 561 q 225 478 235 514 l 225 0 l 60 0 l 60 972 l 225 972 l 225 632 l 229 632 q 297 690 257 668 q 396 713 336 713 q 471 700 439 713 q 525 658 503 688 q 558 580 547 629 q 569 456 569 531 l 569 0 l 404 0 z "},"Ҽ":{"ha":926,"x_min":0,"x_max":878,"o":"m 417 411 q 469 213 422 285 q 619 142 517 142 q 713 160 669 142 q 796 208 756 178 l 840 57 q 586 -19 731 -19 q 338 90 426 -19 q 242 411 249 199 l 207 411 q 108 427 149 411 q 44 470 68 443 q 10 533 21 497 q 0 611 0 569 q 10 675 1 644 q 31 725 18 706 l 174 725 q 154 678 160 703 q 149 633 149 654 q 152 608 149 621 q 165 584 156 594 q 193 568 175 574 q 242 565 211 563 q 269 742 246 663 q 333 876 292 821 q 432 962 374 932 q 568 992 490 992 q 802 888 726 992 q 878 585 878 785 q 865 411 878 504 l 417 411 m 707 563 q 709 591 708 578 q 710 619 710 604 q 702 703 710 663 q 678 774 694 743 q 635 822 661 804 q 572 840 610 840 q 457 765 494 840 q 415 563 419 690 l 707 563 z "},"ҽ":{"ha":754,"x_min":1,"x_max":718,"o":"m 699 51 q 604 1 664 21 q 479 -18 544 -18 q 281 68 347 -18 q 206 301 215 154 l 194 301 q 52 343 103 301 q 4 478 1 385 q 15 544 4 518 q 43 593 26 571 l 181 593 q 151 547 163 576 q 139 481 139 517 q 153 435 139 454 q 208 417 168 415 q 295 639 224 564 q 485 714 367 714 q 571 701 529 714 q 645 656 613 688 q 698 573 678 625 q 718 442 718 521 q 715 376 718 411 q 704 301 711 342 l 367 301 q 403 169 369 215 q 510 124 436 124 q 591 138 554 124 q 647 167 628 151 l 699 51 m 482 572 q 403 530 429 572 q 372 411 376 488 l 564 411 q 547 531 568 490 q 482 572 526 572 z "},"Ҿ":{"ha":926,"x_min":0,"x_max":878,"o":"m 417 411 q 469 213 422 285 q 619 142 517 142 q 713 160 669 142 q 796 208 756 178 l 840 57 q 660 -14 760 1 l 644 -243 l 531 -243 l 510 -12 q 317 118 385 11 q 242 411 249 225 l 207 411 q 108 427 149 411 q 44 470 68 443 q 10 533 21 497 q 0 611 0 569 q 10 675 1 644 q 31 725 18 706 l 174 725 q 154 678 160 703 q 149 633 149 654 q 152 608 149 621 q 165 584 156 594 q 193 568 175 574 q 242 565 211 563 q 269 742 246 663 q 333 876 292 821 q 432 962 374 932 q 568 992 490 992 q 802 888 726 992 q 878 585 878 785 q 865 411 878 504 l 417 411 m 707 563 q 709 591 708 578 q 710 619 710 604 q 702 703 710 663 q 678 774 694 743 q 635 822 661 804 q 572 840 610 840 q 457 765 494 840 q 415 563 419 690 l 707 563 z "},"ҿ":{"ha":754,"x_min":1,"x_max":718,"o":"m 699 51 q 638 14 675 31 q 556 -10 600 -3 l 540 -243 l 426 -243 l 404 -10 q 260 94 308 14 q 206 301 213 175 l 194 301 q 52 343 103 301 q 4 478 1 385 q 15 544 4 518 q 43 593 26 571 l 181 593 q 151 547 163 576 q 139 481 139 517 q 153 435 139 454 q 208 417 168 415 q 295 639 224 564 q 485 714 367 714 q 571 701 529 714 q 645 656 613 688 q 698 573 678 625 q 718 442 718 521 q 715 376 718 411 q 704 301 711 342 l 367 301 q 403 169 369 215 q 510 124 436 124 q 591 138 554 124 q 647 167 628 151 l 699 51 m 482 572 q 403 530 429 572 q 372 411 376 488 l 564 411 q 547 531 568 490 q 482 572 526 572 z "},"Ӏ":{"ha":331,"x_min":78,"x_max":253,"o":"m 78 972 l 253 972 l 253 0 l 78 0 l 78 972 z "},"Ӄ":{"ha":711,"x_min":63,"x_max":674,"o":"m 472 107 q 463 238 472 181 q 433 335 454 296 q 374 396 411 375 q 279 417 336 417 l 238 417 l 238 0 l 63 0 l 63 972 l 238 972 l 238 540 l 272 557 l 476 972 l 674 972 l 460 583 l 389 528 l 443 528 q 536 482 497 511 q 599 406 575 453 q 635 292 624 360 q 647 132 647 225 l 647 94 q 581 -194 647 -101 q 396 -286 514 -286 q 361 -285 379 -286 q 324 -279 343 -283 l 324 -131 q 440 -81 407 -137 q 472 107 472 -25 z "},"ӄ":{"ha":581,"x_min":60,"x_max":553,"o":"m 381 44 q 352 219 381 163 q 263 283 324 276 l 225 283 l 225 0 l 60 0 l 60 694 l 225 694 l 225 393 l 258 410 l 375 694 l 553 694 l 425 418 l 369 374 l 415 369 q 483 325 457 356 q 522 253 508 294 q 541 163 536 213 q 546 63 546 114 l 546 39 q 492 -209 546 -131 q 338 -287 439 -287 q 257 -278 297 -287 l 257 -132 q 350 -100 319 -143 q 381 44 381 -57 z "},"Ӆ":{"ha":760,"x_min":-17,"x_max":767,"o":"m 479 811 l 332 811 q 306 370 322 547 q 242 100 289 193 q 203 45 225 67 q 160 12 182 24 q 117 -5 139 0 q 76 -10 94 -10 q 25 -5 47 -10 q -17 10 3 0 l 3 168 q 53 167 28 158 q 94 213 78 176 q 124 302 111 243 q 145 454 136 361 q 159 675 154 547 q 167 972 164 803 l 654 972 l 654 151 l 767 151 l 767 108 l 656 -181 l 533 -181 l 585 0 l 479 0 l 479 811 z "},"ӆ":{"ha":647,"x_min":-21,"x_max":650,"o":"m 376 543 l 276 543 q 261 321 271 422 q 231 147 251 219 q 174 33 210 74 q 82 -8 139 -8 q 22 -3 47 -8 q -21 13 -3 1 l -1 157 q 55 158 32 146 q 93 227 78 171 q 117 394 108 283 q 131 694 126 506 l 542 694 l 542 151 l 650 151 l 650 108 l 539 -158 l 417 -158 l 468 0 l 376 0 l 376 543 z "},"Ӈ":{"ha":740,"x_min":63,"x_max":678,"o":"m 678 0 l 678 -42 q 492 -287 678 -287 q 415 -279 457 -287 l 415 -132 q 462 -127 444 -135 q 488 -102 479 -119 q 500 -59 497 -85 q 503 0 503 -33 l 503 411 l 238 411 l 238 0 l 63 0 l 63 972 l 238 972 l 238 572 l 503 572 l 503 972 l 678 972 l 678 0 z "},"ӈ":{"ha":617,"x_min":60,"x_max":557,"o":"m 392 276 l 225 276 l 225 0 l 60 0 l 60 694 l 225 694 l 225 428 l 392 428 l 392 694 l 557 694 l 557 -43 q 514 -223 557 -160 q 375 -286 471 -286 q 337 -284 357 -286 q 294 -276 317 -282 l 294 -133 q 373 -105 354 -139 q 392 0 392 -71 l 392 276 z "},"Ӊ":{"ha":788,"x_min":63,"x_max":794,"o":"m 503 411 l 238 411 l 238 0 l 63 0 l 63 972 l 238 972 l 238 572 l 503 572 l 503 972 l 678 972 l 678 151 l 794 151 l 794 108 l 683 -181 l 561 -181 l 613 0 l 503 0 l 503 411 z "},"ӊ":{"ha":669,"x_min":60,"x_max":672,"o":"m 392 276 l 225 276 l 225 0 l 60 0 l 60 694 l 225 694 l 225 428 l 392 428 l 392 694 l 557 694 l 557 151 l 672 151 l 672 108 l 561 -158 l 439 -158 l 490 0 l 392 0 l 392 276 z "},"Ӌ":{"ha":699,"x_min":47,"x_max":636,"o":"m 222 972 l 222 653 q 247 530 222 567 q 329 493 272 493 q 405 506 369 493 q 461 542 440 518 l 461 972 l 636 972 l 636 0 l 501 0 l 485 -174 l 361 -174 l 361 161 l 461 161 l 461 392 q 384 355 433 372 q 268 338 335 338 q 182 351 222 338 q 112 394 142 364 q 65 473 82 424 q 47 596 47 522 l 47 972 l 222 972 z "},"ӌ":{"ha":583,"x_min":33,"x_max":524,"o":"m 358 289 q 306 259 340 274 q 213 244 272 244 q 81 297 129 244 q 33 474 33 349 l 33 694 l 199 694 l 199 542 q 213 427 199 463 q 271 392 226 392 q 322 399 300 392 q 358 418 344 407 l 358 694 l 524 694 l 524 0 l 385 0 l 368 -158 l 246 -158 l 246 131 l 358 131 l 358 289 z "},"Ӎ":{"ha":979,"x_min":63,"x_max":988,"o":"m 685 501 l 704 688 l 697 688 l 646 521 l 488 179 l 429 179 l 261 522 l 210 690 l 201 690 l 228 503 l 228 0 l 63 0 l 63 972 l 231 972 l 433 551 l 467 431 l 472 431 l 504 554 l 694 972 l 860 972 l 860 151 l 988 151 l 988 108 l 876 -181 l 754 -181 l 806 0 l 685 0 l 685 501 z "},"ӎ":{"ha":824,"x_min":60,"x_max":826,"o":"m 554 319 l 564 463 l 557 463 l 515 333 l 414 125 l 351 125 l 240 333 l 197 463 l 189 463 l 207 319 l 207 0 l 60 0 l 60 694 l 233 694 l 360 439 l 388 346 l 393 346 l 422 442 l 539 694 l 711 694 l 711 151 l 826 151 l 826 108 l 715 -158 l 593 -158 l 644 0 l 554 0 l 554 319 z "},"ӏ":{"ha":301,"x_min":68,"x_max":233,"o":"m 68 972 l 233 972 l 233 0 l 68 0 l 68 972 z "},"Ӑ":{"ha":696,"x_min":-4,"x_max":699,"o":"m 456 219 l 226 219 l 169 0 l -4 0 l 278 979 l 415 979 l 699 0 l 515 0 l 456 219 m 264 364 l 425 364 l 369 590 l 347 743 l 342 743 l 318 589 l 264 364 m 274 1214 q 351 1129 282 1129 q 429 1213 421 1129 l 571 1192 q 503 1061 560 1101 q 350 1021 446 1021 q 261 1029 301 1021 q 190 1057 221 1038 q 140 1108 160 1076 q 115 1189 121 1140 l 274 1214 z "},"ӑ":{"ha":574,"x_min":24,"x_max":531,"o":"m 61 653 q 165 693 103 678 q 307 708 228 708 q 472 647 425 708 q 518 474 518 586 q 515 345 518 408 q 510 222 511 282 q 512 105 508 161 q 531 -1 515 49 l 396 -1 l 369 83 l 364 83 q 301 17 342 43 q 200 -10 261 -10 q 71 45 118 -10 q 24 192 24 100 q 113 369 24 317 q 353 414 201 422 q 342 531 360 494 q 268 567 325 567 q 182 557 226 567 q 103 529 138 547 l 61 653 m 260 132 q 321 151 297 132 q 356 192 344 169 l 356 307 q 294 308 324 311 q 243 296 265 306 q 208 267 221 286 q 194 219 194 249 q 212 154 194 176 q 260 132 229 132 m 226 978 q 249 901 231 925 q 294 878 267 878 q 341 901 324 878 q 365 976 358 924 l 490 946 q 420 808 475 851 q 290 764 365 764 q 219 774 254 764 q 157 805 185 783 q 110 861 129 826 q 86 947 92 896 l 226 978 z "},"Ӓ":{"ha":696,"x_min":-4,"x_max":699,"o":"m 456 219 l 226 219 l 169 0 l -4 0 l 278 979 l 415 979 l 699 0 l 515 0 l 456 219 m 264 364 l 425 364 l 369 590 l 347 743 l 342 743 l 318 589 l 264 364 m 126 1108 q 148 1167 126 1144 q 222 1189 169 1189 q 292 1167 271 1189 q 314 1108 314 1144 q 292 1051 314 1072 q 222 1029 271 1029 q 148 1051 169 1029 q 126 1108 126 1072 m 379 1108 q 401 1167 379 1144 q 472 1189 422 1189 q 545 1167 524 1189 q 567 1108 567 1144 q 545 1051 567 1072 q 472 1029 524 1029 q 401 1051 422 1029 q 379 1108 379 1072 z "},"ӓ":{"ha":574,"x_min":24,"x_max":531,"o":"m 61 653 q 165 693 103 678 q 307 708 228 708 q 472 647 425 708 q 518 474 518 586 q 515 345 518 408 q 510 222 511 282 q 512 105 508 161 q 531 -1 515 49 l 396 -1 l 369 83 l 364 83 q 301 17 342 43 q 200 -10 261 -10 q 71 45 118 -10 q 24 192 24 100 q 113 369 24 317 q 353 414 201 422 q 342 531 360 494 q 268 567 325 567 q 182 557 226 567 q 103 529 138 547 l 61 653 m 260 132 q 321 151 297 132 q 356 192 344 169 l 356 307 q 294 308 324 311 q 243 296 265 306 q 208 267 221 286 q 194 219 194 249 q 212 154 194 176 q 260 132 229 132 m 72 878 q 97 947 72 922 q 161 972 121 972 q 224 947 200 972 q 247 878 247 922 q 224 812 247 836 q 161 788 200 788 q 97 812 121 788 q 72 878 72 836 m 331 878 q 354 947 331 922 q 418 972 378 972 q 482 947 458 972 q 506 878 506 922 q 482 812 506 836 q 418 788 458 788 q 354 812 378 788 q 331 878 331 836 z "},"Ӕ":{"ha":996,"x_min":-33,"x_max":951,"o":"m 453 725 l 417 590 l 326 385 l 460 385 l 460 725 l 453 725 m 460 240 l 260 240 l 150 0 l -33 0 l 453 972 l 946 972 l 946 811 l 635 811 l 635 572 l 917 572 l 917 411 l 635 411 l 635 161 l 951 161 l 951 0 l 460 0 l 460 240 z "},"ӕ":{"ha":907,"x_min":24,"x_max":863,"o":"m 357 310 q 296 310 325 313 q 244 298 267 308 q 208 269 221 288 q 194 219 194 250 q 211 158 194 181 q 260 136 228 136 q 322 155 299 136 q 357 199 346 174 l 357 310 m 399 94 q 324 18 369 47 q 203 -11 279 -11 q 72 46 119 -11 q 24 193 24 103 q 47 301 24 257 q 112 372 69 344 q 215 410 154 399 q 351 417 276 421 q 353 440 353 429 q 353 461 353 450 q 335 540 353 515 q 269 564 317 564 q 182 551 226 564 q 103 519 138 539 l 60 644 q 168 691 104 674 q 301 708 232 708 q 397 690 360 708 q 457 633 433 672 q 529 694 485 674 q 629 714 574 714 q 716 701 674 714 q 791 656 758 688 q 843 571 824 624 q 863 439 863 518 q 859 374 863 408 q 849 300 856 339 l 514 300 q 549 166 517 208 q 653 124 581 124 q 733 137 696 124 q 789 165 769 150 l 843 50 q 750 2 808 22 q 621 -18 692 -18 q 406 94 469 -18 l 399 94 m 708 410 q 692 528 713 485 q 625 572 671 572 q 547 531 572 572 q 518 410 522 489 l 708 410 z "},"Ӗ":{"ha":597,"x_min":63,"x_max":554,"o":"m 63 972 l 549 972 l 549 811 l 238 811 l 238 572 l 519 572 l 519 411 l 238 411 l 238 161 l 554 161 l 554 0 l 63 0 l 63 972 m 236 1214 q 314 1129 244 1129 q 392 1213 383 1129 l 533 1192 q 465 1061 522 1101 q 313 1021 408 1021 q 224 1029 264 1021 q 153 1057 183 1038 q 103 1108 122 1076 q 78 1189 83 1140 l 236 1214 z "},"ӗ":{"ha":594,"x_min":35,"x_max":549,"o":"m 529 51 q 435 1 494 21 q 310 -18 375 -18 q 185 7 238 -18 q 100 79 133 32 q 51 194 67 126 q 35 347 35 261 q 109 624 35 535 q 315 714 183 714 q 401 701 360 714 q 476 656 443 688 q 528 573 508 625 q 549 442 549 521 q 545 376 549 411 q 535 301 542 342 l 197 301 q 233 169 200 215 q 340 124 267 124 q 422 138 385 124 q 478 167 458 151 l 529 51 m 313 572 q 233 530 260 572 q 203 411 207 488 l 394 411 q 378 531 399 490 q 313 572 357 572 m 238 978 q 260 901 242 925 q 306 878 278 878 q 352 901 335 878 q 376 976 369 924 l 501 946 q 431 808 486 851 q 301 764 376 764 q 231 774 265 764 q 168 805 196 783 q 122 861 140 826 q 97 947 103 896 l 238 978 z "},"Ә":{"ha":724,"x_min":40,"x_max":682,"o":"m 222 418 q 219 384 219 401 q 219 351 219 367 q 227 266 219 306 q 251 197 235 226 q 293 149 268 167 q 354 132 318 132 q 465 202 431 132 q 499 418 499 272 l 222 418 m 499 565 q 485 676 496 626 q 452 759 474 725 q 396 812 431 793 q 310 831 361 831 q 206 810 251 831 q 133 772 161 790 l 94 925 q 141 949 114 938 q 201 971 168 961 q 268 986 233 981 q 339 992 303 992 q 488 963 424 992 q 594 873 551 935 q 660 715 638 811 q 682 486 682 619 q 664 274 682 368 q 606 115 646 181 q 502 15 565 50 q 347 -19 439 -19 q 209 10 267 -19 q 114 92 151 39 q 58 222 76 146 q 40 392 40 297 q 53 565 40 474 l 499 565 z "},"ә":{"ha":583,"x_min":36,"x_max":549,"o":"m 54 646 q 151 694 90 675 q 279 713 211 713 q 483 616 418 713 q 549 347 549 519 q 476 72 549 163 q 278 -18 403 -18 q 188 -3 232 -18 q 110 44 144 11 q 56 132 76 78 q 36 267 36 186 q 40 332 36 297 q 50 406 43 367 l 383 406 q 347 532 378 493 q 244 571 317 571 q 165 556 200 571 q 111 525 131 540 l 54 646 m 278 124 q 357 169 329 124 q 383 296 385 215 l 189 296 q 207 172 183 219 q 278 124 231 124 z "},"Ӛ":{"ha":724,"x_min":40,"x_max":682,"o":"m 222 418 q 219 384 219 401 q 219 351 219 367 q 227 266 219 306 q 251 197 235 226 q 293 149 268 167 q 354 132 318 132 q 465 202 431 132 q 499 418 499 272 l 222 418 m 499 565 q 485 676 496 626 q 452 759 474 725 q 396 812 431 793 q 310 831 361 831 q 206 810 251 831 q 133 772 161 790 l 94 925 q 141 949 114 938 q 201 971 168 961 q 268 986 233 981 q 339 992 303 992 q 488 963 424 992 q 594 873 551 935 q 660 715 638 811 q 682 486 682 619 q 664 274 682 368 q 606 115 646 181 q 502 15 565 50 q 347 -19 439 -19 q 209 10 267 -19 q 114 92 151 39 q 58 222 76 146 q 40 392 40 297 q 53 565 40 474 l 499 565 m 131 1108 q 152 1167 131 1144 q 226 1189 174 1189 q 297 1167 275 1189 q 318 1108 318 1144 q 297 1051 318 1072 q 226 1029 275 1029 q 152 1051 174 1029 q 131 1108 131 1072 m 383 1108 q 405 1167 383 1144 q 476 1189 426 1189 q 549 1167 528 1189 q 571 1108 571 1144 q 549 1051 571 1072 q 476 1029 528 1029 q 405 1051 426 1029 q 383 1108 383 1072 z "}}}
